<?xml version="1.0" encoding="utf-8" standalone="no"?>
<!DOCTYPE svg PUBLIC "-//W3C//DTD SVG 1.1//EN"
  "http://www.w3.org/Graphics/SVG/1.1/DTD/svg11.dtd">
<!-- Created with matplotlib (http://matplotlib.org/) -->
<svg height="319pt" version="1.1" viewBox="0 0 620 319" width="620pt" xmlns="http://www.w3.org/2000/svg" xmlns:xlink="http://www.w3.org/1999/xlink">
 <defs>
  <style type="text/css">
*{stroke-linecap:butt;stroke-linejoin:round;}
  </style>
 </defs>
 <g id="figure_1">
  <g id="patch_1">
   <path d="
M0 319.548
L620.59 319.548
L620.59 0
L0 0
z
" style="fill:#ffffff;"/>
  </g>
  <g id="axes_1">
   <g id="patch_2">
    <path d="
M54.2 281.16
L612.2 281.16
L612.2 2.16
L54.2 2.16
z
" style="fill:#ffffff;"/>
   </g>
   <g id="matplotlib.axis_1">
    <g id="xtick_1">
     <g id="line2d_1">
      <path clip-path="url(#p1f17114eb1)" d="
M54.2 281.16
L54.2 2.16" style="fill:none;stroke:#f7f7f7;stroke-linecap:square;"/>
     </g>
     <g id="line2d_2">
      <defs>
       <path d="
M0 0
L0 4" id="md11e513213" style="stroke:#111111;stroke-width:0.5;"/>
      </defs>
      <g>
       <use style="fill:#111111;stroke:#111111;stroke-width:0.5;" x="54.2" xlink:href="#md11e513213" y="281.16"/>
      </g>
     </g>
     <g id="text_1">
      <!-- 2 -->
      <defs>
       <path d="
M19.1875 8.29688
L53.6094 8.29688
L53.6094 0
L7.32812 0
L7.32812 8.29688
Q12.9375 14.1094 22.625 23.8906
Q32.3281 33.6875 34.8125 36.5312
Q39.5469 41.8438 41.4219 45.5312
Q43.3125 49.2188 43.3125 52.7812
Q43.3125 58.5938 39.2344 62.25
Q35.1562 65.9219 28.6094 65.9219
Q23.9688 65.9219 18.8125 64.3125
Q13.6719 62.7031 7.8125 59.4219
L7.8125 69.3906
Q13.7656 71.7812 18.9375 73
Q24.125 74.2188 28.4219 74.2188
Q39.75 74.2188 46.4844 68.5469
Q53.2188 62.8906 53.2188 53.4219
Q53.2188 48.9219 51.5312 44.8906
Q49.8594 40.875 45.4062 35.4062
Q44.1875 33.9844 37.6406 27.2188
Q31.1094 20.4531 19.1875 8.29688" id="BitstreamVeraSans-Roman-32"/>
      </defs>
      <g transform="translate(51.65453125 297.51828125)scale(0.11 -0.11)">
       <use xlink:href="#BitstreamVeraSans-Roman-32"/>
      </g>
     </g>
    </g>
    <g id="xtick_2">
     <g id="line2d_3">
      <path clip-path="url(#p1f17114eb1)" d="
M116.2 281.16
L116.2 2.16" style="fill:none;stroke:#f7f7f7;stroke-linecap:square;"/>
     </g>
     <g id="line2d_4">
      <g>
       <use style="fill:#111111;stroke:#111111;stroke-width:0.5;" x="116.2" xlink:href="#md11e513213" y="281.16"/>
      </g>
     </g>
     <g id="text_2">
      <!-- 4 -->
      <defs>
       <path d="
M37.7969 64.3125
L12.8906 25.3906
L37.7969 25.3906
z

M35.2031 72.9062
L47.6094 72.9062
L47.6094 25.3906
L58.0156 25.3906
L58.0156 17.1875
L47.6094 17.1875
L47.6094 0
L37.7969 0
L37.7969 17.1875
L4.89062 17.1875
L4.89062 26.7031
z
" id="BitstreamVeraSans-Roman-34"/>
      </defs>
      <g transform="translate(113.278125 297.51828125)scale(0.11 -0.11)">
       <use xlink:href="#BitstreamVeraSans-Roman-34"/>
      </g>
     </g>
    </g>
    <g id="xtick_3">
     <g id="line2d_5">
      <path clip-path="url(#p1f17114eb1)" d="
M178.2 281.16
L178.2 2.16" style="fill:none;stroke:#f7f7f7;stroke-linecap:square;"/>
     </g>
     <g id="line2d_6">
      <g>
       <use style="fill:#111111;stroke:#111111;stroke-width:0.5;" x="178.2" xlink:href="#md11e513213" y="281.16"/>
      </g>
     </g>
     <g id="text_3">
      <!-- 6 -->
      <defs>
       <path d="
M33.0156 40.375
Q26.375 40.375 22.4844 35.8281
Q18.6094 31.2969 18.6094 23.3906
Q18.6094 15.5312 22.4844 10.9531
Q26.375 6.39062 33.0156 6.39062
Q39.6562 6.39062 43.5312 10.9531
Q47.4062 15.5312 47.4062 23.3906
Q47.4062 31.2969 43.5312 35.8281
Q39.6562 40.375 33.0156 40.375
M52.5938 71.2969
L52.5938 62.3125
Q48.875 64.0625 45.0938 64.9844
Q41.3125 65.9219 37.5938 65.9219
Q27.8281 65.9219 22.6719 59.3281
Q17.5312 52.7344 16.7969 39.4062
Q19.6719 43.6562 24.0156 45.9219
Q28.375 48.1875 33.5938 48.1875
Q44.5781 48.1875 50.9531 41.5156
Q57.3281 34.8594 57.3281 23.3906
Q57.3281 12.1562 50.6875 5.35938
Q44.0469 -1.42188 33.0156 -1.42188
Q20.3594 -1.42188 13.6719 8.26562
Q6.98438 17.9688 6.98438 36.375
Q6.98438 53.6562 15.1875 63.9375
Q23.3906 74.2188 37.2031 74.2188
Q40.9219 74.2188 44.7031 73.4844
Q48.4844 72.75 52.5938 71.2969" id="BitstreamVeraSans-Roman-36"/>
      </defs>
      <g transform="translate(175.43109375 297.51828125)scale(0.11 -0.11)">
       <use xlink:href="#BitstreamVeraSans-Roman-36"/>
      </g>
     </g>
    </g>
    <g id="xtick_4">
     <g id="line2d_7">
      <path clip-path="url(#p1f17114eb1)" d="
M240.2 281.16
L240.2 2.16" style="fill:none;stroke:#f7f7f7;stroke-linecap:square;"/>
     </g>
     <g id="line2d_8">
      <g>
       <use style="fill:#111111;stroke:#111111;stroke-width:0.5;" x="240.2" xlink:href="#md11e513213" y="281.16"/>
      </g>
     </g>
     <g id="text_4">
      <!-- 8 -->
      <defs>
       <path d="
M31.7812 34.625
Q24.75 34.625 20.7188 30.8594
Q16.7031 27.0938 16.7031 20.5156
Q16.7031 13.9219 20.7188 10.1562
Q24.75 6.39062 31.7812 6.39062
Q38.8125 6.39062 42.8594 10.1719
Q46.9219 13.9688 46.9219 20.5156
Q46.9219 27.0938 42.8906 30.8594
Q38.875 34.625 31.7812 34.625
M21.9219 38.8125
Q15.5781 40.375 12.0312 44.7188
Q8.5 49.0781 8.5 55.3281
Q8.5 64.0625 14.7188 69.1406
Q20.9531 74.2188 31.7812 74.2188
Q42.6719 74.2188 48.875 69.1406
Q55.0781 64.0625 55.0781 55.3281
Q55.0781 49.0781 51.5312 44.7188
Q48 40.375 41.7031 38.8125
Q48.8281 37.1562 52.7969 32.3125
Q56.7812 27.4844 56.7812 20.5156
Q56.7812 9.90625 50.3125 4.23438
Q43.8438 -1.42188 31.7812 -1.42188
Q19.7344 -1.42188 13.25 4.23438
Q6.78125 9.90625 6.78125 20.5156
Q6.78125 27.4844 10.7812 32.3125
Q14.7969 37.1562 21.9219 38.8125
M18.3125 54.3906
Q18.3125 48.7344 21.8438 45.5625
Q25.3906 42.3906 31.7812 42.3906
Q38.1406 42.3906 41.7188 45.5625
Q45.3125 48.7344 45.3125 54.3906
Q45.3125 60.0625 41.7188 63.2344
Q38.1406 66.4062 31.7812 66.4062
Q25.3906 66.4062 21.8438 63.2344
Q18.3125 60.0625 18.3125 54.3906" id="BitstreamVeraSans-Roman-38"/>
      </defs>
      <g transform="translate(237.45 297.51828125)scale(0.11 -0.11)">
       <use xlink:href="#BitstreamVeraSans-Roman-38"/>
      </g>
     </g>
    </g>
    <g id="xtick_5">
     <g id="line2d_9">
      <path clip-path="url(#p1f17114eb1)" d="
M302.2 281.16
L302.2 2.16" style="fill:none;stroke:#f7f7f7;stroke-linecap:square;"/>
     </g>
     <g id="line2d_10">
      <g>
       <use style="fill:#111111;stroke:#111111;stroke-width:0.5;" x="302.2" xlink:href="#md11e513213" y="281.16"/>
      </g>
     </g>
     <g id="text_5">
      <!-- 10 -->
      <defs>
       <path d="
M31.7812 66.4062
Q24.1719 66.4062 20.3281 58.9062
Q16.5 51.4219 16.5 36.375
Q16.5 21.3906 20.3281 13.8906
Q24.1719 6.39062 31.7812 6.39062
Q39.4531 6.39062 43.2812 13.8906
Q47.125 21.3906 47.125 36.375
Q47.125 51.4219 43.2812 58.9062
Q39.4531 66.4062 31.7812 66.4062
M31.7812 74.2188
Q44.0469 74.2188 50.5156 64.5156
Q56.9844 54.8281 56.9844 36.375
Q56.9844 17.9688 50.5156 8.26562
Q44.0469 -1.42188 31.7812 -1.42188
Q19.5312 -1.42188 13.0625 8.26562
Q6.59375 17.9688 6.59375 36.375
Q6.59375 54.8281 13.0625 64.5156
Q19.5312 74.2188 31.7812 74.2188" id="BitstreamVeraSans-Roman-30"/>
       <path d="
M12.4062 8.29688
L28.5156 8.29688
L28.5156 63.9219
L10.9844 60.4062
L10.9844 69.3906
L28.4219 72.9062
L38.2812 72.9062
L38.2812 8.29688
L54.3906 8.29688
L54.3906 0
L12.4062 0
z
" id="BitstreamVeraSans-Roman-31"/>
      </defs>
      <g transform="translate(296.170625 297.51828125)scale(0.11 -0.11)">
       <use xlink:href="#BitstreamVeraSans-Roman-31"/>
       <use x="63.623046875" xlink:href="#BitstreamVeraSans-Roman-30"/>
      </g>
     </g>
    </g>
    <g id="xtick_6">
     <g id="line2d_11">
      <path clip-path="url(#p1f17114eb1)" d="
M364.2 281.16
L364.2 2.16" style="fill:none;stroke:#f7f7f7;stroke-linecap:square;"/>
     </g>
     <g id="line2d_12">
      <g>
       <use style="fill:#111111;stroke:#111111;stroke-width:0.5;" x="364.2" xlink:href="#md11e513213" y="281.16"/>
      </g>
     </g>
     <g id="text_6">
      <!-- 12 -->
      <g transform="translate(358.35625 297.51828125)scale(0.11 -0.11)">
       <use xlink:href="#BitstreamVeraSans-Roman-31"/>
       <use x="63.623046875" xlink:href="#BitstreamVeraSans-Roman-32"/>
      </g>
     </g>
    </g>
    <g id="xtick_7">
     <g id="line2d_13">
      <path clip-path="url(#p1f17114eb1)" d="
M426.2 281.16
L426.2 2.16" style="fill:none;stroke:#f7f7f7;stroke-linecap:square;"/>
     </g>
     <g id="line2d_14">
      <g>
       <use style="fill:#111111;stroke:#111111;stroke-width:0.5;" x="426.2" xlink:href="#md11e513213" y="281.16"/>
      </g>
     </g>
     <g id="text_7">
      <!-- 14 -->
      <g transform="translate(420.11390625 297.51828125)scale(0.11 -0.11)">
       <use xlink:href="#BitstreamVeraSans-Roman-31"/>
       <use x="63.623046875" xlink:href="#BitstreamVeraSans-Roman-34"/>
      </g>
     </g>
    </g>
    <g id="xtick_8">
     <g id="line2d_15">
      <path clip-path="url(#p1f17114eb1)" d="
M488.2 281.16
L488.2 2.16" style="fill:none;stroke:#f7f7f7;stroke-linecap:square;"/>
     </g>
     <g id="line2d_16">
      <g>
       <use style="fill:#111111;stroke:#111111;stroke-width:0.5;" x="488.2" xlink:href="#md11e513213" y="281.16"/>
      </g>
     </g>
     <g id="text_8">
      <!-- 16 -->
      <g transform="translate(482.15171875 297.51828125)scale(0.11 -0.11)">
       <use xlink:href="#BitstreamVeraSans-Roman-31"/>
       <use x="63.623046875" xlink:href="#BitstreamVeraSans-Roman-36"/>
      </g>
     </g>
    </g>
    <g id="xtick_9">
     <g id="line2d_17">
      <path clip-path="url(#p1f17114eb1)" d="
M550.2 281.16
L550.2 2.16" style="fill:none;stroke:#f7f7f7;stroke-linecap:square;"/>
     </g>
     <g id="line2d_18">
      <g>
       <use style="fill:#111111;stroke:#111111;stroke-width:0.5;" x="550.2" xlink:href="#md11e513213" y="281.16"/>
      </g>
     </g>
     <g id="text_9">
      <!-- 18 -->
      <g transform="translate(544.181796875 297.51828125)scale(0.11 -0.11)">
       <use xlink:href="#BitstreamVeraSans-Roman-31"/>
       <use x="63.623046875" xlink:href="#BitstreamVeraSans-Roman-38"/>
      </g>
     </g>
    </g>
    <g id="xtick_10">
     <g id="line2d_19">
      <path clip-path="url(#p1f17114eb1)" d="
M612.2 281.16
L612.2 2.16" style="fill:none;stroke:#f7f7f7;stroke-linecap:square;"/>
     </g>
     <g id="line2d_20">
      <g>
       <use style="fill:#111111;stroke:#111111;stroke-width:0.5;" x="612.2" xlink:href="#md11e513213" y="281.16"/>
      </g>
     </g>
     <g id="text_10">
      <!-- 20 -->
      <g transform="translate(605.96953125 297.51828125)scale(0.11 -0.11)">
       <use xlink:href="#BitstreamVeraSans-Roman-32"/>
       <use x="63.623046875" xlink:href="#BitstreamVeraSans-Roman-30"/>
      </g>
     </g>
    </g>
    <g id="text_11">
     <!-- Standoff distance (meters) -->
     <defs>
      <path id="BitstreamVeraSans-Roman-20"/>
      <path d="
M54.8906 33.0156
L54.8906 0
L45.9062 0
L45.9062 32.7188
Q45.9062 40.4844 42.875 44.3281
Q39.8438 48.1875 33.7969 48.1875
Q26.5156 48.1875 22.3125 43.5469
Q18.1094 38.9219 18.1094 30.9062
L18.1094 0
L9.07812 0
L9.07812 54.6875
L18.1094 54.6875
L18.1094 46.1875
Q21.3438 51.125 25.7031 53.5625
Q30.0781 56 35.7969 56
Q45.2188 56 50.0469 50.1719
Q54.8906 44.3438 54.8906 33.0156" id="BitstreamVeraSans-Roman-6e"/>
      <path d="
M31 75.875
Q24.4688 64.6562 21.2812 53.6562
Q18.1094 42.6719 18.1094 31.3906
Q18.1094 20.125 21.3125 9.0625
Q24.5156 -2 31 -13.1875
L23.1875 -13.1875
Q15.875 -1.70312 12.2344 9.375
Q8.59375 20.4531 8.59375 31.3906
Q8.59375 42.2812 12.2031 53.3125
Q15.8281 64.3594 23.1875 75.875
z
" id="BitstreamVeraSans-Roman-28"/>
      <path d="
M30.6094 48.3906
Q23.3906 48.3906 19.1875 42.75
Q14.9844 37.1094 14.9844 27.2969
Q14.9844 17.4844 19.1562 11.8438
Q23.3438 6.20312 30.6094 6.20312
Q37.7969 6.20312 41.9844 11.8594
Q46.1875 17.5312 46.1875 27.2969
Q46.1875 37.0156 41.9844 42.7031
Q37.7969 48.3906 30.6094 48.3906
M30.6094 56
Q42.3281 56 49.0156 48.375
Q55.7188 40.7656 55.7188 27.2969
Q55.7188 13.875 49.0156 6.21875
Q42.3281 -1.42188 30.6094 -1.42188
Q18.8438 -1.42188 12.1719 6.21875
Q5.51562 13.875 5.51562 27.2969
Q5.51562 40.7656 12.1719 48.375
Q18.8438 56 30.6094 56" id="BitstreamVeraSans-Roman-6f"/>
      <path d="
M8.01562 75.875
L15.8281 75.875
Q23.1406 64.3594 26.7812 53.3125
Q30.4219 42.2812 30.4219 31.3906
Q30.4219 20.4531 26.7812 9.375
Q23.1406 -1.70312 15.8281 -13.1875
L8.01562 -13.1875
Q14.5 -2 17.7031 9.0625
Q20.9062 20.125 20.9062 31.3906
Q20.9062 42.6719 17.7031 53.6562
Q14.5 64.6562 8.01562 75.875" id="BitstreamVeraSans-Roman-29"/>
      <path d="
M53.5156 70.5156
L53.5156 60.8906
Q47.9062 63.5781 42.9219 64.8906
Q37.9375 66.2188 33.2969 66.2188
Q25.25 66.2188 20.875 63.0938
Q16.5 59.9688 16.5 54.2031
Q16.5 49.3594 19.4062 46.8906
Q22.3125 44.4375 30.4219 42.9219
L36.375 41.7031
Q47.4062 39.5938 52.6562 34.2969
Q57.9062 29 57.9062 20.125
Q57.9062 9.51562 50.7969 4.04688
Q43.7031 -1.42188 29.9844 -1.42188
Q24.8125 -1.42188 18.9688 -0.25
Q13.1406 0.921875 6.89062 3.21875
L6.89062 13.375
Q12.8906 10.0156 18.6562 8.29688
Q24.4219 6.59375 29.9844 6.59375
Q38.4219 6.59375 43.0156 9.90625
Q47.6094 13.2344 47.6094 19.3906
Q47.6094 24.75 44.3125 27.7812
Q41.0156 30.8125 33.5 32.3281
L27.4844 33.5
Q16.4531 35.6875 11.5156 40.375
Q6.59375 45.0625 6.59375 53.4219
Q6.59375 63.0938 13.4062 68.6562
Q20.2188 74.2188 32.1719 74.2188
Q37.3125 74.2188 42.625 73.2812
Q47.9531 72.3594 53.5156 70.5156" id="BitstreamVeraSans-Roman-53"/>
      <path d="
M9.42188 54.6875
L18.4062 54.6875
L18.4062 0
L9.42188 0
z

M9.42188 75.9844
L18.4062 75.9844
L18.4062 64.5938
L9.42188 64.5938
z
" id="BitstreamVeraSans-Roman-69"/>
      <path d="
M41.1094 46.2969
Q39.5938 47.1719 37.8125 47.5781
Q36.0312 48 33.8906 48
Q26.2656 48 22.1875 43.0469
Q18.1094 38.0938 18.1094 28.8125
L18.1094 0
L9.07812 0
L9.07812 54.6875
L18.1094 54.6875
L18.1094 46.1875
Q20.9531 51.1719 25.4844 53.5781
Q30.0312 56 36.5312 56
Q37.4531 56 38.5781 55.875
Q39.7031 55.7656 41.0625 55.5156
z
" id="BitstreamVeraSans-Roman-72"/>
      <path d="
M52 44.1875
Q55.375 50.25 60.0625 53.125
Q64.75 56 71.0938 56
Q79.6406 56 84.2812 50.0156
Q88.9219 44.0469 88.9219 33.0156
L88.9219 0
L79.8906 0
L79.8906 32.7188
Q79.8906 40.5781 77.0938 44.375
Q74.3125 48.1875 68.6094 48.1875
Q61.625 48.1875 57.5625 43.5469
Q53.5156 38.9219 53.5156 30.9062
L53.5156 0
L44.4844 0
L44.4844 32.7188
Q44.4844 40.625 41.7031 44.4062
Q38.9219 48.1875 33.1094 48.1875
Q26.2188 48.1875 22.1562 43.5312
Q18.1094 38.875 18.1094 30.9062
L18.1094 0
L9.07812 0
L9.07812 54.6875
L18.1094 54.6875
L18.1094 46.1875
Q21.1875 51.2188 25.4844 53.6094
Q29.7812 56 35.6875 56
Q41.6562 56 45.8281 52.9688
Q50 49.9531 52 44.1875" id="BitstreamVeraSans-Roman-6d"/>
      <path d="
M56.2031 29.5938
L56.2031 25.2031
L14.8906 25.2031
Q15.4844 15.9219 20.4844 11.0625
Q25.4844 6.20312 34.4219 6.20312
Q39.5938 6.20312 44.4531 7.46875
Q49.3125 8.73438 54.1094 11.2812
L54.1094 2.78125
Q49.2656 0.734375 44.1875 -0.34375
Q39.1094 -1.42188 33.8906 -1.42188
Q20.7969 -1.42188 13.1562 6.1875
Q5.51562 13.8125 5.51562 26.8125
Q5.51562 40.2344 12.7656 48.1094
Q20.0156 56 32.3281 56
Q43.3594 56 49.7812 48.8906
Q56.2031 41.7969 56.2031 29.5938
M47.2188 32.2344
Q47.125 39.5938 43.0938 43.9844
Q39.0625 48.3906 32.4219 48.3906
Q24.9062 48.3906 20.3906 44.1406
Q15.875 39.8906 15.1875 32.1719
z
" id="BitstreamVeraSans-Roman-65"/>
      <path d="
M45.4062 46.3906
L45.4062 75.9844
L54.3906 75.9844
L54.3906 0
L45.4062 0
L45.4062 8.20312
Q42.5781 3.32812 38.25 0.953125
Q33.9375 -1.42188 27.875 -1.42188
Q17.9688 -1.42188 11.7344 6.48438
Q5.51562 14.4062 5.51562 27.2969
Q5.51562 40.1875 11.7344 48.0938
Q17.9688 56 27.875 56
Q33.9375 56 38.25 53.625
Q42.5781 51.2656 45.4062 46.3906
M14.7969 27.2969
Q14.7969 17.3906 18.875 11.75
Q22.9531 6.10938 30.0781 6.10938
Q37.2031 6.10938 41.2969 11.75
Q45.4062 17.3906 45.4062 27.2969
Q45.4062 37.2031 41.2969 42.8438
Q37.2031 48.4844 30.0781 48.4844
Q22.9531 48.4844 18.875 42.8438
Q14.7969 37.2031 14.7969 27.2969" id="BitstreamVeraSans-Roman-64"/>
      <path d="
M18.3125 70.2188
L18.3125 54.6875
L36.8125 54.6875
L36.8125 47.7031
L18.3125 47.7031
L18.3125 18.0156
Q18.3125 11.3281 20.1406 9.42188
Q21.9688 7.51562 27.5938 7.51562
L36.8125 7.51562
L36.8125 0
L27.5938 0
Q17.1875 0 13.2344 3.875
Q9.28125 7.76562 9.28125 18.0156
L9.28125 47.7031
L2.6875 47.7031
L2.6875 54.6875
L9.28125 54.6875
L9.28125 70.2188
z
" id="BitstreamVeraSans-Roman-74"/>
      <path d="
M37.1094 75.9844
L37.1094 68.5
L28.5156 68.5
Q23.6875 68.5 21.7969 66.5469
Q19.9219 64.5938 19.9219 59.5156
L19.9219 54.6875
L34.7188 54.6875
L34.7188 47.7031
L19.9219 47.7031
L19.9219 0
L10.8906 0
L10.8906 47.7031
L2.29688 47.7031
L2.29688 54.6875
L10.8906 54.6875
L10.8906 58.5
Q10.8906 67.625 15.1406 71.7969
Q19.3906 75.9844 28.6094 75.9844
z
" id="BitstreamVeraSans-Roman-66"/>
      <path d="
M34.2812 27.4844
Q23.3906 27.4844 19.1875 25
Q14.9844 22.5156 14.9844 16.5
Q14.9844 11.7188 18.1406 8.90625
Q21.2969 6.10938 26.7031 6.10938
Q34.1875 6.10938 38.7031 11.4062
Q43.2188 16.7031 43.2188 25.4844
L43.2188 27.4844
z

M52.2031 31.2031
L52.2031 0
L43.2188 0
L43.2188 8.29688
Q40.1406 3.32812 35.5469 0.953125
Q30.9531 -1.42188 24.3125 -1.42188
Q15.9219 -1.42188 10.9531 3.29688
Q6 8.01562 6 15.9219
Q6 25.1406 12.1719 29.8281
Q18.3594 34.5156 30.6094 34.5156
L43.2188 34.5156
L43.2188 35.4062
Q43.2188 41.6094 39.1406 45
Q35.0625 48.3906 27.6875 48.3906
Q23 48.3906 18.5469 47.2656
Q14.1094 46.1406 10.0156 43.8906
L10.0156 52.2031
Q14.9375 54.1094 19.5781 55.0469
Q24.2188 56 28.6094 56
Q40.4844 56 46.3438 49.8438
Q52.2031 43.7031 52.2031 31.2031" id="BitstreamVeraSans-Roman-61"/>
      <path d="
M44.2812 53.0781
L44.2812 44.5781
Q40.4844 46.5312 36.375 47.5
Q32.2812 48.4844 27.875 48.4844
Q21.1875 48.4844 17.8438 46.4375
Q14.5 44.3906 14.5 40.2812
Q14.5 37.1562 16.8906 35.375
Q19.2812 33.5938 26.5156 31.9844
L29.5938 31.2969
Q39.1562 29.25 43.1875 25.5156
Q47.2188 21.7812 47.2188 15.0938
Q47.2188 7.46875 41.1875 3.01562
Q35.1562 -1.42188 24.6094 -1.42188
Q20.2188 -1.42188 15.4531 -0.5625
Q10.6875 0.296875 5.42188 2
L5.42188 11.2812
Q10.4062 8.6875 15.2344 7.39062
Q20.0625 6.10938 24.8125 6.10938
Q31.1562 6.10938 34.5625 8.28125
Q37.9844 10.4531 37.9844 14.4062
Q37.9844 18.0625 35.5156 20.0156
Q33.0625 21.9688 24.7031 23.7812
L21.5781 24.5156
Q13.2344 26.2656 9.51562 29.9062
Q5.8125 33.5469 5.8125 39.8906
Q5.8125 47.6094 11.2812 51.7969
Q16.75 56 26.8125 56
Q31.7812 56 36.1719 55.2656
Q40.5781 54.5469 44.2812 53.0781" id="BitstreamVeraSans-Roman-73"/>
      <path d="
M48.7812 52.5938
L48.7812 44.1875
Q44.9688 46.2969 41.1406 47.3438
Q37.3125 48.3906 33.4062 48.3906
Q24.6562 48.3906 19.8125 42.8438
Q14.9844 37.3125 14.9844 27.2969
Q14.9844 17.2812 19.8125 11.7344
Q24.6562 6.20312 33.4062 6.20312
Q37.3125 6.20312 41.1406 7.25
Q44.9688 8.29688 48.7812 10.4062
L48.7812 2.09375
Q45.0156 0.34375 40.9844 -0.53125
Q36.9688 -1.42188 32.4219 -1.42188
Q20.0625 -1.42188 12.7812 6.34375
Q5.51562 14.1094 5.51562 27.2969
Q5.51562 40.6719 12.8594 48.3281
Q20.2188 56 33.0156 56
Q37.1562 56 41.1094 55.1406
Q45.0625 54.2969 48.7812 52.5938" id="BitstreamVeraSans-Roman-63"/>
     </defs>
     <g style="fill:#1a1a1a;" transform="translate(246.61796875 314.68390625)scale(0.13 -0.13)">
      <use xlink:href="#BitstreamVeraSans-Roman-53"/>
      <use x="63.4765625" xlink:href="#BitstreamVeraSans-Roman-74"/>
      <use x="102.685546875" xlink:href="#BitstreamVeraSans-Roman-61"/>
      <use x="163.96484375" xlink:href="#BitstreamVeraSans-Roman-6e"/>
      <use x="227.34375" xlink:href="#BitstreamVeraSans-Roman-64"/>
      <use x="290.8203125" xlink:href="#BitstreamVeraSans-Roman-6f"/>
      <use x="352.001953125" xlink:href="#BitstreamVeraSans-Roman-66"/>
      <use x="387.20703125" xlink:href="#BitstreamVeraSans-Roman-66"/>
      <use x="422.412109375" xlink:href="#BitstreamVeraSans-Roman-20"/>
      <use x="454.19921875" xlink:href="#BitstreamVeraSans-Roman-64"/>
      <use x="517.67578125" xlink:href="#BitstreamVeraSans-Roman-69"/>
      <use x="545.458984375" xlink:href="#BitstreamVeraSans-Roman-73"/>
      <use x="597.55859375" xlink:href="#BitstreamVeraSans-Roman-74"/>
      <use x="636.767578125" xlink:href="#BitstreamVeraSans-Roman-61"/>
      <use x="698.046875" xlink:href="#BitstreamVeraSans-Roman-6e"/>
      <use x="761.42578125" xlink:href="#BitstreamVeraSans-Roman-63"/>
      <use x="816.40625" xlink:href="#BitstreamVeraSans-Roman-65"/>
      <use x="877.9296875" xlink:href="#BitstreamVeraSans-Roman-20"/>
      <use x="909.716796875" xlink:href="#BitstreamVeraSans-Roman-28"/>
      <use x="948.73046875" xlink:href="#BitstreamVeraSans-Roman-6d"/>
      <use x="1046.14257812" xlink:href="#BitstreamVeraSans-Roman-65"/>
      <use x="1107.66601562" xlink:href="#BitstreamVeraSans-Roman-74"/>
      <use x="1146.875" xlink:href="#BitstreamVeraSans-Roman-65"/>
      <use x="1208.3984375" xlink:href="#BitstreamVeraSans-Roman-72"/>
      <use x="1249.51171875" xlink:href="#BitstreamVeraSans-Roman-73"/>
      <use x="1301.61132812" xlink:href="#BitstreamVeraSans-Roman-29"/>
     </g>
    </g>
   </g>
   <g id="matplotlib.axis_2">
    <g id="ytick_1">
     <g id="line2d_21">
      <path clip-path="url(#p1f17114eb1)" d="
M54.2 281.16
L612.2 281.16" style="fill:none;stroke:#f7f7f7;stroke-linecap:square;"/>
     </g>
     <g id="line2d_22">
      <defs>
       <path d="
M0 0
L-4 0" id="m3cf9b8fc09" style="stroke:#111111;stroke-width:0.5;"/>
      </defs>
      <g>
       <use style="fill:#111111;stroke:#111111;stroke-width:0.5;" x="54.2" xlink:href="#m3cf9b8fc09" y="281.16"/>
      </g>
     </g>
     <g id="text_12">
      <!-- 0 -->
      <g transform="translate(40.65703125 284.1953125)scale(0.11 -0.11)">
       <use xlink:href="#BitstreamVeraSans-Roman-30"/>
      </g>
     </g>
    </g>
    <g id="ytick_2">
     <g id="line2d_23">
      <path clip-path="url(#p1f17114eb1)" d="
M54.2 245.741
L612.2 245.741" style="fill:none;stroke:#f7f7f7;stroke-linecap:square;"/>
     </g>
     <g id="line2d_24">
      <g>
       <use style="fill:#111111;stroke:#111111;stroke-width:0.5;" x="54.2" xlink:href="#m3cf9b8fc09" y="245.740957504"/>
      </g>
     </g>
     <g id="text_13">
      <!-- 400 -->
      <g transform="translate(26.4721875 248.776270004)scale(0.11 -0.11)">
       <use xlink:href="#BitstreamVeraSans-Roman-34"/>
       <use x="63.623046875" xlink:href="#BitstreamVeraSans-Roman-30"/>
       <use x="127.24609375" xlink:href="#BitstreamVeraSans-Roman-30"/>
      </g>
     </g>
    </g>
    <g id="ytick_3">
     <g id="line2d_25">
      <path clip-path="url(#p1f17114eb1)" d="
M54.2 210.322
L612.2 210.322" style="fill:none;stroke:#f7f7f7;stroke-linecap:square;"/>
     </g>
     <g id="line2d_26">
      <g>
       <use style="fill:#111111;stroke:#111111;stroke-width:0.5;" x="54.2" xlink:href="#m3cf9b8fc09" y="210.321915008"/>
      </g>
     </g>
     <g id="text_14">
      <!-- 800 -->
      <g transform="translate(26.68015625 213.357227508)scale(0.11 -0.11)">
       <use xlink:href="#BitstreamVeraSans-Roman-38"/>
       <use x="63.623046875" xlink:href="#BitstreamVeraSans-Roman-30"/>
       <use x="127.24609375" xlink:href="#BitstreamVeraSans-Roman-30"/>
      </g>
     </g>
    </g>
    <g id="ytick_4">
     <g id="line2d_27">
      <path clip-path="url(#p1f17114eb1)" d="
M54.2 174.903
L612.2 174.903" style="fill:none;stroke:#f7f7f7;stroke-linecap:square;"/>
     </g>
     <g id="line2d_28">
      <g>
       <use style="fill:#111111;stroke:#111111;stroke-width:0.5;" x="54.2" xlink:href="#m3cf9b8fc09" y="174.902872512"/>
      </g>
     </g>
     <g id="text_15">
      <!-- 1200 -->
      <g transform="translate(20.14375 177.938185012)scale(0.11 -0.11)">
       <use xlink:href="#BitstreamVeraSans-Roman-31"/>
       <use x="63.623046875" xlink:href="#BitstreamVeraSans-Roman-32"/>
       <use x="127.24609375" xlink:href="#BitstreamVeraSans-Roman-30"/>
       <use x="190.869140625" xlink:href="#BitstreamVeraSans-Roman-30"/>
      </g>
     </g>
    </g>
    <g id="ytick_5">
     <g id="line2d_29">
      <path clip-path="url(#p1f17114eb1)" d="
M54.2 139.484
L612.2 139.484" style="fill:none;stroke:#f7f7f7;stroke-linecap:square;"/>
     </g>
     <g id="line2d_30">
      <g>
       <use style="fill:#111111;stroke:#111111;stroke-width:0.5;" x="54.2" xlink:href="#m3cf9b8fc09" y="139.483830016"/>
      </g>
     </g>
     <g id="text_16">
      <!-- 1600 -->
      <g transform="translate(20.14375 142.519142516)scale(0.11 -0.11)">
       <use xlink:href="#BitstreamVeraSans-Roman-31"/>
       <use x="63.623046875" xlink:href="#BitstreamVeraSans-Roman-36"/>
       <use x="127.24609375" xlink:href="#BitstreamVeraSans-Roman-30"/>
       <use x="190.869140625" xlink:href="#BitstreamVeraSans-Roman-30"/>
      </g>
     </g>
    </g>
    <g id="ytick_6">
     <g id="line2d_31">
      <path clip-path="url(#p1f17114eb1)" d="
M54.2 104.065
L612.2 104.065" style="fill:none;stroke:#f7f7f7;stroke-linecap:square;"/>
     </g>
     <g id="line2d_32">
      <g>
       <use style="fill:#111111;stroke:#111111;stroke-width:0.5;" x="54.2" xlink:href="#m3cf9b8fc09" y="104.06478752"/>
      </g>
     </g>
     <g id="text_17">
      <!-- 2000 -->
      <g transform="translate(19.7415625 107.10010002)scale(0.11 -0.11)">
       <use xlink:href="#BitstreamVeraSans-Roman-32"/>
       <use x="63.623046875" xlink:href="#BitstreamVeraSans-Roman-30"/>
       <use x="127.24609375" xlink:href="#BitstreamVeraSans-Roman-30"/>
       <use x="190.869140625" xlink:href="#BitstreamVeraSans-Roman-30"/>
      </g>
     </g>
    </g>
    <g id="ytick_7">
     <g id="line2d_33">
      <path clip-path="url(#p1f17114eb1)" d="
M54.2 68.6457
L612.2 68.6457" style="fill:none;stroke:#f7f7f7;stroke-linecap:square;"/>
     </g>
     <g id="line2d_34">
      <g>
       <use style="fill:#111111;stroke:#111111;stroke-width:0.5;" x="54.2" xlink:href="#m3cf9b8fc09" y="68.6457450242"/>
      </g>
     </g>
     <g id="text_18">
      <!-- 2400 -->
      <g transform="translate(19.7415625 71.6810575242)scale(0.11 -0.11)">
       <use xlink:href="#BitstreamVeraSans-Roman-32"/>
       <use x="63.623046875" xlink:href="#BitstreamVeraSans-Roman-34"/>
       <use x="127.24609375" xlink:href="#BitstreamVeraSans-Roman-30"/>
       <use x="190.869140625" xlink:href="#BitstreamVeraSans-Roman-30"/>
      </g>
     </g>
    </g>
    <g id="ytick_8">
     <g id="line2d_35">
      <path clip-path="url(#p1f17114eb1)" d="
M54.2 33.2267
L612.2 33.2267" style="fill:none;stroke:#f7f7f7;stroke-linecap:square;"/>
     </g>
     <g id="line2d_36">
      <g>
       <use style="fill:#111111;stroke:#111111;stroke-width:0.5;" x="54.2" xlink:href="#m3cf9b8fc09" y="33.2267025282"/>
      </g>
     </g>
     <g id="text_19">
      <!-- 2800 -->
      <g transform="translate(19.7415625 36.2620150282)scale(0.11 -0.11)">
       <use xlink:href="#BitstreamVeraSans-Roman-32"/>
       <use x="63.623046875" xlink:href="#BitstreamVeraSans-Roman-38"/>
       <use x="127.24609375" xlink:href="#BitstreamVeraSans-Roman-30"/>
       <use x="190.869140625" xlink:href="#BitstreamVeraSans-Roman-30"/>
      </g>
     </g>
    </g>
    <g id="text_20">
     <!-- Focal length (mm) -->
     <defs>
      <path d="
M9.8125 72.9062
L51.7031 72.9062
L51.7031 64.5938
L19.6719 64.5938
L19.6719 43.1094
L48.5781 43.1094
L48.5781 34.8125
L19.6719 34.8125
L19.6719 0
L9.8125 0
z
" id="BitstreamVeraSans-Roman-46"/>
      <path d="
M45.4062 27.9844
Q45.4062 37.75 41.375 43.1094
Q37.3594 48.4844 30.0781 48.4844
Q22.8594 48.4844 18.8281 43.1094
Q14.7969 37.75 14.7969 27.9844
Q14.7969 18.2656 18.8281 12.8906
Q22.8594 7.51562 30.0781 7.51562
Q37.3594 7.51562 41.375 12.8906
Q45.4062 18.2656 45.4062 27.9844
M54.3906 6.78125
Q54.3906 -7.17188 48.1875 -13.9844
Q42 -20.7969 29.2031 -20.7969
Q24.4688 -20.7969 20.2656 -20.0938
Q16.0625 -19.3906 12.1094 -17.9219
L12.1094 -9.1875
Q16.0625 -11.3281 19.9219 -12.3438
Q23.7812 -13.375 27.7812 -13.375
Q36.625 -13.375 41.0156 -8.76562
Q45.4062 -4.15625 45.4062 5.17188
L45.4062 9.625
Q42.625 4.78125 38.2812 2.39062
Q33.9375 0 27.875 0
Q17.8281 0 11.6719 7.65625
Q5.51562 15.3281 5.51562 27.9844
Q5.51562 40.6719 11.6719 48.3281
Q17.8281 56 27.875 56
Q33.9375 56 38.2812 53.6094
Q42.625 51.2188 45.4062 46.3906
L45.4062 54.6875
L54.3906 54.6875
z
" id="BitstreamVeraSans-Roman-67"/>
      <path d="
M54.8906 33.0156
L54.8906 0
L45.9062 0
L45.9062 32.7188
Q45.9062 40.4844 42.875 44.3281
Q39.8438 48.1875 33.7969 48.1875
Q26.5156 48.1875 22.3125 43.5469
Q18.1094 38.9219 18.1094 30.9062
L18.1094 0
L9.07812 0
L9.07812 75.9844
L18.1094 75.9844
L18.1094 46.1875
Q21.3438 51.125 25.7031 53.5625
Q30.0781 56 35.7969 56
Q45.2188 56 50.0469 50.1719
Q54.8906 44.3438 54.8906 33.0156" id="BitstreamVeraSans-Roman-68"/>
      <path d="
M9.42188 75.9844
L18.4062 75.9844
L18.4062 0
L9.42188 0
z
" id="BitstreamVeraSans-Roman-6c"/>
     </defs>
     <g style="fill:#1a1a1a;" transform="translate(12.03796875 200.5296875)rotate(-90.0)scale(0.13 -0.13)">
      <use xlink:href="#BitstreamVeraSans-Roman-46"/>
      <use x="53.89453125" xlink:href="#BitstreamVeraSans-Roman-6f"/>
      <use x="115.076171875" xlink:href="#BitstreamVeraSans-Roman-63"/>
      <use x="170.056640625" xlink:href="#BitstreamVeraSans-Roman-61"/>
      <use x="231.3359375" xlink:href="#BitstreamVeraSans-Roman-6c"/>
      <use x="259.119140625" xlink:href="#BitstreamVeraSans-Roman-20"/>
      <use x="290.90625" xlink:href="#BitstreamVeraSans-Roman-6c"/>
      <use x="318.689453125" xlink:href="#BitstreamVeraSans-Roman-65"/>
      <use x="380.212890625" xlink:href="#BitstreamVeraSans-Roman-6e"/>
      <use x="443.591796875" xlink:href="#BitstreamVeraSans-Roman-67"/>
      <use x="507.068359375" xlink:href="#BitstreamVeraSans-Roman-74"/>
      <use x="546.27734375" xlink:href="#BitstreamVeraSans-Roman-68"/>
      <use x="609.65625" xlink:href="#BitstreamVeraSans-Roman-20"/>
      <use x="641.443359375" xlink:href="#BitstreamVeraSans-Roman-28"/>
      <use x="680.45703125" xlink:href="#BitstreamVeraSans-Roman-6d"/>
      <use x="777.869140625" xlink:href="#BitstreamVeraSans-Roman-6d"/>
      <use x="875.28125" xlink:href="#BitstreamVeraSans-Roman-29"/>
     </g>
    </g>
   </g>
   <g id="line2d_37">
    <path clip-path="url(#p1f17114eb1)" d="
M54.2 254.145
L85.2 240.638
L116.2 227.131
L147.2 213.624
L178.2 200.116
L209.2 186.609
L240.2 173.102
L271.2 159.595
L302.2 146.087
L333.2 132.58
L364.2 119.073
L395.2 105.566
L426.2 92.0583
L457.2 78.5511
L488.2 65.0438
L519.2 51.5365
L550.2 38.0293
L581.2 24.522
L612.2 11.0148" style="fill:none;stroke:#66c2a5;stroke-linecap:square;stroke-width:2;"/>
   </g>
   <g id="line2d_38">
    <path clip-path="url(#p1f17114eb1)" d="
M54.2 259.411
L85.2 248.537
L116.2 237.663
L147.2 226.789
L178.2 215.914
L209.2 205.04
L240.2 194.166
L271.2 183.292
L302.2 172.417
L333.2 161.543
L364.2 150.669
L395.2 139.795
L426.2 128.92
L457.2 118.046
L488.2 107.172
L519.2 96.2975
L550.2 85.4232
L581.2 74.5489
L612.2 63.6747" style="fill:none;stroke:#fc8d62;stroke-linecap:square;stroke-width:2;"/>
   </g>
   <g id="line2d_39">
    <path clip-path="url(#p1f17114eb1)" d="
M54.2 265.06
L85.2 257.011
L116.2 248.961
L147.2 240.911
L178.2 232.861
L209.2 224.812
L240.2 216.762
L271.2 208.712
L302.2 200.662
L333.2 192.612
L364.2 184.563
L395.2 176.513
L426.2 168.463
L457.2 160.413
L488.2 152.363
L519.2 144.314
L550.2 136.264
L581.2 128.214
L612.2 120.164" style="fill:none;stroke:#8da0cb;stroke-linecap:square;stroke-width:2;"/>
   </g>
   <g id="line2d_40">
    <path clip-path="url(#p1f17114eb1)" d="
M54.2 266.537
L85.2 259.226
L116.2 251.915
L147.2 244.604
L178.2 237.292
L209.2 229.981
L240.2 222.67
L271.2 215.359
L302.2 208.047
L333.2 200.736
L364.2 193.425
L395.2 186.113
L426.2 178.802
L457.2 171.491
L488.2 164.18
L519.2 156.868
L550.2 149.557
L581.2 142.246
L612.2 134.935" style="fill:none;stroke:#66c2a5;stroke-dasharray:6.000000,6.000000;stroke-dashoffset:0.0;stroke-width:2;"/>
   </g>
   <g id="line2d_41">
    <path clip-path="url(#p1f17114eb1)" d="
M54.2 269.574
L85.2 263.781
L116.2 257.989
L147.2 252.196
L178.2 246.403
L209.2 240.61
L240.2 234.817
L271.2 229.024
L302.2 223.232
L333.2 217.439
L364.2 211.646
L395.2 205.853
L426.2 200.06
L457.2 194.267
L488.2 188.475
L519.2 182.682
L550.2 176.889
L581.2 171.096
L612.2 165.303" style="fill:none;stroke:#fc8d62;stroke-dasharray:6.000000,6.000000;stroke-dashoffset:0.0;stroke-width:2;"/>
   </g>
   <g id="line2d_42">
    <path clip-path="url(#p1f17114eb1)" d="
M54.2 272.727
L85.2 268.51
L116.2 264.294
L147.2 260.077
L178.2 255.861
L209.2 251.644
L240.2 247.428
L271.2 243.211
L302.2 238.994
L333.2 234.778
L364.2 230.561
L395.2 226.345
L426.2 222.128
L457.2 217.912
L488.2 213.695
L519.2 209.479
L550.2 205.262
L581.2 201.045
L612.2 196.829" style="fill:none;stroke:#8da0cb;stroke-dasharray:6.000000,6.000000;stroke-dashoffset:0.0;stroke-width:2;"/>
   </g>
   <g id="text_21">
    <!-- 200 pixels across iris -->
    <defs>
     <path d="
M54.8906 54.6875
L35.1094 28.0781
L55.9062 0
L45.3125 0
L29.3906 21.4844
L13.4844 0
L2.875 0
L24.125 28.6094
L4.6875 54.6875
L15.2812 54.6875
L29.7812 35.2031
L44.2812 54.6875
z
" id="BitstreamVeraSans-Roman-78"/>
     <path d="
M18.1094 8.20312
L18.1094 -20.7969
L9.07812 -20.7969
L9.07812 54.6875
L18.1094 54.6875
L18.1094 46.3906
Q20.9531 51.2656 25.2656 53.625
Q29.5938 56 35.5938 56
Q45.5625 56 51.7812 48.0938
Q58.0156 40.1875 58.0156 27.2969
Q58.0156 14.4062 51.7812 6.48438
Q45.5625 -1.42188 35.5938 -1.42188
Q29.5938 -1.42188 25.2656 0.953125
Q20.9531 3.32812 18.1094 8.20312
M48.6875 27.2969
Q48.6875 37.2031 44.6094 42.8438
Q40.5312 48.4844 33.4062 48.4844
Q26.2656 48.4844 22.1875 42.8438
Q18.1094 37.2031 18.1094 27.2969
Q18.1094 17.3906 22.1875 11.75
Q26.2656 6.10938 33.4062 6.10938
Q40.5312 6.10938 44.6094 11.75
Q48.6875 17.3906 48.6875 27.2969" id="BitstreamVeraSans-Roman-70"/>
    </defs>
    <g transform="translate(379.7 46.5088434642)scale(0.11 -0.11)">
     <use xlink:href="#BitstreamVeraSans-Roman-32"/>
     <use x="63.623046875" xlink:href="#BitstreamVeraSans-Roman-30"/>
     <use x="127.24609375" xlink:href="#BitstreamVeraSans-Roman-30"/>
     <use x="190.869140625" xlink:href="#BitstreamVeraSans-Roman-20"/>
     <use x="222.65625" xlink:href="#BitstreamVeraSans-Roman-70"/>
     <use x="286.1328125" xlink:href="#BitstreamVeraSans-Roman-69"/>
     <use x="313.916015625" xlink:href="#BitstreamVeraSans-Roman-78"/>
     <use x="369.970703125" xlink:href="#BitstreamVeraSans-Roman-65"/>
     <use x="431.494140625" xlink:href="#BitstreamVeraSans-Roman-6c"/>
     <use x="459.27734375" xlink:href="#BitstreamVeraSans-Roman-73"/>
     <use x="511.376953125" xlink:href="#BitstreamVeraSans-Roman-20"/>
     <use x="543.1640625" xlink:href="#BitstreamVeraSans-Roman-61"/>
     <use x="604.443359375" xlink:href="#BitstreamVeraSans-Roman-63"/>
     <use x="659.423828125" xlink:href="#BitstreamVeraSans-Roman-72"/>
     <use x="698.287109375" xlink:href="#BitstreamVeraSans-Roman-6f"/>
     <use x="759.46875" xlink:href="#BitstreamVeraSans-Roman-73"/>
     <use x="811.568359375" xlink:href="#BitstreamVeraSans-Roman-73"/>
     <use x="863.66796875" xlink:href="#BitstreamVeraSans-Roman-20"/>
     <use x="895.455078125" xlink:href="#BitstreamVeraSans-Roman-69"/>
     <use x="923.23828125" xlink:href="#BitstreamVeraSans-Roman-72"/>
     <use x="964.3515625" xlink:href="#BitstreamVeraSans-Roman-69"/>
     <use x="992.134765625" xlink:href="#BitstreamVeraSans-Roman-73"/>
    </g>
   </g>
   <g id="text_22">
    <!-- 100 pixels across iris -->
    <g transform="translate(441.7 263.450478752)scale(0.11 -0.11)">
     <use xlink:href="#BitstreamVeraSans-Roman-31"/>
     <use x="63.623046875" xlink:href="#BitstreamVeraSans-Roman-30"/>
     <use x="127.24609375" xlink:href="#BitstreamVeraSans-Roman-30"/>
     <use x="190.869140625" xlink:href="#BitstreamVeraSans-Roman-20"/>
     <use x="222.65625" xlink:href="#BitstreamVeraSans-Roman-70"/>
     <use x="286.1328125" xlink:href="#BitstreamVeraSans-Roman-69"/>
     <use x="313.916015625" xlink:href="#BitstreamVeraSans-Roman-78"/>
     <use x="369.970703125" xlink:href="#BitstreamVeraSans-Roman-65"/>
     <use x="431.494140625" xlink:href="#BitstreamVeraSans-Roman-6c"/>
     <use x="459.27734375" xlink:href="#BitstreamVeraSans-Roman-73"/>
     <use x="511.376953125" xlink:href="#BitstreamVeraSans-Roman-20"/>
     <use x="543.1640625" xlink:href="#BitstreamVeraSans-Roman-61"/>
     <use x="604.443359375" xlink:href="#BitstreamVeraSans-Roman-63"/>
     <use x="659.423828125" xlink:href="#BitstreamVeraSans-Roman-72"/>
     <use x="698.287109375" xlink:href="#BitstreamVeraSans-Roman-6f"/>
     <use x="759.46875" xlink:href="#BitstreamVeraSans-Roman-73"/>
     <use x="811.568359375" xlink:href="#BitstreamVeraSans-Roman-73"/>
     <use x="863.66796875" xlink:href="#BitstreamVeraSans-Roman-20"/>
     <use x="895.455078125" xlink:href="#BitstreamVeraSans-Roman-69"/>
     <use x="923.23828125" xlink:href="#BitstreamVeraSans-Roman-72"/>
     <use x="964.3515625" xlink:href="#BitstreamVeraSans-Roman-69"/>
     <use x="992.134765625" xlink:href="#BitstreamVeraSans-Roman-73"/>
    </g>
   </g>
   <g id="patch_3">
    <path d="
M96.6982 18.0082
Q84.1993 17.8798 71.7005 17.7514" style="fill:none;stroke:#66c2a5;stroke-linecap:round;stroke-width:3;"/>
   </g>
   <g id="text_23">
    <!-- $\,p_x = \,9 \, \mu m$ -->
    <defs>
     <path d="
M7.71875 1.70312
Q7.71875 2.29688 7.8125 2.59375
L15.2812 32.4219
Q16.0156 35.2031 16.0156 37.3125
Q16.0156 41.6094 13.0938 41.6094
Q9.96875 41.6094 8.45312 37.8594
Q6.9375 34.125 5.51562 28.4219
Q5.51562 28.125 5.21875 27.9531
Q4.9375 27.7812 4.6875 27.7812
L3.51562 27.7812
Q3.17188 27.7812 2.92188 28.1406
Q2.6875 28.5156 2.6875 28.8125
Q3.76562 33.1562 4.76562 36.1719
Q5.76562 39.2031 7.89062 41.6875
Q10.0156 44.1875 13.1875 44.1875
Q16.9375 44.1875 19.8125 41.8125
Q22.7031 39.4531 22.7031 35.7969
Q25.6875 39.7031 29.6875 41.9375
Q33.6875 44.1875 38.1875 44.1875
Q42.9219 44.1875 46.3594 41.7656
Q49.8125 39.3594 49.8125 34.9062
Q52.875 39.2656 57 41.7188
Q61.1406 44.1875 66.0156 44.1875
Q71.1875 44.1875 74.3281 41.375
Q77.4844 38.5781 77.4844 33.4062
Q77.4844 29.2969 75.6562 23.4844
Q73.8281 17.6719 71.0938 10.5
Q69.6719 7.03125 69.6719 4.5
Q69.6719 1.51562 72.0156 1.51562
Q75.9219 1.51562 78.5156 5.70312
Q81.1094 9.90625 82.1719 14.7031
Q82.4688 15.2812 83.0156 15.2812
L84.1875 15.2812
Q84.5781 15.2812 84.8438 15.0156
Q85.1094 14.75 85.1094 14.4062
Q85.1094 14.3125 85.0156 14.1094
Q83.6406 8.45312 80.25 3.65625
Q76.8594 -1.125 71.7812 -1.125
Q68.2656 -1.125 65.7656 1.29688
Q63.2812 3.71875 63.2812 7.17188
Q63.2812 8.9375 64.1094 11.0781
Q66.9375 18.6094 68.8125 24.5156
Q70.7031 30.4219 70.7031 34.9062
Q70.7031 37.7031 69.5781 39.6562
Q68.4531 41.6094 65.8281 41.6094
Q60.3594 41.6094 56.3438 38.25
Q52.3438 34.9062 49.4219 29.3906
Q49.2188 28.4219 49.125 27.875
L42.6719 2.20312
Q42.3281 0.828125 41.125 -0.140625
Q39.9375 -1.125 38.4844 -1.125
Q37.3125 -1.125 36.4062 -0.34375
Q35.5 0.4375 35.5 1.70312
Q35.5 2.29688 35.5938 2.59375
L42 28.0781
Q43.0156 32.1719 43.0156 34.9062
Q43.0156 37.7031 41.8594 39.6562
Q40.7188 41.6094 37.9844 41.6094
Q34.3281 41.6094 31.25 39.9844
Q28.1719 38.375 25.875 35.7188
Q23.5781 33.0625 21.6875 29.3906
L14.8906 2.20312
Q14.5469 0.828125 13.3438 -0.140625
Q12.1562 -1.125 10.6875 -1.125
Q9.46875 -1.125 8.59375 -0.34375
Q7.71875 0.4375 7.71875 1.70312" id="Cmmi10-6d"/>
     <path d="
M11.2812 4.20312
Q14.0156 0.984375 20.7969 0.984375
Q24.6094 0.984375 27.9062 3.5625
Q31.2031 6.15625 33.0156 9.90625
Q35.1094 14.1562 35.6875 18.9688
Q36.2812 23.7812 36.2812 30.9062
Q34.5781 26.8594 31.375 24.2656
Q28.1719 21.6875 24.0312 21.6875
Q18.2188 21.6875 13.6406 24.8281
Q9.07812 27.9844 6.64062 33.125
Q4.20312 38.2812 4.20312 44.0938
Q4.20312 50.0938 6.9375 55.2969
Q9.67188 60.5 14.5 63.5469
Q19.3438 66.6094 25.4844 66.6094
Q31.5469 66.6094 35.625 63.3125
Q39.7031 60.0156 41.8438 54.8125
Q44 49.6094 44.8438 43.7969
Q45.7031 37.9844 45.7031 32.3281
Q45.7031 24.6094 42.875 16.5781
Q40.0469 8.54688 34.4062 3.17188
Q28.7656 -2.20312 20.7969 -2.20312
Q14.8906 -2.20312 10.7812 0.578125
Q6.6875 3.375 6.6875 8.98438
Q6.6875 11.0312 8.07812 12.4219
Q9.46875 13.8125 11.5312 13.8125
Q13.5312 13.8125 14.9219 12.4219
Q16.3125 11.0312 16.3125 8.98438
Q16.3125 7.03125 14.8906 5.60938
Q13.4844 4.20312 11.5312 4.20312
z

M24.4219 24.3125
Q28.5156 24.3125 31.125 27.0625
Q33.7344 29.8281 34.9062 33.9219
Q36.0781 38.0312 36.0781 42.0938
L36.0781 44
L36.0781 44.3906
Q36.0781 51.9062 33.875 57.8125
Q31.6875 63.7188 25.4844 63.7188
Q21.5312 63.7188 19.0625 61.9844
Q16.6094 60.25 15.4375 57.375
Q14.2656 54.5 13.9375 51.2188
Q13.625 47.9531 13.625 44.0938
Q13.625 38.4219 14.1562 34.4219
Q14.7031 30.4219 17.0938 27.3594
Q19.4844 24.3125 24.4219 24.3125" id="Cmr10-39"/>
     <path d="
M-2.48438 -19.3906
Q-3.42188 -19.3906 -3.42188 -18.1094
Q-3.07812 -15.9219 -2.09375 -15.9219
Q1.03125 -15.9219 2.26562 -15.3594
Q3.51562 -14.7969 4.20312 -12.5
L15.4844 32.5156
Q16.2188 34.375 16.2188 37.3125
Q16.2188 41.6094 13.2812 41.6094
Q10.1562 41.6094 8.64062 37.8594
Q7.125 34.125 5.71875 28.4219
Q5.71875 27.7812 4.89062 27.7812
L3.71875 27.7812
Q3.46875 27.7812 3.17188 28.1406
Q2.875 28.5156 2.875 28.8125
Q3.95312 33.1562 4.95312 36.1719
Q5.95312 39.2031 8.07812 41.6875
Q10.2031 44.1875 13.375 44.1875
Q16.7969 44.1875 19.375 42.25
Q21.9688 40.3281 22.7031 37.0156
Q25.4375 40.1875 28.75 42.1875
Q32.0781 44.1875 35.5938 44.1875
Q39.7969 44.1875 42.8906 41.9375
Q46 39.7031 47.5625 36.0625
Q49.125 32.4219 49.125 28.2188
Q49.125 21.7812 45.8281 14.8906
Q42.5312 8.01562 36.8906 3.4375
Q31.25 -1.125 24.8125 -1.125
Q21.875 -1.125 19.5 0.53125
Q17.1406 2.20312 15.8281 4.89062
L11.2812 -12.8906
Q11.0312 -14.3594 10.9844 -14.5938
Q10.9844 -15.9219 17.5781 -15.9219
Q18.6094 -15.9219 18.6094 -17.1875
Q18.2656 -18.5 18.0469 -18.9375
Q17.8281 -19.3906 16.8906 -19.3906
z

M24.9062 1.51562
Q28.375 1.51562 31.3438 4.375
Q34.3281 7.23438 36.1875 10.7969
Q37.5469 13.4844 38.7344 17.3594
Q39.9375 21.2344 40.8125 25.625
Q41.7031 30.0312 41.7031 32.625
Q41.7031 34.9062 41.0938 36.9062
Q40.4844 38.9219 39.0938 40.2656
Q37.7031 41.6094 35.4062 41.6094
Q31.7344 41.6094 28.4844 38.9844
Q25.25 36.375 22.6094 32.5156
L22.6094 32.1719
L17.0938 10.1094
Q17.7812 6.54688 19.7344 4.03125
Q21.6875 1.51562 24.9062 1.51562" id="Cmmi10-70"/>
     <path d="
M2.78125 -18.7969
Q2.78125 -18.2188 2.875 -18.0156
L17.5781 41.0156
Q18.0156 42.4375 19.1562 43.3125
Q20.3125 44.1875 21.7812 44.1875
Q23.0469 44.1875 23.9219 43.4219
Q24.8125 42.6719 24.8125 41.4062
Q24.8125 41.1094 24.7812 40.9375
Q24.75 40.7656 24.7031 40.5781
L18.7969 17.1875
Q17.8281 13.0312 17.8281 10.0156
Q17.8281 6.29688 19.5781 3.90625
Q21.3438 1.51562 24.9062 1.51562
Q32.1719 1.51562 37.7031 10.5938
Q37.75 10.6875 37.7656 10.7344
Q37.7969 10.7969 37.7969 10.8906
L45.0156 39.8906
Q45.3594 41.2188 46.5781 42.1562
Q47.7969 43.1094 49.2188 43.1094
Q50.3906 43.1094 51.2969 42.3281
Q52.2031 41.5469 52.2031 40.2812
Q52.2031 39.7031 52.0938 39.5
L44.9219 10.6875
Q44.1875 7.85938 44.1875 5.8125
Q44.1875 1.51562 47.125 1.51562
Q50.25 1.51562 51.8281 5.375
Q53.4219 9.23438 54.5938 14.7031
Q54.7812 15.2812 55.4219 15.2812
L56.5938 15.2812
Q56.9844 15.2812 57.25 14.9688
Q57.5156 14.6562 57.5156 14.3125
Q55.7656 7.32812 53.6875 3.09375
Q51.6094 -1.125 46.9219 -1.125
Q43.6094 -1.125 41.0469 0.78125
Q38.4844 2.6875 37.7031 5.90625
Q35.2031 2.78125 31.8594 0.828125
Q28.5156 -1.125 24.8125 -1.125
Q18.5625 -1.125 14.9844 1.8125
L9.90625 -18.4062
Q9.625 -19.8281 8.45312 -20.7031
Q7.28125 -21.5781 5.8125 -21.5781
Q4.59375 -21.5781 3.6875 -20.8125
Q2.78125 -20.0625 2.78125 -18.7969" id="Cmmi10-b9"/>
     <path d="
M7.51562 13.2812
Q6.6875 13.2812 6.14062 13.9062
Q5.60938 14.5469 5.60938 15.2812
Q5.60938 16.1094 6.14062 16.6875
Q6.6875 17.2812 7.51562 17.2812
L70.3125 17.2812
Q71.0469 17.2812 71.5781 16.6875
Q72.125 16.1094 72.125 15.2812
Q72.125 14.5469 71.5781 13.9062
Q71.0469 13.2812 70.3125 13.2812
z

M7.51562 32.7188
Q6.6875 32.7188 6.14062 33.2969
Q5.60938 33.8906 5.60938 34.7188
Q5.60938 35.4531 6.14062 36.0781
Q6.6875 36.7188 7.51562 36.7188
L70.3125 36.7188
Q71.0469 36.7188 71.5781 36.0781
Q72.125 35.4531 72.125 34.7188
Q72.125 33.8906 71.5781 33.2969
Q71.0469 32.7188 70.3125 32.7188
z
" id="Cmr10-3d"/>
     <path d="
M7.8125 2.875
Q9.57812 1.51562 12.7969 1.51562
Q15.9219 1.51562 18.3125 4.51562
Q20.7031 7.51562 21.5781 11.0781
L26.125 28.8125
Q27.2031 33.6406 27.2031 35.4062
Q27.2031 37.8906 25.8125 39.75
Q24.4219 41.6094 21.9219 41.6094
Q18.75 41.6094 15.9688 39.625
Q13.1875 37.6406 11.2812 34.5938
Q9.375 31.5469 8.59375 28.4219
Q8.40625 27.7812 7.8125 27.7812
L6.59375 27.7812
Q5.8125 27.7812 5.8125 28.7188
L5.8125 29
Q6.78125 32.7188 9.125 36.25
Q11.4688 39.7969 14.8594 41.9844
Q18.2656 44.1875 22.125 44.1875
Q25.7812 44.1875 28.7344 42.2344
Q31.6875 40.2812 32.9062 36.9219
Q34.625 39.9844 37.2812 42.0781
Q39.9375 44.1875 43.1094 44.1875
Q45.2656 44.1875 47.5 43.4219
Q49.75 42.6719 51.1719 41.1094
Q52.5938 39.5469 52.5938 37.2031
Q52.5938 34.6719 50.9531 32.8281
Q49.3125 31 46.7812 31
Q45.1719 31 44.0938 32.0312
Q43.0156 33.0625 43.0156 34.625
Q43.0156 36.7188 44.4531 38.2969
Q45.9062 39.8906 47.9062 40.1875
Q46.0938 41.6094 42.9219 41.6094
Q39.7031 41.6094 37.3281 38.625
Q34.9688 35.6406 33.9844 31.9844
L29.5938 14.3125
Q28.5156 10.2969 28.5156 7.71875
Q28.5156 5.17188 29.9531 3.34375
Q31.3906 1.51562 33.7969 1.51562
Q38.4844 1.51562 42.1562 5.64062
Q45.8438 9.76562 47.0156 14.7031
Q47.2188 15.2812 47.7969 15.2812
L49.0312 15.2812
Q49.4219 15.2812 49.6562 15.0156
Q49.9062 14.75 49.9062 14.4062
Q49.9062 14.3125 49.8125 14.1094
Q48.3906 8.15625 43.8438 3.51562
Q39.3125 -1.125 33.5938 -1.125
Q29.9375 -1.125 26.9844 0.84375
Q24.0312 2.82812 22.7969 6.20312
Q21.2344 3.26562 18.4688 1.0625
Q15.7188 -1.125 12.5938 -1.125
Q10.4531 -1.125 8.17188 -0.359375
Q5.90625 0.390625 4.48438 1.95312
Q3.07812 3.51562 3.07812 5.90625
Q3.07812 8.25 4.70312 10.1719
Q6.34375 12.1094 8.79688 12.1094
Q10.4531 12.1094 11.5781 11.1094
Q12.7031 10.1094 12.7031 8.5
Q12.7031 6.39062 11.2969 4.82812
Q9.90625 3.26562 7.8125 2.875" id="Cmmi10-78"/>
    </defs>
    <g transform="translate(100.7 20.8300376547)scale(0.13 -0.13)">
     <use transform="translate(35.1171875 0.390625)" xlink:href="#Cmmi10-70"/>
     <use transform="translate(85.41015625 -25.11875)scale(0.7)" xlink:href="#Cmmi10-78"/>
     <use transform="translate(160.048828125 0.390625)" xlink:href="#Cmr10-3d"/>
     <use transform="translate(279.224609375 0.390625)" xlink:href="#Cmr10-39"/>
     <use transform="translate(364.341796875 0.390625)" xlink:href="#Cmmi10-b9"/>
     <use transform="translate(424.546875 0.390625)" xlink:href="#Cmmi10-6d"/>
    </g>
   </g>
   <g id="patch_4">
    <path d="
M212.948 18.0082
Q200.449 17.8798 187.95 17.7514" style="fill:none;stroke:#fc8d62;stroke-linecap:round;stroke-width:3;"/>
   </g>
   <g id="text_24">
    <!-- $\,p_x = \,7 \, \mu m$ -->
    <defs>
     <path d="
M17.3906 2.59375
Q17.3906 8.15625 18.3594 13.4688
Q19.3438 18.7969 21.2188 24
Q23.0938 29.2031 25.75 34.2031
Q28.4219 39.2031 31.5938 43.6094
L40.7188 56.2969
L29.2969 56.2969
Q11.5312 56.2969 10.9844 55.8125
Q9.67188 54.2031 8.5 46.5781
L5.60938 46.5781
L8.89062 67.5781
L11.8125 67.5781
L11.8125 67.2812
Q11.8125 65.4844 17.9219 64.9375
Q24.0312 64.4062 29.8906 64.4062
L48.4844 64.4062
L48.4844 61.8125
Q48.4844 61.7188 48.4531 61.6719
Q48.4375 61.625 48.3906 61.5312
L34.625 42.1875
Q29.5469 34.6719 28.2656 25.4844
Q27 16.3125 27 2.59375
Q27 0.640625 25.5781 -0.78125
Q24.1719 -2.20312 22.2188 -2.20312
Q20.2188 -2.20312 18.7969 -0.78125
Q17.3906 0.640625 17.3906 2.59375" id="Cmr10-37"/>
    </defs>
    <g transform="translate(216.95 20.8300376547)scale(0.13 -0.13)">
     <use transform="translate(35.1171875 0.421875)" xlink:href="#Cmmi10-70"/>
     <use transform="translate(85.41015625 -25.0875)scale(0.7)" xlink:href="#Cmmi10-78"/>
     <use transform="translate(160.048828125 0.421875)" xlink:href="#Cmr10-3d"/>
     <use transform="translate(279.224609375 0.421875)" xlink:href="#Cmr10-37"/>
     <use transform="translate(364.341796875 0.421875)" xlink:href="#Cmmi10-b9"/>
     <use transform="translate(424.546875 0.421875)" xlink:href="#Cmmi10-6d"/>
    </g>
   </g>
   <g id="patch_5">
    <path d="
M329.198 18.0082
Q316.699 17.8798 304.2 17.7514" style="fill:none;stroke:#8da0cb;stroke-linecap:round;stroke-width:3;"/>
   </g>
   <g id="text_25">
    <!-- $\,p_x = \,5 \, \mu m$ -->
    <defs>
     <path d="
M8.6875 11.375
Q9.71875 8.45312 11.8438 6.04688
Q13.9688 3.65625 16.875 2.3125
Q19.7812 0.984375 22.9062 0.984375
Q30.125 0.984375 32.8594 6.59375
Q35.5938 12.2031 35.5938 20.2188
Q35.5938 23.6875 35.4688 26.0469
Q35.3594 28.4219 34.8125 30.6094
Q33.8906 34.125 31.5625 36.7656
Q29.25 39.4062 25.875 39.4062
Q22.5156 39.4062 20.0938 38.375
Q17.6719 37.3594 16.1562 35.9844
Q14.6562 34.625 13.4844 33.1094
Q12.3125 31.5938 12.0156 31.5
L10.8906 31.5
Q10.6406 31.5 10.2656 31.8125
Q9.90625 32.125 9.90625 32.4219
L9.90625 65.8281
Q9.90625 66.0625 10.2188 66.3281
Q10.5469 66.6094 10.8906 66.6094
L11.1875 66.6094
Q17.9219 63.375 25.4844 63.375
Q32.9062 63.375 39.7969 66.6094
L40.0938 66.6094
Q40.4375 66.6094 40.7188 66.3594
Q41.0156 66.1094 41.0156 65.8281
L41.0156 64.8906
Q41.0156 64.4062 40.8281 64.4062
Q37.4062 59.8594 32.25 57.3125
Q27.0938 54.7812 21.5781 54.7812
Q17.5781 54.7812 13.375 55.9062
L13.375 37.0156
Q16.7031 39.7031 19.3125 40.8438
Q21.9219 42 25.9844 42
Q31.5 42 35.8594 38.8125
Q40.2344 35.6406 42.5781 30.5312
Q44.9219 25.4375 44.9219 20.125
Q44.9219 14.1094 41.9688 8.98438
Q39.0156 3.85938 33.9375 0.828125
Q28.8594 -2.20312 22.9062 -2.20312
Q17.9688 -2.20312 13.8438 0.328125
Q9.71875 2.875 7.34375 7.17188
Q4.98438 11.4688 4.98438 16.3125
Q4.98438 18.5625 6.4375 19.9688
Q7.90625 21.3906 10.1094 21.3906
Q12.3125 21.3906 13.7969 19.9375
Q15.2812 18.5 15.2812 16.3125
Q15.2812 14.1562 13.7969 12.6719
Q12.3125 11.1875 10.1094 11.1875
Q9.76562 11.1875 9.32812 11.25
Q8.89062 11.3281 8.6875 11.375" id="Cmr10-35"/>
    </defs>
    <g transform="translate(333.2 20.8300376547)scale(0.13 -0.13)">
     <use transform="translate(35.1171875 0.390625)" xlink:href="#Cmmi10-70"/>
     <use transform="translate(85.41015625 -25.11875)scale(0.7)" xlink:href="#Cmmi10-78"/>
     <use transform="translate(160.048828125 0.390625)" xlink:href="#Cmr10-3d"/>
     <use transform="translate(279.224609375 0.390625)" xlink:href="#Cmr10-35"/>
     <use transform="translate(364.341796875 0.390625)" xlink:href="#Cmmi10-b9"/>
     <use transform="translate(424.546875 0.390625)" xlink:href="#Cmmi10-6d"/>
    </g>
   </g>
   <g id="LineCollection_1">
    <defs>
     <path d="
M426.2 -152.437
L426.2 -271.268" id="C0_0_fd86bccfda"/>
    </defs>
    <g clip-path="url(#p1f17114eb1)">
     <use style="fill:none;stroke:#000000;stroke-width:0.45;" x="0.0" xlink:href="#C0_0_fd86bccfda" y="319.5475"/>
    </g>
   </g>
   <g id="LineCollection_2">
    <defs>
     <path d="
M488.2 -64.9518
L488.2 -156.156" id="C1_0_06c8117eaf"/>
    </defs>
    <g clip-path="url(#p1f17114eb1)">
     <use style="fill:none;stroke:#000000;stroke-width:0.5;" x="0.0" xlink:href="#C1_0_06c8117eaf" y="319.5475"/>
    </g>
   </g>
   <g id="PathCollection_1">
    <defs>
     <path d="
M0 2.73861
C0.726289 2.73861 1.42293 2.45006 1.93649 1.93649
C2.45006 1.42293 2.73861 0.726289 2.73861 0
C2.73861 -0.726289 2.45006 -1.42293 1.93649 -1.93649
C1.42293 -2.45006 0.726289 -2.73861 0 -2.73861
C-0.726289 -2.73861 -1.42293 -2.45006 -1.93649 -1.93649
C-2.45006 -1.42293 -2.73861 -0.726289 -2.73861 0
C-2.73861 0.726289 -2.45006 1.42293 -1.93649 1.93649
C-1.42293 2.45006 -0.726289 2.73861 0 2.73861
z
" id="C2_0_976255c095"/>
    </defs>
    <g clip-path="url(#p1f17114eb1)">
     <use style="fill:#66c2a5;stroke:#ffffff;stroke-width:1.5;" x="426.2" xlink:href="#C2_0_976255c095" y="92.0223130715"/>
    </g>
   </g>
   <g id="PathCollection_2">
    <defs>
     <path d="
M0 2.73861
C0.726289 2.73861 1.42293 2.45006 1.93649 1.93649
C2.45006 1.42293 2.73861 0.726289 2.73861 0
C2.73861 -0.726289 2.45006 -1.42293 1.93649 -1.93649
C1.42293 -2.45006 0.726289 -2.73861 0 -2.73861
C-0.726289 -2.73861 -1.42293 -2.45006 -1.93649 -1.93649
C-2.45006 -1.42293 -2.73861 -0.726289 -2.73861 0
C-2.73861 0.726289 -2.45006 1.42293 -1.93649 1.93649
C-1.42293 2.45006 -0.726289 2.73861 0 2.73861
z
" id="C3_0_976255c095"/>
    </defs>
    <g clip-path="url(#p1f17114eb1)">
     <use style="fill:#fc8d62;stroke:#ffffff;stroke-width:1.5;" x="426.2" xlink:href="#C3_0_976255c095" y="128.858117267"/>
    </g>
   </g>
   <g id="PathCollection_3">
    <defs>
     <path d="
M0 2.73861
C0.726289 2.73861 1.42293 2.45006 1.93649 1.93649
C2.45006 1.42293 2.73861 0.726289 2.73861 0
C2.73861 -0.726289 2.45006 -1.42293 1.93649 -1.93649
C1.42293 -2.45006 0.726289 -2.73861 0 -2.73861
C-0.726289 -2.73861 -1.42293 -2.45006 -1.93649 -1.93649
C-2.45006 -1.42293 -2.73861 -0.726289 -2.73861 0
C-2.73861 0.726289 -2.45006 1.42293 -1.93649 1.93649
C-1.42293 2.45006 -0.726289 2.73861 0 2.73861
z
" id="C4_0_976255c095"/>
    </defs>
    <g clip-path="url(#p1f17114eb1)">
     <use style="fill:#8da0cb;stroke:#ffffff;stroke-width:1.5;" x="426.2" xlink:href="#C4_0_976255c095" y="168.704540075"/>
    </g>
   </g>
   <g id="PathCollection_4">
    <defs>
     <path d="
M0 2.73861
C0.726289 2.73861 1.42293 2.45006 1.93649 1.93649
C2.45006 1.42293 2.73861 0.726289 2.73861 0
C2.73861 -0.726289 2.45006 -1.42293 1.93649 -1.93649
C1.42293 -2.45006 0.726289 -2.73861 0 -2.73861
C-0.726289 -2.73861 -1.42293 -2.45006 -1.93649 -1.93649
C-2.45006 -1.42293 -2.73861 -0.726289 -2.73861 0
C-2.73861 0.726289 -2.45006 1.42293 -1.93649 1.93649
C-1.42293 2.45006 -0.726289 2.73861 0 2.73861
z
" id="C5_0_976255c095"/>
    </defs>
    <g clip-path="url(#p1f17114eb1)">
     <use style="fill:#66c2a5;stroke:#ffffff;stroke-width:1.5;" x="488.2" xlink:href="#C5_0_976255c095" y="163.391683701"/>
    </g>
   </g>
   <g id="PathCollection_5">
    <defs>
     <path d="
M0 2.73861
C0.726289 2.73861 1.42293 2.45006 1.93649 1.93649
C2.45006 1.42293 2.73861 0.726289 2.73861 0
C2.73861 -0.726289 2.45006 -1.42293 1.93649 -1.93649
C1.42293 -2.45006 0.726289 -2.73861 0 -2.73861
C-0.726289 -2.73861 -1.42293 -2.45006 -1.93649 -1.93649
C-2.45006 -1.42293 -2.73861 -0.726289 -2.73861 0
C-2.73861 0.726289 -2.45006 1.42293 -1.93649 1.93649
C-1.42293 2.45006 -0.726289 2.73861 0 2.73861
z
" id="C6_0_976255c095"/>
    </defs>
    <g clip-path="url(#p1f17114eb1)">
     <use style="fill:#fc8d62;stroke:#ffffff;stroke-width:1.5;" x="488.2" xlink:href="#C6_0_976255c095" y="188.185013448"/>
    </g>
   </g>
   <g id="PathCollection_6">
    <defs>
     <path d="
M0 2.73861
C0.726289 2.73861 1.42293 2.45006 1.93649 1.93649
C2.45006 1.42293 2.73861 0.726289 2.73861 0
C2.73861 -0.726289 2.45006 -1.42293 1.93649 -1.93649
C1.42293 -2.45006 0.726289 -2.73861 0 -2.73861
C-0.726289 -2.73861 -1.42293 -2.45006 -1.93649 -1.93649
C-2.45006 -1.42293 -2.73861 -0.726289 -2.73861 0
C-2.73861 0.726289 -2.45006 1.42293 -1.93649 1.93649
C-1.42293 2.45006 -0.726289 2.73861 0 2.73861
z
" id="C7_0_976255c095"/>
    </defs>
    <g clip-path="url(#p1f17114eb1)">
     <use style="fill:#8da0cb;stroke:#ffffff;stroke-width:1.5;" x="488.2" xlink:href="#C7_0_976255c095" y="213.33253362"/>
    </g>
   </g>
   <g id="patch_6">
    <path d="
M54.2 2.16
L612.2 2.16" style="fill:none;stroke:#efefef;"/>
   </g>
   <g id="patch_7">
    <path d="
M612.2 281.16
L612.2 2.16" style="fill:none;stroke:#efefef;"/>
   </g>
   <g id="patch_8">
    <path d="
M54.2 281.16
L612.2 281.16" style="fill:none;stroke:#888888;"/>
   </g>
   <g id="patch_9">
    <path d="
M54.2 281.16
L54.2 2.16" style="fill:none;stroke:#888888;"/>
   </g>
  </g>
 </g>
 <defs>
  <clipPath id="p1f17114eb1">
   <rect height="279.0" width="558.0" x="54.2" y="2.16"/>
  </clipPath>
 </defs>
</svg>
