<?xml version="1.0" encoding="utf-8" standalone="no"?>
<!DOCTYPE svg PUBLIC "-//W3C//DTD SVG 1.1//EN"
  "http://www.w3.org/Graphics/SVG/1.1/DTD/svg11.dtd">
<!-- Created with matplotlib (http://matplotlib.org/) -->
<svg height="414pt" version="1.1" viewBox="0 0 701 414" width="701pt" xmlns="http://www.w3.org/2000/svg" xmlns:xlink="http://www.w3.org/1999/xlink">
 <defs>
  <style type="text/css">
*{stroke-linecap:butt;stroke-linejoin:round;}
  </style>
 </defs>
 <g id="figure_1">
  <g id="patch_1">
   <path d="
M0 414.306
L701.715 414.306
L701.715 0
L0 0
z
" style="fill:#ffffff;"/>
  </g>
  <g id="axes_1">
   <g id="patch_2">
    <path d="
M40.4553 361.162
L699.555 361.162
L699.555 11.7747
L40.4553 11.7747
z
" style="fill:#ffffff;"/>
   </g>
   <g id="matplotlib.axis_1">
    <g id="xtick_1">
     <g id="line2d_1">
      <path clip-path="url(#pb6b3f76246)" d="
M62.2306 361.162
L62.2306 11.7747" style="fill:none;stroke:#efefef;stroke-linecap:square;"/>
     </g>
     <g id="line2d_2">
      <defs>
       <path d="
M0 0
L0 4" id="md11e513213" style="stroke:#111111;stroke-width:0.5;"/>
      </defs>
      <g>
       <use style="fill:#111111;stroke:#111111;stroke-width:0.5;" x="62.2305743856" xlink:href="#md11e513213" y="361.161676958"/>
      </g>
     </g>
     <g id="text_1">
      <!-- 1990 -->
      <defs>
       <path d="
M10.9844 1.51562
L10.9844 10.5
Q14.7031 8.73438 18.5 7.8125
Q22.3125 6.89062 25.9844 6.89062
Q35.75 6.89062 40.8906 13.4531
Q46.0469 20.0156 46.7812 33.4062
Q43.9531 29.2031 39.5938 26.9531
Q35.25 24.7031 29.9844 24.7031
Q19.0469 24.7031 12.6719 31.3125
Q6.29688 37.9375 6.29688 49.4219
Q6.29688 60.6406 12.9375 67.4219
Q19.5781 74.2188 30.6094 74.2188
Q43.2656 74.2188 49.9219 64.5156
Q56.5938 54.8281 56.5938 36.375
Q56.5938 19.1406 48.4062 8.85938
Q40.2344 -1.42188 26.4219 -1.42188
Q22.7031 -1.42188 18.8906 -0.6875
Q15.0938 0.046875 10.9844 1.51562
M30.6094 32.4219
Q37.25 32.4219 41.125 36.9531
Q45.0156 41.5 45.0156 49.4219
Q45.0156 57.2812 41.125 61.8438
Q37.25 66.4062 30.6094 66.4062
Q23.9688 66.4062 20.0938 61.8438
Q16.2188 57.2812 16.2188 49.4219
Q16.2188 41.5 20.0938 36.9531
Q23.9688 32.4219 30.6094 32.4219" id="BitstreamVeraSans-Roman-39"/>
       <path d="
M12.4062 8.29688
L28.5156 8.29688
L28.5156 63.9219
L10.9844 60.4062
L10.9844 69.3906
L28.4219 72.9062
L38.2812 72.9062
L38.2812 8.29688
L54.3906 8.29688
L54.3906 0
L12.4062 0
z
" id="BitstreamVeraSans-Roman-31"/>
       <path d="
M31.7812 66.4062
Q24.1719 66.4062 20.3281 58.9062
Q16.5 51.4219 16.5 36.375
Q16.5 21.3906 20.3281 13.8906
Q24.1719 6.39062 31.7812 6.39062
Q39.4531 6.39062 43.2812 13.8906
Q47.125 21.3906 47.125 36.375
Q47.125 51.4219 43.2812 58.9062
Q39.4531 66.4062 31.7812 66.4062
M31.7812 74.2188
Q44.0469 74.2188 50.5156 64.5156
Q56.9844 54.8281 56.9844 36.375
Q56.9844 17.9688 50.5156 8.26562
Q44.0469 -1.42188 31.7812 -1.42188
Q19.5312 -1.42188 13.0625 8.26562
Q6.59375 17.9688 6.59375 36.375
Q6.59375 54.8281 13.0625 64.5156
Q19.5312 74.2188 31.7812 74.2188" id="BitstreamVeraSans-Roman-30"/>
      </defs>
      <g transform="translate(58.345169619 392.006192011)rotate(-60.0)scale(0.11 -0.11)">
       <use xlink:href="#BitstreamVeraSans-Roman-31"/>
       <use x="63.623046875" xlink:href="#BitstreamVeraSans-Roman-39"/>
       <use x="127.24609375" xlink:href="#BitstreamVeraSans-Roman-39"/>
       <use x="190.869140625" xlink:href="#BitstreamVeraSans-Roman-30"/>
      </g>
     </g>
    </g>
    <g id="xtick_2">
     <g id="line2d_3">
      <path clip-path="url(#pb6b3f76246)" d="
M88.7858 361.162
L88.7858 11.7747" style="fill:none;stroke:#efefef;stroke-linecap:square;"/>
     </g>
     <g id="line2d_4">
      <g>
       <use style="fill:#111111;stroke:#111111;stroke-width:0.5;" x="88.785771807" xlink:href="#md11e513213" y="361.161676958"/>
      </g>
     </g>
     <g id="text_2">
      <!-- 1991 -->
      <g transform="translate(84.9716951654 391.759104138)rotate(-60.0)scale(0.11 -0.11)">
       <use xlink:href="#BitstreamVeraSans-Roman-31"/>
       <use x="63.623046875" xlink:href="#BitstreamVeraSans-Roman-39"/>
       <use x="127.24609375" xlink:href="#BitstreamVeraSans-Roman-39"/>
       <use x="190.869140625" xlink:href="#BitstreamVeraSans-Roman-31"/>
      </g>
     </g>
    </g>
    <g id="xtick_3">
     <g id="line2d_5">
      <path clip-path="url(#pb6b3f76246)" d="
M115.341 361.162
L115.341 11.7747" style="fill:none;stroke:#efefef;stroke-linecap:square;"/>
     </g>
     <g id="line2d_6">
      <g>
       <use style="fill:#111111;stroke:#111111;stroke-width:0.5;" x="115.340969228" xlink:href="#md11e513213" y="361.161676958"/>
      </g>
     </g>
     <g id="text_3">
      <!-- 1992 -->
      <defs>
       <path d="
M19.1875 8.29688
L53.6094 8.29688
L53.6094 0
L7.32812 0
L7.32812 8.29688
Q12.9375 14.1094 22.625 23.8906
Q32.3281 33.6875 34.8125 36.5312
Q39.5469 41.8438 41.4219 45.5312
Q43.3125 49.2188 43.3125 52.7812
Q43.3125 58.5938 39.2344 62.25
Q35.1562 65.9219 28.6094 65.9219
Q23.9688 65.9219 18.8125 64.3125
Q13.6719 62.7031 7.8125 59.4219
L7.8125 69.3906
Q13.7656 71.7812 18.9375 73
Q24.125 74.2188 28.4219 74.2188
Q39.75 74.2188 46.4844 68.5469
Q53.2188 62.8906 53.2188 53.4219
Q53.2188 48.9219 51.5312 44.8906
Q49.8594 40.875 45.4062 35.4062
Q44.1875 33.9844 37.6406 27.2188
Q31.1094 20.4531 19.1875 8.29688" id="BitstreamVeraSans-Roman-32"/>
      </defs>
      <g transform="translate(111.548376962 391.68468008)rotate(-60.0)scale(0.11 -0.11)">
       <use xlink:href="#BitstreamVeraSans-Roman-31"/>
       <use x="63.623046875" xlink:href="#BitstreamVeraSans-Roman-39"/>
       <use x="127.24609375" xlink:href="#BitstreamVeraSans-Roman-39"/>
       <use x="190.869140625" xlink:href="#BitstreamVeraSans-Roman-32"/>
      </g>
     </g>
    </g>
    <g id="xtick_4">
     <g id="line2d_7">
      <path clip-path="url(#pb6b3f76246)" d="
M141.896 361.162
L141.896 11.7747" style="fill:none;stroke:#efefef;stroke-linecap:square;"/>
     </g>
     <g id="line2d_8">
      <g>
       <use style="fill:#111111;stroke:#111111;stroke-width:0.5;" x="141.89616665" xlink:href="#md11e513213" y="361.161676958"/>
      </g>
     </g>
     <g id="text_4">
      <!-- 1993 -->
      <defs>
       <path d="
M40.5781 39.3125
Q47.6562 37.7969 51.625 33
Q55.6094 28.2188 55.6094 21.1875
Q55.6094 10.4062 48.1875 4.48438
Q40.7656 -1.42188 27.0938 -1.42188
Q22.5156 -1.42188 17.6562 -0.515625
Q12.7969 0.390625 7.625 2.20312
L7.625 11.7188
Q11.7188 9.32812 16.5938 8.10938
Q21.4844 6.89062 26.8125 6.89062
Q36.0781 6.89062 40.9375 10.5469
Q45.7969 14.2031 45.7969 21.1875
Q45.7969 27.6406 41.2812 31.2656
Q36.7656 34.9062 28.7188 34.9062
L20.2188 34.9062
L20.2188 43.0156
L29.1094 43.0156
Q36.375 43.0156 40.2344 45.9219
Q44.0938 48.8281 44.0938 54.2969
Q44.0938 59.9062 40.1094 62.9062
Q36.1406 65.9219 28.7188 65.9219
Q24.6562 65.9219 20.0156 65.0312
Q15.375 64.1562 9.8125 62.3125
L9.8125 71.0938
Q15.4375 72.6562 20.3438 73.4375
Q25.25 74.2188 29.5938 74.2188
Q40.8281 74.2188 47.3594 69.1094
Q53.9062 64.0156 53.9062 55.3281
Q53.9062 49.2656 50.4375 45.0938
Q46.9688 40.9219 40.5781 39.3125" id="BitstreamVeraSans-Roman-33"/>
      </defs>
      <g transform="translate(138.048574383 391.875205669)rotate(-60.0)scale(0.11 -0.11)">
       <use xlink:href="#BitstreamVeraSans-Roman-31"/>
       <use x="63.623046875" xlink:href="#BitstreamVeraSans-Roman-39"/>
       <use x="127.24609375" xlink:href="#BitstreamVeraSans-Roman-39"/>
       <use x="190.869140625" xlink:href="#BitstreamVeraSans-Roman-33"/>
      </g>
     </g>
    </g>
    <g id="xtick_5">
     <g id="line2d_9">
      <path clip-path="url(#pb6b3f76246)" d="
M168.451 361.162
L168.451 11.7747" style="fill:none;stroke:#efefef;stroke-linecap:square;"/>
     </g>
     <g id="line2d_10">
      <g>
       <use style="fill:#111111;stroke:#111111;stroke-width:0.5;" x="168.451364071" xlink:href="#md11e513213" y="361.161676958"/>
      </g>
     </g>
     <g id="text_5">
      <!-- 1994 -->
      <defs>
       <path d="
M37.7969 64.3125
L12.8906 25.3906
L37.7969 25.3906
z

M35.2031 72.9062
L47.6094 72.9062
L47.6094 25.3906
L58.0156 25.3906
L58.0156 17.1875
L47.6094 17.1875
L47.6094 0
L37.7969 0
L37.7969 17.1875
L4.89062 17.1875
L4.89062 26.7031
z
" id="BitstreamVeraSans-Roman-34"/>
      </defs>
      <g transform="translate(164.53759993 392.104431768)rotate(-60.0)scale(0.11 -0.11)">
       <use xlink:href="#BitstreamVeraSans-Roman-31"/>
       <use x="63.623046875" xlink:href="#BitstreamVeraSans-Roman-39"/>
       <use x="127.24609375" xlink:href="#BitstreamVeraSans-Roman-39"/>
       <use x="190.869140625" xlink:href="#BitstreamVeraSans-Roman-34"/>
      </g>
     </g>
    </g>
    <g id="xtick_6">
     <g id="line2d_11">
      <path clip-path="url(#pb6b3f76246)" d="
M195.007 361.162
L195.007 11.7747" style="fill:none;stroke:#efefef;stroke-linecap:square;"/>
     </g>
     <g id="line2d_12">
      <g>
       <use style="fill:#111111;stroke:#111111;stroke-width:0.5;" x="195.006561493" xlink:href="#md11e513213" y="361.161676958"/>
      </g>
     </g>
     <g id="text_6">
      <!-- 1995 -->
      <defs>
       <path d="
M10.7969 72.9062
L49.5156 72.9062
L49.5156 64.5938
L19.8281 64.5938
L19.8281 46.7344
Q21.9688 47.4688 24.1094 47.8281
Q26.2656 48.1875 28.4219 48.1875
Q40.625 48.1875 47.75 41.5
Q54.8906 34.8125 54.8906 23.3906
Q54.8906 11.625 47.5625 5.09375
Q40.2344 -1.42188 26.9062 -1.42188
Q22.3125 -1.42188 17.5469 -0.640625
Q12.7969 0.140625 7.71875 1.70312
L7.71875 11.625
Q12.1094 9.23438 16.7969 8.0625
Q21.4844 6.89062 26.7031 6.89062
Q35.1562 6.89062 40.0781 11.3281
Q45.0156 15.7656 45.0156 23.3906
Q45.0156 31 40.0781 35.4375
Q35.1562 39.8906 26.7031 39.8906
Q22.75 39.8906 18.8125 39.0156
Q14.8906 38.1406 10.7969 36.2812
z
" id="BitstreamVeraSans-Roman-35"/>
      </defs>
      <g transform="translate(191.178734851 391.806735535)rotate(-60.0)scale(0.11 -0.11)">
       <use xlink:href="#BitstreamVeraSans-Roman-31"/>
       <use x="63.623046875" xlink:href="#BitstreamVeraSans-Roman-39"/>
       <use x="127.24609375" xlink:href="#BitstreamVeraSans-Roman-39"/>
       <use x="190.869140625" xlink:href="#BitstreamVeraSans-Roman-35"/>
      </g>
     </g>
    </g>
    <g id="xtick_7">
     <g id="line2d_13">
      <path clip-path="url(#pb6b3f76246)" d="
M221.562 361.162
L221.562 11.7747" style="fill:none;stroke:#efefef;stroke-linecap:square;"/>
     </g>
     <g id="line2d_14">
      <g>
       <use style="fill:#111111;stroke:#111111;stroke-width:0.5;" x="221.561758914" xlink:href="#md11e513213" y="361.161676958"/>
      </g>
     </g>
     <g id="text_7">
      <!-- 1996 -->
      <defs>
       <path d="
M33.0156 40.375
Q26.375 40.375 22.4844 35.8281
Q18.6094 31.2969 18.6094 23.3906
Q18.6094 15.5312 22.4844 10.9531
Q26.375 6.39062 33.0156 6.39062
Q39.6562 6.39062 43.5312 10.9531
Q47.4062 15.5312 47.4062 23.3906
Q47.4062 31.2969 43.5312 35.8281
Q39.6562 40.375 33.0156 40.375
M52.5938 71.2969
L52.5938 62.3125
Q48.875 64.0625 45.0938 64.9844
Q41.3125 65.9219 37.5938 65.9219
Q27.8281 65.9219 22.6719 59.3281
Q17.5312 52.7344 16.7969 39.4062
Q19.6719 43.6562 24.0156 45.9219
Q28.375 48.1875 33.5938 48.1875
Q44.5781 48.1875 50.9531 41.5156
Q57.3281 34.8594 57.3281 23.3906
Q57.3281 12.1562 50.6875 5.35938
Q44.0469 -1.42188 33.0156 -1.42188
Q20.3594 -1.42188 13.6719 8.26562
Q6.98438 17.9688 6.98438 36.375
Q6.98438 53.6562 15.1875 63.9375
Q23.3906 74.2188 37.2031 74.2188
Q40.9219 74.2188 44.7031 73.4844
Q48.4844 72.75 52.5938 71.2969" id="BitstreamVeraSans-Roman-36"/>
      </defs>
      <g transform="translate(217.666901023 392.038938596)rotate(-60.0)scale(0.11 -0.11)">
       <use xlink:href="#BitstreamVeraSans-Roman-31"/>
       <use x="63.623046875" xlink:href="#BitstreamVeraSans-Roman-39"/>
       <use x="127.24609375" xlink:href="#BitstreamVeraSans-Roman-39"/>
       <use x="190.869140625" xlink:href="#BitstreamVeraSans-Roman-36"/>
      </g>
     </g>
    </g>
    <g id="xtick_8">
     <g id="line2d_15">
      <path clip-path="url(#pb6b3f76246)" d="
M248.117 361.162
L248.117 11.7747" style="fill:none;stroke:#efefef;stroke-linecap:square;"/>
     </g>
     <g id="line2d_16">
      <g>
       <use style="fill:#111111;stroke:#111111;stroke-width:0.5;" x="248.116956336" xlink:href="#md11e513213" y="361.161676958"/>
      </g>
     </g>
     <g id="text_8">
      <!-- 1997 -->
      <defs>
       <path d="
M8.20312 72.9062
L55.0781 72.9062
L55.0781 68.7031
L28.6094 0
L18.3125 0
L43.2188 64.5938
L8.20312 64.5938
z
" id="BitstreamVeraSans-Roman-37"/>
      </defs>
      <g transform="translate(244.283973444 391.824597309)rotate(-60.0)scale(0.11 -0.11)">
       <use xlink:href="#BitstreamVeraSans-Roman-31"/>
       <use x="63.623046875" xlink:href="#BitstreamVeraSans-Roman-39"/>
       <use x="127.24609375" xlink:href="#BitstreamVeraSans-Roman-39"/>
       <use x="190.869140625" xlink:href="#BitstreamVeraSans-Roman-37"/>
      </g>
     </g>
    </g>
    <g id="xtick_9">
     <g id="line2d_17">
      <path clip-path="url(#pb6b3f76246)" d="
M274.672 361.162
L274.672 11.7747" style="fill:none;stroke:#efefef;stroke-linecap:square;"/>
     </g>
     <g id="line2d_18">
      <g>
       <use style="fill:#111111;stroke:#111111;stroke-width:0.5;" x="274.672153757" xlink:href="#md11e513213" y="361.161676958"/>
      </g>
     </g>
     <g id="text_9">
      <!-- 1998 -->
      <defs>
       <path d="
M31.7812 34.625
Q24.75 34.625 20.7188 30.8594
Q16.7031 27.0938 16.7031 20.5156
Q16.7031 13.9219 20.7188 10.1562
Q24.75 6.39062 31.7812 6.39062
Q38.8125 6.39062 42.8594 10.1719
Q46.9219 13.9688 46.9219 20.5156
Q46.9219 27.0938 42.8906 30.8594
Q38.875 34.625 31.7812 34.625
M21.9219 38.8125
Q15.5781 40.375 12.0312 44.7188
Q8.5 49.0781 8.5 55.3281
Q8.5 64.0625 14.7188 69.1406
Q20.9531 74.2188 31.7812 74.2188
Q42.6719 74.2188 48.875 69.1406
Q55.0781 64.0625 55.0781 55.3281
Q55.0781 49.0781 51.5312 44.7188
Q48 40.375 41.7031 38.8125
Q48.8281 37.1562 52.7969 32.3125
Q56.7812 27.4844 56.7812 20.5156
Q56.7812 9.90625 50.3125 4.23438
Q43.8438 -1.42188 31.7812 -1.42188
Q19.7344 -1.42188 13.25 4.23438
Q6.78125 9.90625 6.78125 20.5156
Q6.78125 27.4844 10.7812 32.3125
Q14.7969 37.1562 21.9219 38.8125
M18.3125 54.3906
Q18.3125 48.7344 21.8438 45.5625
Q25.3906 42.3906 31.7812 42.3906
Q38.1406 42.3906 41.7188 45.5625
Q45.3125 48.7344 45.3125 54.3906
Q45.3125 60.0625 41.7188 63.2344
Q38.1406 66.4062 31.7812 66.4062
Q25.3906 66.4062 21.8438 63.2344
Q18.3125 60.0625 18.3125 54.3906" id="BitstreamVeraSans-Roman-38"/>
      </defs>
      <g transform="translate(270.792334928 391.986841756)rotate(-60.0)scale(0.11 -0.11)">
       <use xlink:href="#BitstreamVeraSans-Roman-31"/>
       <use x="63.623046875" xlink:href="#BitstreamVeraSans-Roman-39"/>
       <use x="127.24609375" xlink:href="#BitstreamVeraSans-Roman-39"/>
       <use x="190.869140625" xlink:href="#BitstreamVeraSans-Roman-38"/>
      </g>
     </g>
    </g>
    <g id="xtick_10">
     <g id="line2d_19">
      <path clip-path="url(#pb6b3f76246)" d="
M301.227 361.162
L301.227 11.7747" style="fill:none;stroke:#efefef;stroke-linecap:square;"/>
     </g>
     <g id="line2d_20">
      <g>
       <use style="fill:#111111;stroke:#111111;stroke-width:0.5;" x="301.227351178" xlink:href="#md11e513213" y="361.161676958"/>
      </g>
     </g>
     <g id="text_10">
      <!-- 1999 -->
      <g transform="translate(297.352688599 391.968979982)rotate(-60.0)scale(0.11 -0.11)">
       <use xlink:href="#BitstreamVeraSans-Roman-31"/>
       <use x="63.623046875" xlink:href="#BitstreamVeraSans-Roman-39"/>
       <use x="127.24609375" xlink:href="#BitstreamVeraSans-Roman-39"/>
       <use x="190.869140625" xlink:href="#BitstreamVeraSans-Roman-39"/>
      </g>
     </g>
    </g>
    <g id="xtick_11">
     <g id="line2d_21">
      <path clip-path="url(#pb6b3f76246)" d="
M327.783 361.162
L327.783 11.7747" style="fill:none;stroke:#efefef;stroke-linecap:square;"/>
     </g>
     <g id="line2d_22">
      <g>
       <use style="fill:#111111;stroke:#111111;stroke-width:0.5;" x="327.7825486" xlink:href="#md11e513213" y="361.161676958"/>
      </g>
     </g>
     <g id="text_11">
      <!-- 2000 -->
      <g transform="translate(323.796596958 392.354496603)rotate(-60.0)scale(0.11 -0.11)">
       <use xlink:href="#BitstreamVeraSans-Roman-32"/>
       <use x="63.623046875" xlink:href="#BitstreamVeraSans-Roman-30"/>
       <use x="127.24609375" xlink:href="#BitstreamVeraSans-Roman-30"/>
       <use x="190.869140625" xlink:href="#BitstreamVeraSans-Roman-30"/>
      </g>
     </g>
    </g>
    <g id="xtick_12">
     <g id="line2d_23">
      <path clip-path="url(#pb6b3f76246)" d="
M354.338 361.162
L354.338 11.7747" style="fill:none;stroke:#efefef;stroke-linecap:square;"/>
     </g>
     <g id="line2d_24">
      <g>
       <use style="fill:#111111;stroke:#111111;stroke-width:0.5;" x="354.337746021" xlink:href="#md11e513213" y="361.161676958"/>
      </g>
     </g>
     <g id="text_12">
      <!-- 2001 -->
      <g transform="translate(350.423122505 392.10740873)rotate(-60.0)scale(0.11 -0.11)">
       <use xlink:href="#BitstreamVeraSans-Roman-32"/>
       <use x="63.623046875" xlink:href="#BitstreamVeraSans-Roman-30"/>
       <use x="127.24609375" xlink:href="#BitstreamVeraSans-Roman-30"/>
       <use x="190.869140625" xlink:href="#BitstreamVeraSans-Roman-31"/>
      </g>
     </g>
    </g>
    <g id="xtick_13">
     <g id="line2d_25">
      <path clip-path="url(#pb6b3f76246)" d="
M380.893 361.162
L380.893 11.7747" style="fill:none;stroke:#efefef;stroke-linecap:square;"/>
     </g>
     <g id="line2d_26">
      <g>
       <use style="fill:#111111;stroke:#111111;stroke-width:0.5;" x="380.892943443" xlink:href="#md11e513213" y="361.161676958"/>
      </g>
     </g>
     <g id="text_13">
      <!-- 2002 -->
      <g transform="translate(376.999804301 392.032984672)rotate(-60.0)scale(0.11 -0.11)">
       <use xlink:href="#BitstreamVeraSans-Roman-32"/>
       <use x="63.623046875" xlink:href="#BitstreamVeraSans-Roman-30"/>
       <use x="127.24609375" xlink:href="#BitstreamVeraSans-Roman-30"/>
       <use x="190.869140625" xlink:href="#BitstreamVeraSans-Roman-32"/>
      </g>
     </g>
    </g>
    <g id="xtick_14">
     <g id="line2d_27">
      <path clip-path="url(#pb6b3f76246)" d="
M407.448 361.162
L407.448 11.7747" style="fill:none;stroke:#efefef;stroke-linecap:square;"/>
     </g>
     <g id="line2d_28">
      <g>
       <use style="fill:#111111;stroke:#111111;stroke-width:0.5;" x="407.448140864" xlink:href="#md11e513213" y="361.161676958"/>
      </g>
     </g>
     <g id="text_14">
      <!-- 2003 -->
      <g transform="translate(403.500001723 392.223510261)rotate(-60.0)scale(0.11 -0.11)">
       <use xlink:href="#BitstreamVeraSans-Roman-32"/>
       <use x="63.623046875" xlink:href="#BitstreamVeraSans-Roman-30"/>
       <use x="127.24609375" xlink:href="#BitstreamVeraSans-Roman-30"/>
       <use x="190.869140625" xlink:href="#BitstreamVeraSans-Roman-33"/>
      </g>
     </g>
    </g>
    <g id="xtick_15">
     <g id="line2d_29">
      <path clip-path="url(#pb6b3f76246)" d="
M434.003 361.162
L434.003 11.7747" style="fill:none;stroke:#efefef;stroke-linecap:square;"/>
     </g>
     <g id="line2d_30">
      <g>
       <use style="fill:#111111;stroke:#111111;stroke-width:0.5;" x="434.003338286" xlink:href="#md11e513213" y="361.161676958"/>
      </g>
     </g>
     <g id="text_15">
      <!-- 2004 -->
      <g transform="translate(429.989027269 392.45273636)rotate(-60.0)scale(0.11 -0.11)">
       <use xlink:href="#BitstreamVeraSans-Roman-32"/>
       <use x="63.623046875" xlink:href="#BitstreamVeraSans-Roman-30"/>
       <use x="127.24609375" xlink:href="#BitstreamVeraSans-Roman-30"/>
       <use x="190.869140625" xlink:href="#BitstreamVeraSans-Roman-34"/>
      </g>
     </g>
    </g>
    <g id="xtick_16">
     <g id="line2d_31">
      <path clip-path="url(#pb6b3f76246)" d="
M460.559 361.162
L460.559 11.7747" style="fill:none;stroke:#efefef;stroke-linecap:square;"/>
     </g>
     <g id="line2d_32">
      <g>
       <use style="fill:#111111;stroke:#111111;stroke-width:0.5;" x="460.558535707" xlink:href="#md11e513213" y="361.161676958"/>
      </g>
     </g>
     <g id="text_16">
      <!-- 2005 -->
      <g transform="translate(456.630162191 392.155040127)rotate(-60.0)scale(0.11 -0.11)">
       <use xlink:href="#BitstreamVeraSans-Roman-32"/>
       <use x="63.623046875" xlink:href="#BitstreamVeraSans-Roman-30"/>
       <use x="127.24609375" xlink:href="#BitstreamVeraSans-Roman-30"/>
       <use x="190.869140625" xlink:href="#BitstreamVeraSans-Roman-35"/>
      </g>
     </g>
    </g>
    <g id="xtick_17">
     <g id="line2d_33">
      <path clip-path="url(#pb6b3f76246)" d="
M487.114 361.162
L487.114 11.7747" style="fill:none;stroke:#efefef;stroke-linecap:square;"/>
     </g>
     <g id="line2d_34">
      <g>
       <use style="fill:#111111;stroke:#111111;stroke-width:0.5;" x="487.113733129" xlink:href="#md11e513213" y="361.161676958"/>
      </g>
     </g>
     <g id="text_17">
      <!-- 2006 -->
      <g transform="translate(483.118328362 392.387243189)rotate(-60.0)scale(0.11 -0.11)">
       <use xlink:href="#BitstreamVeraSans-Roman-32"/>
       <use x="63.623046875" xlink:href="#BitstreamVeraSans-Roman-30"/>
       <use x="127.24609375" xlink:href="#BitstreamVeraSans-Roman-30"/>
       <use x="190.869140625" xlink:href="#BitstreamVeraSans-Roman-36"/>
      </g>
     </g>
    </g>
    <g id="xtick_18">
     <g id="line2d_35">
      <path clip-path="url(#pb6b3f76246)" d="
M513.669 361.162
L513.669 11.7747" style="fill:none;stroke:#efefef;stroke-linecap:square;"/>
     </g>
     <g id="line2d_36">
      <g>
       <use style="fill:#111111;stroke:#111111;stroke-width:0.5;" x="513.66893055" xlink:href="#md11e513213" y="361.161676958"/>
      </g>
     </g>
     <g id="text_18">
      <!-- 2007 -->
      <g transform="translate(509.735400783 392.172901901)rotate(-60.0)scale(0.11 -0.11)">
       <use xlink:href="#BitstreamVeraSans-Roman-32"/>
       <use x="63.623046875" xlink:href="#BitstreamVeraSans-Roman-30"/>
       <use x="127.24609375" xlink:href="#BitstreamVeraSans-Roman-30"/>
       <use x="190.869140625" xlink:href="#BitstreamVeraSans-Roman-37"/>
      </g>
     </g>
    </g>
    <g id="xtick_19">
     <g id="line2d_37">
      <path clip-path="url(#pb6b3f76246)" d="
M540.224 361.162
L540.224 11.7747" style="fill:none;stroke:#efefef;stroke-linecap:square;"/>
     </g>
     <g id="line2d_38">
      <g>
       <use style="fill:#111111;stroke:#111111;stroke-width:0.5;" x="540.224127971" xlink:href="#md11e513213" y="361.161676958"/>
      </g>
     </g>
     <g id="text_19">
      <!-- 2008 -->
      <g transform="translate(536.243762267 392.335146348)rotate(-60.0)scale(0.11 -0.11)">
       <use xlink:href="#BitstreamVeraSans-Roman-32"/>
       <use x="63.623046875" xlink:href="#BitstreamVeraSans-Roman-30"/>
       <use x="127.24609375" xlink:href="#BitstreamVeraSans-Roman-30"/>
       <use x="190.869140625" xlink:href="#BitstreamVeraSans-Roman-38"/>
      </g>
     </g>
    </g>
    <g id="xtick_20">
     <g id="line2d_39">
      <path clip-path="url(#pb6b3f76246)" d="
M566.779 361.162
L566.779 11.7747" style="fill:none;stroke:#efefef;stroke-linecap:square;"/>
     </g>
     <g id="line2d_40">
      <g>
       <use style="fill:#111111;stroke:#111111;stroke-width:0.5;" x="566.779325393" xlink:href="#md11e513213" y="361.161676958"/>
      </g>
     </g>
     <g id="text_20">
      <!-- 2009 -->
      <g transform="translate(562.804115939 392.317284574)rotate(-60.0)scale(0.11 -0.11)">
       <use xlink:href="#BitstreamVeraSans-Roman-32"/>
       <use x="63.623046875" xlink:href="#BitstreamVeraSans-Roman-30"/>
       <use x="127.24609375" xlink:href="#BitstreamVeraSans-Roman-30"/>
       <use x="190.869140625" xlink:href="#BitstreamVeraSans-Roman-39"/>
      </g>
     </g>
    </g>
    <g id="xtick_21">
     <g id="line2d_41">
      <path clip-path="url(#pb6b3f76246)" d="
M593.335 361.162
L593.335 11.7747" style="fill:none;stroke:#efefef;stroke-linecap:square;"/>
     </g>
     <g id="line2d_42">
      <g>
       <use style="fill:#111111;stroke:#111111;stroke-width:0.5;" x="593.334522814" xlink:href="#md11e513213" y="361.161676958"/>
      </g>
     </g>
     <g id="text_21">
      <!-- 2010 -->
      <g transform="translate(589.348571173 392.354496603)rotate(-60.0)scale(0.11 -0.11)">
       <use xlink:href="#BitstreamVeraSans-Roman-32"/>
       <use x="63.623046875" xlink:href="#BitstreamVeraSans-Roman-30"/>
       <use x="127.24609375" xlink:href="#BitstreamVeraSans-Roman-31"/>
       <use x="190.869140625" xlink:href="#BitstreamVeraSans-Roman-30"/>
      </g>
     </g>
    </g>
    <g id="xtick_22">
     <g id="line2d_43">
      <path clip-path="url(#pb6b3f76246)" d="
M619.89 361.162
L619.89 11.7747" style="fill:none;stroke:#efefef;stroke-linecap:square;"/>
     </g>
     <g id="line2d_44">
      <g>
       <use style="fill:#111111;stroke:#111111;stroke-width:0.5;" x="619.889720236" xlink:href="#md11e513213" y="361.161676958"/>
      </g>
     </g>
     <g id="text_22">
      <!-- 2011 -->
      <g transform="translate(615.975096719 392.10740873)rotate(-60.0)scale(0.11 -0.11)">
       <use xlink:href="#BitstreamVeraSans-Roman-32"/>
       <use x="63.623046875" xlink:href="#BitstreamVeraSans-Roman-30"/>
       <use x="127.24609375" xlink:href="#BitstreamVeraSans-Roman-31"/>
       <use x="190.869140625" xlink:href="#BitstreamVeraSans-Roman-31"/>
      </g>
     </g>
    </g>
    <g id="xtick_23">
     <g id="line2d_45">
      <path clip-path="url(#pb6b3f76246)" d="
M646.445 361.162
L646.445 11.7747" style="fill:none;stroke:#efefef;stroke-linecap:square;"/>
     </g>
     <g id="line2d_46">
      <g>
       <use style="fill:#111111;stroke:#111111;stroke-width:0.5;" x="646.444917657" xlink:href="#md11e513213" y="361.161676958"/>
      </g>
     </g>
     <g id="text_23">
      <!-- 2012 -->
      <g transform="translate(642.551778516 392.032984672)rotate(-60.0)scale(0.11 -0.11)">
       <use xlink:href="#BitstreamVeraSans-Roman-32"/>
       <use x="63.623046875" xlink:href="#BitstreamVeraSans-Roman-30"/>
       <use x="127.24609375" xlink:href="#BitstreamVeraSans-Roman-31"/>
       <use x="190.869140625" xlink:href="#BitstreamVeraSans-Roman-32"/>
      </g>
     </g>
    </g>
    <g id="xtick_24">
     <g id="line2d_47">
      <path clip-path="url(#pb6b3f76246)" d="
M673 361.162
L673 11.7747" style="fill:none;stroke:#efefef;stroke-linecap:square;"/>
     </g>
     <g id="line2d_48">
      <g>
       <use style="fill:#111111;stroke:#111111;stroke-width:0.5;" x="673.000115079" xlink:href="#md11e513213" y="361.161676958"/>
      </g>
     </g>
     <g id="text_24">
      <!-- 2013 -->
      <g transform="translate(669.051975937 392.223510261)rotate(-60.0)scale(0.11 -0.11)">
       <use xlink:href="#BitstreamVeraSans-Roman-32"/>
       <use x="63.623046875" xlink:href="#BitstreamVeraSans-Roman-30"/>
       <use x="127.24609375" xlink:href="#BitstreamVeraSans-Roman-31"/>
       <use x="190.869140625" xlink:href="#BitstreamVeraSans-Roman-33"/>
      </g>
     </g>
    </g>
    <g id="text_25">
     <!-- Year -->
     <defs>
      <path d="
M56.2031 29.5938
L56.2031 25.2031
L14.8906 25.2031
Q15.4844 15.9219 20.4844 11.0625
Q25.4844 6.20312 34.4219 6.20312
Q39.5938 6.20312 44.4531 7.46875
Q49.3125 8.73438 54.1094 11.2812
L54.1094 2.78125
Q49.2656 0.734375 44.1875 -0.34375
Q39.1094 -1.42188 33.8906 -1.42188
Q20.7969 -1.42188 13.1562 6.1875
Q5.51562 13.8125 5.51562 26.8125
Q5.51562 40.2344 12.7656 48.1094
Q20.0156 56 32.3281 56
Q43.3594 56 49.7812 48.8906
Q56.2031 41.7969 56.2031 29.5938
M47.2188 32.2344
Q47.125 39.5938 43.0938 43.9844
Q39.0625 48.3906 32.4219 48.3906
Q24.9062 48.3906 20.3906 44.1406
Q15.875 39.8906 15.1875 32.1719
z
" id="BitstreamVeraSans-Roman-65"/>
      <path d="
M-0.203125 72.9062
L10.4062 72.9062
L30.6094 42.9219
L50.6875 72.9062
L61.2812 72.9062
L35.5 34.7188
L35.5 0
L25.5938 0
L25.5938 34.7188
z
" id="BitstreamVeraSans-Roman-59"/>
      <path d="
M34.2812 27.4844
Q23.3906 27.4844 19.1875 25
Q14.9844 22.5156 14.9844 16.5
Q14.9844 11.7188 18.1406 8.90625
Q21.2969 6.10938 26.7031 6.10938
Q34.1875 6.10938 38.7031 11.4062
Q43.2188 16.7031 43.2188 25.4844
L43.2188 27.4844
z

M52.2031 31.2031
L52.2031 0
L43.2188 0
L43.2188 8.29688
Q40.1406 3.32812 35.5469 0.953125
Q30.9531 -1.42188 24.3125 -1.42188
Q15.9219 -1.42188 10.9531 3.29688
Q6 8.01562 6 15.9219
Q6 25.1406 12.1719 29.8281
Q18.3594 34.5156 30.6094 34.5156
L43.2188 34.5156
L43.2188 35.4062
Q43.2188 41.6094 39.1406 45
Q35.0625 48.3906 27.6875 48.3906
Q23 48.3906 18.5469 47.2656
Q14.1094 46.1406 10.0156 43.8906
L10.0156 52.2031
Q14.9375 54.1094 19.5781 55.0469
Q24.2188 56 28.6094 56
Q40.4844 56 46.3438 49.8438
Q52.2031 43.7031 52.2031 31.2031" id="BitstreamVeraSans-Roman-61"/>
      <path d="
M41.1094 46.2969
Q39.5938 47.1719 37.8125 47.5781
Q36.0312 48 33.8906 48
Q26.2656 48 22.1875 43.0469
Q18.1094 38.0938 18.1094 28.8125
L18.1094 0
L9.07812 0
L9.07812 54.6875
L18.1094 54.6875
L18.1094 46.1875
Q20.9531 51.1719 25.4844 53.5781
Q30.0312 56 36.5312 56
Q37.4531 56 38.5781 55.875
Q39.7031 55.7656 41.0625 55.5156
z
" id="BitstreamVeraSans-Roman-72"/>
     </defs>
     <g transform="translate(355.16859375 409.234376985)scale(0.14 -0.14)">
      <use xlink:href="#BitstreamVeraSans-Roman-59"/>
      <use x="47.833984375" xlink:href="#BitstreamVeraSans-Roman-65"/>
      <use x="109.357421875" xlink:href="#BitstreamVeraSans-Roman-61"/>
      <use x="170.63671875" xlink:href="#BitstreamVeraSans-Roman-72"/>
     </g>
    </g>
   </g>
   <g id="matplotlib.axis_2">
    <g id="ytick_1">
     <g id="line2d_49">
      <path clip-path="url(#pb6b3f76246)" d="
M40.4553 361.162
L699.555 361.162" style="fill:none;stroke:#efefef;stroke-linecap:square;"/>
     </g>
     <g id="line2d_50">
      <defs>
       <path d="
M0 0
L-4 0" id="m3cf9b8fc09" style="stroke:#111111;stroke-width:0.5;"/>
      </defs>
      <g>
       <use style="fill:#111111;stroke:#111111;stroke-width:0.5;" x="40.4553125" xlink:href="#m3cf9b8fc09" y="361.161676958"/>
      </g>
     </g>
     <g id="text_26">
      <!-- 0 -->
      <g transform="translate(34.06765625 363.933161333)rotate(-90.0)scale(0.11 -0.11)">
       <use xlink:href="#BitstreamVeraSans-Roman-30"/>
      </g>
     </g>
    </g>
    <g id="ytick_2">
     <g id="line2d_51">
      <path clip-path="url(#pb6b3f76246)" d="
M40.4553 329.399
L699.555 329.399" style="fill:none;stroke:#efefef;stroke-linecap:square;"/>
     </g>
     <g id="line2d_52">
      <g>
       <use style="fill:#111111;stroke:#111111;stroke-width:0.5;" x="40.4553125" xlink:href="#m3cf9b8fc09" y="329.399223371"/>
      </g>
     </g>
     <g id="text_27">
      <!-- 25 -->
      <g transform="translate(34.06765625 335.514535871)rotate(-90.0)scale(0.11 -0.11)">
       <use xlink:href="#BitstreamVeraSans-Roman-32"/>
       <use x="63.623046875" xlink:href="#BitstreamVeraSans-Roman-35"/>
      </g>
     </g>
    </g>
    <g id="ytick_3">
     <g id="line2d_53">
      <path clip-path="url(#pb6b3f76246)" d="
M40.4553 297.637
L699.555 297.637" style="fill:none;stroke:#efefef;stroke-linecap:square;"/>
     </g>
     <g id="line2d_54">
      <g>
       <use style="fill:#111111;stroke:#111111;stroke-width:0.5;" x="40.4553125" xlink:href="#m3cf9b8fc09" y="297.636769784"/>
      </g>
     </g>
     <g id="text_28">
      <!-- 50 -->
      <g transform="translate(34.06765625 303.845754159)rotate(-90.0)scale(0.11 -0.11)">
       <use xlink:href="#BitstreamVeraSans-Roman-35"/>
       <use x="63.623046875" xlink:href="#BitstreamVeraSans-Roman-30"/>
      </g>
     </g>
    </g>
    <g id="ytick_4">
     <g id="line2d_55">
      <path clip-path="url(#pb6b3f76246)" d="
M40.4553 265.874
L699.555 265.874" style="fill:none;stroke:#efefef;stroke-linecap:square;"/>
     </g>
     <g id="line2d_56">
      <g>
       <use style="fill:#111111;stroke:#111111;stroke-width:0.5;" x="40.4553125" xlink:href="#m3cf9b8fc09" y="265.874316197"/>
      </g>
     </g>
     <g id="text_29">
      <!-- 75 -->
      <g transform="translate(34.06765625 271.941503697)rotate(-90.0)scale(0.11 -0.11)">
       <use xlink:href="#BitstreamVeraSans-Roman-37"/>
       <use x="63.623046875" xlink:href="#BitstreamVeraSans-Roman-35"/>
      </g>
     </g>
    </g>
    <g id="ytick_5">
     <g id="line2d_57">
      <path clip-path="url(#pb6b3f76246)" d="
M40.4553 234.112
L699.555 234.112" style="fill:none;stroke:#efefef;stroke-linecap:square;"/>
     </g>
     <g id="line2d_58">
      <g>
       <use style="fill:#111111;stroke:#111111;stroke-width:0.5;" x="40.4553125" xlink:href="#m3cf9b8fc09" y="234.11186261"/>
      </g>
     </g>
     <g id="text_30">
      <!-- 100 -->
      <g transform="translate(34.06765625 243.64061261)rotate(-90.0)scale(0.11 -0.11)">
       <use xlink:href="#BitstreamVeraSans-Roman-31"/>
       <use x="63.623046875" xlink:href="#BitstreamVeraSans-Roman-30"/>
       <use x="127.24609375" xlink:href="#BitstreamVeraSans-Roman-30"/>
      </g>
     </g>
    </g>
    <g id="ytick_6">
     <g id="line2d_59">
      <path clip-path="url(#pb6b3f76246)" d="
M40.4553 202.349
L699.555 202.349" style="fill:none;stroke:#efefef;stroke-linecap:square;"/>
     </g>
     <g id="line2d_60">
      <g>
       <use style="fill:#111111;stroke:#111111;stroke-width:0.5;" x="40.4553125" xlink:href="#m3cf9b8fc09" y="202.349409023"/>
      </g>
     </g>
     <g id="text_31">
      <!-- 125 -->
      <g transform="translate(34.06765625 211.763002773)rotate(-90.0)scale(0.11 -0.11)">
       <use xlink:href="#BitstreamVeraSans-Roman-31"/>
       <use x="63.623046875" xlink:href="#BitstreamVeraSans-Roman-32"/>
       <use x="127.24609375" xlink:href="#BitstreamVeraSans-Roman-35"/>
      </g>
     </g>
    </g>
    <g id="ytick_7">
     <g id="line2d_61">
      <path clip-path="url(#pb6b3f76246)" d="
M40.4553 170.587
L699.555 170.587" style="fill:none;stroke:#efefef;stroke-linecap:square;"/>
     </g>
     <g id="line2d_62">
      <g>
       <use style="fill:#111111;stroke:#111111;stroke-width:0.5;" x="40.4553125" xlink:href="#m3cf9b8fc09" y="170.586955436"/>
      </g>
     </g>
     <g id="text_32">
      <!-- 150 -->
      <g transform="translate(34.06765625 180.115705436)rotate(-90.0)scale(0.11 -0.11)">
       <use xlink:href="#BitstreamVeraSans-Roman-31"/>
       <use x="63.623046875" xlink:href="#BitstreamVeraSans-Roman-35"/>
       <use x="127.24609375" xlink:href="#BitstreamVeraSans-Roman-30"/>
      </g>
     </g>
    </g>
    <g id="ytick_8">
     <g id="line2d_63">
      <path clip-path="url(#pb6b3f76246)" d="
M40.4553 138.825
L699.555 138.825" style="fill:none;stroke:#efefef;stroke-linecap:square;"/>
     </g>
     <g id="line2d_64">
      <g>
       <use style="fill:#111111;stroke:#111111;stroke-width:0.5;" x="40.4553125" xlink:href="#m3cf9b8fc09" y="138.824501849"/>
      </g>
     </g>
     <g id="text_33">
      <!-- 175 -->
      <g transform="translate(34.06765625 148.238095599)rotate(-90.0)scale(0.11 -0.11)">
       <use xlink:href="#BitstreamVeraSans-Roman-31"/>
       <use x="63.623046875" xlink:href="#BitstreamVeraSans-Roman-37"/>
       <use x="127.24609375" xlink:href="#BitstreamVeraSans-Roman-35"/>
      </g>
     </g>
    </g>
    <g id="ytick_9">
     <g id="line2d_65">
      <path clip-path="url(#pb6b3f76246)" d="
M40.4553 107.062
L699.555 107.062" style="fill:none;stroke:#efefef;stroke-linecap:square;"/>
     </g>
     <g id="line2d_66">
      <g>
       <use style="fill:#111111;stroke:#111111;stroke-width:0.5;" x="40.4553125" xlink:href="#m3cf9b8fc09" y="107.062048261"/>
      </g>
     </g>
     <g id="text_34">
      <!-- 200 -->
      <g transform="translate(34.06765625 116.791892011)rotate(-90.0)scale(0.11 -0.11)">
       <use xlink:href="#BitstreamVeraSans-Roman-32"/>
       <use x="63.623046875" xlink:href="#BitstreamVeraSans-Roman-30"/>
       <use x="127.24609375" xlink:href="#BitstreamVeraSans-Roman-30"/>
      </g>
     </g>
    </g>
    <g id="ytick_10">
     <g id="line2d_67">
      <path clip-path="url(#pb6b3f76246)" d="
M40.4553 75.2996
L699.555 75.2996" style="fill:none;stroke:#efefef;stroke-linecap:square;"/>
     </g>
     <g id="line2d_68">
      <g>
       <use style="fill:#111111;stroke:#111111;stroke-width:0.5;" x="40.4553125" xlink:href="#m3cf9b8fc09" y="75.2995946743"/>
      </g>
     </g>
     <g id="text_35">
      <!-- 225 -->
      <g transform="translate(34.06765625 84.9142821743)rotate(-90.0)scale(0.11 -0.11)">
       <use xlink:href="#BitstreamVeraSans-Roman-32"/>
       <use x="63.623046875" xlink:href="#BitstreamVeraSans-Roman-32"/>
       <use x="127.24609375" xlink:href="#BitstreamVeraSans-Roman-35"/>
      </g>
     </g>
    </g>
    <g id="ytick_11">
     <g id="line2d_69">
      <path clip-path="url(#pb6b3f76246)" d="
M40.4553 43.5371
L699.555 43.5371" style="fill:none;stroke:#efefef;stroke-linecap:square;"/>
     </g>
     <g id="line2d_70">
      <g>
       <use style="fill:#111111;stroke:#111111;stroke-width:0.5;" x="40.4553125" xlink:href="#m3cf9b8fc09" y="43.5371410871"/>
      </g>
     </g>
     <g id="text_36">
      <!-- 250 -->
      <g transform="translate(34.06765625 53.2669848371)rotate(-90.0)scale(0.11 -0.11)">
       <use xlink:href="#BitstreamVeraSans-Roman-32"/>
       <use x="63.623046875" xlink:href="#BitstreamVeraSans-Roman-35"/>
       <use x="127.24609375" xlink:href="#BitstreamVeraSans-Roman-30"/>
      </g>
     </g>
    </g>
    <g id="ytick_12">
     <g id="line2d_71">
      <path clip-path="url(#pb6b3f76246)" d="
M40.4553 11.7747
L699.555 11.7747" style="fill:none;stroke:#efefef;stroke-linecap:square;"/>
     </g>
     <g id="line2d_72">
      <g>
       <use style="fill:#111111;stroke:#111111;stroke-width:0.5;" x="40.4553125" xlink:href="#m3cf9b8fc09" y="11.7746875"/>
      </g>
     </g>
     <g id="text_37">
      <!-- 275 -->
      <g transform="translate(34.06765625 21.389375)rotate(-90.0)scale(0.11 -0.11)">
       <use xlink:href="#BitstreamVeraSans-Roman-32"/>
       <use x="63.623046875" xlink:href="#BitstreamVeraSans-Roman-37"/>
       <use x="127.24609375" xlink:href="#BitstreamVeraSans-Roman-35"/>
      </g>
     </g>
    </g>
    <g id="text_38">
     <!-- Number of papers -->
     <defs>
      <path id="BitstreamVeraSans-Roman-20"/>
      <path d="
M9.8125 72.9062
L23.0938 72.9062
L55.4219 11.9219
L55.4219 72.9062
L64.9844 72.9062
L64.9844 0
L51.7031 0
L19.3906 60.9844
L19.3906 0
L9.8125 0
z
" id="BitstreamVeraSans-Roman-4e"/>
      <path d="
M37.1094 75.9844
L37.1094 68.5
L28.5156 68.5
Q23.6875 68.5 21.7969 66.5469
Q19.9219 64.5938 19.9219 59.5156
L19.9219 54.6875
L34.7188 54.6875
L34.7188 47.7031
L19.9219 47.7031
L19.9219 0
L10.8906 0
L10.8906 47.7031
L2.29688 47.7031
L2.29688 54.6875
L10.8906 54.6875
L10.8906 58.5
Q10.8906 67.625 15.1406 71.7969
Q19.3906 75.9844 28.6094 75.9844
z
" id="BitstreamVeraSans-Roman-66"/>
      <path d="
M52 44.1875
Q55.375 50.25 60.0625 53.125
Q64.75 56 71.0938 56
Q79.6406 56 84.2812 50.0156
Q88.9219 44.0469 88.9219 33.0156
L88.9219 0
L79.8906 0
L79.8906 32.7188
Q79.8906 40.5781 77.0938 44.375
Q74.3125 48.1875 68.6094 48.1875
Q61.625 48.1875 57.5625 43.5469
Q53.5156 38.9219 53.5156 30.9062
L53.5156 0
L44.4844 0
L44.4844 32.7188
Q44.4844 40.625 41.7031 44.4062
Q38.9219 48.1875 33.1094 48.1875
Q26.2188 48.1875 22.1562 43.5312
Q18.1094 38.875 18.1094 30.9062
L18.1094 0
L9.07812 0
L9.07812 54.6875
L18.1094 54.6875
L18.1094 46.1875
Q21.1875 51.2188 25.4844 53.6094
Q29.7812 56 35.6875 56
Q41.6562 56 45.8281 52.9688
Q50 49.9531 52 44.1875" id="BitstreamVeraSans-Roman-6d"/>
      <path d="
M30.6094 48.3906
Q23.3906 48.3906 19.1875 42.75
Q14.9844 37.1094 14.9844 27.2969
Q14.9844 17.4844 19.1562 11.8438
Q23.3438 6.20312 30.6094 6.20312
Q37.7969 6.20312 41.9844 11.8594
Q46.1875 17.5312 46.1875 27.2969
Q46.1875 37.0156 41.9844 42.7031
Q37.7969 48.3906 30.6094 48.3906
M30.6094 56
Q42.3281 56 49.0156 48.375
Q55.7188 40.7656 55.7188 27.2969
Q55.7188 13.875 49.0156 6.21875
Q42.3281 -1.42188 30.6094 -1.42188
Q18.8438 -1.42188 12.1719 6.21875
Q5.51562 13.875 5.51562 27.2969
Q5.51562 40.7656 12.1719 48.375
Q18.8438 56 30.6094 56" id="BitstreamVeraSans-Roman-6f"/>
      <path d="
M8.5 21.5781
L8.5 54.6875
L17.4844 54.6875
L17.4844 21.9219
Q17.4844 14.1562 20.5 10.2656
Q23.5312 6.39062 29.5938 6.39062
Q36.8594 6.39062 41.0781 11.0312
Q45.3125 15.6719 45.3125 23.6875
L45.3125 54.6875
L54.2969 54.6875
L54.2969 0
L45.3125 0
L45.3125 8.40625
Q42.0469 3.42188 37.7188 1
Q33.4062 -1.42188 27.6875 -1.42188
Q18.2656 -1.42188 13.375 4.4375
Q8.5 10.2969 8.5 21.5781" id="BitstreamVeraSans-Roman-75"/>
      <path d="
M44.2812 53.0781
L44.2812 44.5781
Q40.4844 46.5312 36.375 47.5
Q32.2812 48.4844 27.875 48.4844
Q21.1875 48.4844 17.8438 46.4375
Q14.5 44.3906 14.5 40.2812
Q14.5 37.1562 16.8906 35.375
Q19.2812 33.5938 26.5156 31.9844
L29.5938 31.2969
Q39.1562 29.25 43.1875 25.5156
Q47.2188 21.7812 47.2188 15.0938
Q47.2188 7.46875 41.1875 3.01562
Q35.1562 -1.42188 24.6094 -1.42188
Q20.2188 -1.42188 15.4531 -0.5625
Q10.6875 0.296875 5.42188 2
L5.42188 11.2812
Q10.4062 8.6875 15.2344 7.39062
Q20.0625 6.10938 24.8125 6.10938
Q31.1562 6.10938 34.5625 8.28125
Q37.9844 10.4531 37.9844 14.4062
Q37.9844 18.0625 35.5156 20.0156
Q33.0625 21.9688 24.7031 23.7812
L21.5781 24.5156
Q13.2344 26.2656 9.51562 29.9062
Q5.8125 33.5469 5.8125 39.8906
Q5.8125 47.6094 11.2812 51.7969
Q16.75 56 26.8125 56
Q31.7812 56 36.1719 55.2656
Q40.5781 54.5469 44.2812 53.0781" id="BitstreamVeraSans-Roman-73"/>
      <path d="
M18.1094 8.20312
L18.1094 -20.7969
L9.07812 -20.7969
L9.07812 54.6875
L18.1094 54.6875
L18.1094 46.3906
Q20.9531 51.2656 25.2656 53.625
Q29.5938 56 35.5938 56
Q45.5625 56 51.7812 48.0938
Q58.0156 40.1875 58.0156 27.2969
Q58.0156 14.4062 51.7812 6.48438
Q45.5625 -1.42188 35.5938 -1.42188
Q29.5938 -1.42188 25.2656 0.953125
Q20.9531 3.32812 18.1094 8.20312
M48.6875 27.2969
Q48.6875 37.2031 44.6094 42.8438
Q40.5312 48.4844 33.4062 48.4844
Q26.2656 48.4844 22.1875 42.8438
Q18.1094 37.2031 18.1094 27.2969
Q18.1094 17.3906 22.1875 11.75
Q26.2656 6.10938 33.4062 6.10938
Q40.5312 6.10938 44.6094 11.75
Q48.6875 17.3906 48.6875 27.2969" id="BitstreamVeraSans-Roman-70"/>
      <path d="
M48.6875 27.2969
Q48.6875 37.2031 44.6094 42.8438
Q40.5312 48.4844 33.4062 48.4844
Q26.2656 48.4844 22.1875 42.8438
Q18.1094 37.2031 18.1094 27.2969
Q18.1094 17.3906 22.1875 11.75
Q26.2656 6.10938 33.4062 6.10938
Q40.5312 6.10938 44.6094 11.75
Q48.6875 17.3906 48.6875 27.2969
M18.1094 46.3906
Q20.9531 51.2656 25.2656 53.625
Q29.5938 56 35.5938 56
Q45.5625 56 51.7812 48.0938
Q58.0156 40.1875 58.0156 27.2969
Q58.0156 14.4062 51.7812 6.48438
Q45.5625 -1.42188 35.5938 -1.42188
Q29.5938 -1.42188 25.2656 0.953125
Q20.9531 3.32812 18.1094 8.20312
L18.1094 0
L9.07812 0
L9.07812 75.9844
L18.1094 75.9844
z
" id="BitstreamVeraSans-Roman-62"/>
     </defs>
     <g transform="translate(12.7978125 249.452869729)rotate(-90.0)scale(0.14 -0.14)">
      <use xlink:href="#BitstreamVeraSans-Roman-4e"/>
      <use x="74.8046875" xlink:href="#BitstreamVeraSans-Roman-75"/>
      <use x="138.18359375" xlink:href="#BitstreamVeraSans-Roman-6d"/>
      <use x="235.595703125" xlink:href="#BitstreamVeraSans-Roman-62"/>
      <use x="299.072265625" xlink:href="#BitstreamVeraSans-Roman-65"/>
      <use x="360.595703125" xlink:href="#BitstreamVeraSans-Roman-72"/>
      <use x="401.708984375" xlink:href="#BitstreamVeraSans-Roman-20"/>
      <use x="433.49609375" xlink:href="#BitstreamVeraSans-Roman-6f"/>
      <use x="494.677734375" xlink:href="#BitstreamVeraSans-Roman-66"/>
      <use x="529.8828125" xlink:href="#BitstreamVeraSans-Roman-20"/>
      <use x="561.669921875" xlink:href="#BitstreamVeraSans-Roman-70"/>
      <use x="625.146484375" xlink:href="#BitstreamVeraSans-Roman-61"/>
      <use x="686.42578125" xlink:href="#BitstreamVeraSans-Roman-70"/>
      <use x="749.90234375" xlink:href="#BitstreamVeraSans-Roman-65"/>
      <use x="811.42578125" xlink:href="#BitstreamVeraSans-Roman-72"/>
      <use x="852.5390625" xlink:href="#BitstreamVeraSans-Roman-73"/>
     </g>
    </g>
   </g>
   <g id="patch_3">
    <path clip-path="url(#pb6b3f76246)" d="
M51.3429 361.162
L62.2306 361.162
L62.2306 359.891
L51.3429 359.891
z
" style="fill:#67a9cf;stroke:#67a9cf;"/>
   </g>
   <g id="patch_4">
    <path clip-path="url(#pb6b3f76246)" d="
M131.009 361.162
L141.896 361.162
L141.896 359.891
L131.009 359.891
z
" style="fill:#67a9cf;stroke:#67a9cf;"/>
   </g>
   <g id="patch_5">
    <path clip-path="url(#pb6b3f76246)" d="
M157.564 361.162
L168.451 361.162
L168.451 359.891
L157.564 359.891
z
" style="fill:#67a9cf;stroke:#67a9cf;"/>
   </g>
   <g id="patch_6">
    <path clip-path="url(#pb6b3f76246)" d="
M184.119 361.162
L195.007 361.162
L195.007 359.891
L184.119 359.891
z
" style="fill:#67a9cf;stroke:#67a9cf;"/>
   </g>
   <g id="patch_7">
    <path clip-path="url(#pb6b3f76246)" d="
M210.674 361.162
L221.562 361.162
L221.562 357.35
L210.674 357.35
z
" style="fill:#67a9cf;stroke:#67a9cf;"/>
   </g>
   <g id="patch_8">
    <path clip-path="url(#pb6b3f76246)" d="
M237.229 361.162
L248.117 361.162
L248.117 358.621
L237.229 358.621
z
" style="fill:#67a9cf;stroke:#67a9cf;"/>
   </g>
   <g id="patch_9">
    <path clip-path="url(#pb6b3f76246)" d="
M263.785 361.162
L274.672 361.162
L274.672 359.891
L263.785 359.891
z
" style="fill:#67a9cf;stroke:#67a9cf;"/>
   </g>
   <g id="patch_10">
    <path clip-path="url(#pb6b3f76246)" d="
M290.34 361.162
L301.227 361.162
L301.227 352.268
L290.34 352.268
z
" style="fill:#67a9cf;stroke:#67a9cf;"/>
   </g>
   <g id="patch_11">
    <path clip-path="url(#pb6b3f76246)" d="
M316.895 361.162
L327.783 361.162
L327.783 352.268
L316.895 352.268
z
" style="fill:#67a9cf;stroke:#67a9cf;"/>
   </g>
   <g id="patch_12">
    <path clip-path="url(#pb6b3f76246)" d="
M343.45 361.162
L354.338 361.162
L354.338 343.375
L343.45 343.375
z
" style="fill:#67a9cf;stroke:#67a9cf;"/>
   </g>
   <g id="patch_13">
    <path clip-path="url(#pb6b3f76246)" d="
M370.005 361.162
L380.893 361.162
L380.893 337.022
L370.005 337.022
z
" style="fill:#67a9cf;stroke:#67a9cf;"/>
   </g>
   <g id="patch_14">
    <path clip-path="url(#pb6b3f76246)" d="
M396.561 361.162
L407.448 361.162
L407.448 330.67
L396.561 330.67
z
" style="fill:#67a9cf;stroke:#67a9cf;"/>
   </g>
   <g id="patch_15">
    <path clip-path="url(#pb6b3f76246)" d="
M423.116 361.162
L434.003 361.162
L434.003 282.391
L423.116 282.391
z
" style="fill:#67a9cf;stroke:#67a9cf;"/>
   </g>
   <g id="patch_16">
    <path clip-path="url(#pb6b3f76246)" d="
M449.671 361.162
L460.559 361.162
L460.559 216.325
L449.671 216.325
z
" style="fill:#67a9cf;stroke:#67a9cf;"/>
   </g>
   <g id="patch_17">
    <path clip-path="url(#pb6b3f76246)" d="
M476.226 361.162
L487.114 361.162
L487.114 222.677
L476.226 222.677
z
" style="fill:#67a9cf;stroke:#67a9cf;"/>
   </g>
   <g id="patch_18">
    <path clip-path="url(#pb6b3f76246)" d="
M502.781 361.162
L513.669 361.162
L513.669 197.267
L502.781 197.267
z
" style="fill:#67a9cf;stroke:#67a9cf;"/>
   </g>
   <g id="patch_19">
    <path clip-path="url(#pb6b3f76246)" d="
M529.336 361.162
L540.224 361.162
L540.224 152.8
L529.336 152.8
z
" style="fill:#67a9cf;stroke:#67a9cf;"/>
   </g>
   <g id="patch_20">
    <path clip-path="url(#pb6b3f76246)" d="
M555.892 361.162
L566.779 361.162
L566.779 81.6521
L555.892 81.6521
z
" style="fill:#67a9cf;stroke:#67a9cf;"/>
   </g>
   <g id="patch_21">
    <path clip-path="url(#pb6b3f76246)" d="
M582.447 361.162
L593.335 361.162
L593.335 74.0291
L582.447 74.0291
z
" style="fill:#67a9cf;stroke:#67a9cf;"/>
   </g>
   <g id="patch_22">
    <path clip-path="url(#pb6b3f76246)" d="
M609.002 361.162
L619.89 361.162
L619.89 131.202
L609.002 131.202
z
" style="fill:#67a9cf;stroke:#67a9cf;"/>
   </g>
   <g id="patch_23">
    <path clip-path="url(#pb6b3f76246)" d="
M635.557 361.162
L646.445 361.162
L646.445 33.3732
L635.557 33.3732
z
" style="fill:#67a9cf;stroke:#67a9cf;"/>
   </g>
   <g id="patch_24">
    <path clip-path="url(#pb6b3f76246)" d="
M662.112 361.162
L673 361.162
L673 100.71
L662.112 100.71
z
" style="fill:#67a9cf;stroke:#67a9cf;"/>
   </g>
   <g id="patch_25">
    <path clip-path="url(#pb6b3f76246)" d="
M222.651 361.162
L233.538 361.162
L233.538 359.891
L222.651 359.891
z
" style="fill:#ff8f83;stroke:#ff8f83;"/>
   </g>
   <g id="patch_26">
    <path clip-path="url(#pb6b3f76246)" d="
M275.761 361.162
L286.649 361.162
L286.649 359.891
L275.761 359.891
z
" style="fill:#ff8f83;stroke:#ff8f83;"/>
   </g>
   <g id="patch_27">
    <path clip-path="url(#pb6b3f76246)" d="
M435.092 361.162
L445.98 361.162
L445.98 357.35
L435.092 357.35
z
" style="fill:#ff8f83;stroke:#ff8f83;"/>
   </g>
   <g id="patch_28">
    <path clip-path="url(#pb6b3f76246)" d="
M461.647 361.162
L472.535 361.162
L472.535 350.998
L461.647 350.998
z
" style="fill:#ff8f83;stroke:#ff8f83;"/>
   </g>
   <g id="patch_29">
    <path clip-path="url(#pb6b3f76246)" d="
M488.202 361.162
L499.09 361.162
L499.09 356.08
L488.202 356.08
z
" style="fill:#ff8f83;stroke:#ff8f83;"/>
   </g>
   <g id="patch_30">
    <path clip-path="url(#pb6b3f76246)" d="
M514.758 361.162
L525.645 361.162
L525.645 356.08
L514.758 356.08
z
" style="fill:#ff8f83;stroke:#ff8f83;"/>
   </g>
   <g id="patch_31">
    <path clip-path="url(#pb6b3f76246)" d="
M541.313 361.162
L552.201 361.162
L552.201 344.645
L541.313 344.645
z
" style="fill:#ff8f83;stroke:#ff8f83;"/>
   </g>
   <g id="patch_32">
    <path clip-path="url(#pb6b3f76246)" d="
M567.868 361.162
L578.756 361.162
L578.756 356.08
L567.868 356.08
z
" style="fill:#ff8f83;stroke:#ff8f83;"/>
   </g>
   <g id="patch_33">
    <path clip-path="url(#pb6b3f76246)" d="
M594.423 361.162
L605.311 361.162
L605.311 352.268
L594.423 352.268
z
" style="fill:#ff8f83;stroke:#ff8f83;"/>
   </g>
   <g id="patch_34">
    <path clip-path="url(#pb6b3f76246)" d="
M620.978 361.162
L631.866 361.162
L631.866 352.268
L620.978 352.268
z
" style="fill:#ff8f83;stroke:#ff8f83;"/>
   </g>
   <g id="patch_35">
    <path clip-path="url(#pb6b3f76246)" d="
M647.534 361.162
L658.421 361.162
L658.421 353.539
L647.534 353.539
z
" style="fill:#ff8f83;stroke:#ff8f83;"/>
   </g>
   <g id="patch_36">
    <path clip-path="url(#pb6b3f76246)" d="
M674.089 361.162
L684.977 361.162
L684.977 354.809
L674.089 354.809
z
" style="fill:#ff8f83;stroke:#ff8f83;"/>
   </g>
   <g id="patch_37">
    <path d="
M40.4553 11.7747
L699.555 11.7747" style="fill:none;"/>
   </g>
   <g id="patch_38">
    <path d="
M699.555 361.162
L699.555 11.7747" style="fill:none;stroke:#efefef;"/>
   </g>
   <g id="patch_39">
    <path d="
M40.4553 361.162
L699.555 361.162" style="fill:none;stroke:#888888;"/>
   </g>
   <g id="patch_40">
    <path d="
M40.4553 361.162
L40.4553 11.7747" style="fill:none;stroke:#888888;"/>
   </g>
   <g id="legend_1">
    <g id="patch_41">
     <path d="
M92.9105 104.818
L271.078 104.818
L271.078 72.4617
L92.9105 72.4617
L92.9105 104.818
z
" style="fill:#ffffff;stroke:#ffffff;"/>
    </g>
    <g id="patch_42">
     <path d="
M96.9105 84.0601
L116.911 84.0601
L116.911 77.0601
L96.9105 77.0601
z
" style="fill:#67a9cf;stroke:#67a9cf;"/>
    </g>
    <g id="text_39">
     <!-- All papers on iris recognition -->
     <defs>
      <path d="
M54.8906 33.0156
L54.8906 0
L45.9062 0
L45.9062 32.7188
Q45.9062 40.4844 42.875 44.3281
Q39.8438 48.1875 33.7969 48.1875
Q26.5156 48.1875 22.3125 43.5469
Q18.1094 38.9219 18.1094 30.9062
L18.1094 0
L9.07812 0
L9.07812 54.6875
L18.1094 54.6875
L18.1094 46.1875
Q21.3438 51.125 25.7031 53.5625
Q30.0781 56 35.7969 56
Q45.2188 56 50.0469 50.1719
Q54.8906 44.3438 54.8906 33.0156" id="BitstreamVeraSans-Roman-6e"/>
      <path d="
M9.42188 75.9844
L18.4062 75.9844
L18.4062 0
L9.42188 0
z
" id="BitstreamVeraSans-Roman-6c"/>
      <path d="
M9.42188 54.6875
L18.4062 54.6875
L18.4062 0
L9.42188 0
z

M9.42188 75.9844
L18.4062 75.9844
L18.4062 64.5938
L9.42188 64.5938
z
" id="BitstreamVeraSans-Roman-69"/>
      <path d="
M34.1875 63.1875
L20.7969 26.9062
L47.6094 26.9062
z

M28.6094 72.9062
L39.7969 72.9062
L67.5781 0
L57.3281 0
L50.6875 18.7031
L17.8281 18.7031
L11.1875 0
L0.78125 0
z
" id="BitstreamVeraSans-Roman-41"/>
      <path d="
M45.4062 27.9844
Q45.4062 37.75 41.375 43.1094
Q37.3594 48.4844 30.0781 48.4844
Q22.8594 48.4844 18.8281 43.1094
Q14.7969 37.75 14.7969 27.9844
Q14.7969 18.2656 18.8281 12.8906
Q22.8594 7.51562 30.0781 7.51562
Q37.3594 7.51562 41.375 12.8906
Q45.4062 18.2656 45.4062 27.9844
M54.3906 6.78125
Q54.3906 -7.17188 48.1875 -13.9844
Q42 -20.7969 29.2031 -20.7969
Q24.4688 -20.7969 20.2656 -20.0938
Q16.0625 -19.3906 12.1094 -17.9219
L12.1094 -9.1875
Q16.0625 -11.3281 19.9219 -12.3438
Q23.7812 -13.375 27.7812 -13.375
Q36.625 -13.375 41.0156 -8.76562
Q45.4062 -4.15625 45.4062 5.17188
L45.4062 9.625
Q42.625 4.78125 38.2812 2.39062
Q33.9375 0 27.875 0
Q17.8281 0 11.6719 7.65625
Q5.51562 15.3281 5.51562 27.9844
Q5.51562 40.6719 11.6719 48.3281
Q17.8281 56 27.875 56
Q33.9375 56 38.2812 53.6094
Q42.625 51.2188 45.4062 46.3906
L45.4062 54.6875
L54.3906 54.6875
z
" id="BitstreamVeraSans-Roman-67"/>
      <path d="
M18.3125 70.2188
L18.3125 54.6875
L36.8125 54.6875
L36.8125 47.7031
L18.3125 47.7031
L18.3125 18.0156
Q18.3125 11.3281 20.1406 9.42188
Q21.9688 7.51562 27.5938 7.51562
L36.8125 7.51562
L36.8125 0
L27.5938 0
Q17.1875 0 13.2344 3.875
Q9.28125 7.76562 9.28125 18.0156
L9.28125 47.7031
L2.6875 47.7031
L2.6875 54.6875
L9.28125 54.6875
L9.28125 70.2188
z
" id="BitstreamVeraSans-Roman-74"/>
      <path d="
M48.7812 52.5938
L48.7812 44.1875
Q44.9688 46.2969 41.1406 47.3438
Q37.3125 48.3906 33.4062 48.3906
Q24.6562 48.3906 19.8125 42.8438
Q14.9844 37.3125 14.9844 27.2969
Q14.9844 17.2812 19.8125 11.7344
Q24.6562 6.20312 33.4062 6.20312
Q37.3125 6.20312 41.1406 7.25
Q44.9688 8.29688 48.7812 10.4062
L48.7812 2.09375
Q45.0156 0.34375 40.9844 -0.53125
Q36.9688 -1.42188 32.4219 -1.42188
Q20.0625 -1.42188 12.7812 6.34375
Q5.51562 14.1094 5.51562 27.2969
Q5.51562 40.6719 12.8594 48.3281
Q20.2188 56 33.0156 56
Q37.1562 56 41.1094 55.1406
Q45.0625 54.2969 48.7812 52.5938" id="BitstreamVeraSans-Roman-63"/>
     </defs>
     <g style="fill:#1a1a1a;" transform="translate(124.9105125 84.0601376809)scale(0.1 -0.1)">
      <use xlink:href="#BitstreamVeraSans-Roman-41"/>
      <use x="68.408203125" xlink:href="#BitstreamVeraSans-Roman-6c"/>
      <use x="96.19140625" xlink:href="#BitstreamVeraSans-Roman-6c"/>
      <use x="123.974609375" xlink:href="#BitstreamVeraSans-Roman-20"/>
      <use x="155.76171875" xlink:href="#BitstreamVeraSans-Roman-70"/>
      <use x="219.23828125" xlink:href="#BitstreamVeraSans-Roman-61"/>
      <use x="280.517578125" xlink:href="#BitstreamVeraSans-Roman-70"/>
      <use x="343.994140625" xlink:href="#BitstreamVeraSans-Roman-65"/>
      <use x="405.517578125" xlink:href="#BitstreamVeraSans-Roman-72"/>
      <use x="446.630859375" xlink:href="#BitstreamVeraSans-Roman-73"/>
      <use x="498.73046875" xlink:href="#BitstreamVeraSans-Roman-20"/>
      <use x="530.517578125" xlink:href="#BitstreamVeraSans-Roman-6f"/>
      <use x="591.69921875" xlink:href="#BitstreamVeraSans-Roman-6e"/>
      <use x="655.078125" xlink:href="#BitstreamVeraSans-Roman-20"/>
      <use x="686.865234375" xlink:href="#BitstreamVeraSans-Roman-69"/>
      <use x="714.6484375" xlink:href="#BitstreamVeraSans-Roman-72"/>
      <use x="755.76171875" xlink:href="#BitstreamVeraSans-Roman-69"/>
      <use x="783.544921875" xlink:href="#BitstreamVeraSans-Roman-73"/>
      <use x="835.64453125" xlink:href="#BitstreamVeraSans-Roman-20"/>
      <use x="867.431640625" xlink:href="#BitstreamVeraSans-Roman-72"/>
      <use x="906.294921875" xlink:href="#BitstreamVeraSans-Roman-65"/>
      <use x="967.818359375" xlink:href="#BitstreamVeraSans-Roman-63"/>
      <use x="1022.79882812" xlink:href="#BitstreamVeraSans-Roman-6f"/>
      <use x="1083.98046875" xlink:href="#BitstreamVeraSans-Roman-67"/>
      <use x="1147.45703125" xlink:href="#BitstreamVeraSans-Roman-6e"/>
      <use x="1210.8359375" xlink:href="#BitstreamVeraSans-Roman-69"/>
      <use x="1238.61914062" xlink:href="#BitstreamVeraSans-Roman-74"/>
      <use x="1277.828125" xlink:href="#BitstreamVeraSans-Roman-69"/>
      <use x="1305.61132812" xlink:href="#BitstreamVeraSans-Roman-6f"/>
      <use x="1366.79296875" xlink:href="#BitstreamVeraSans-Roman-6e"/>
     </g>
    </g>
    <g id="patch_43">
     <path d="
M96.9105 98.7383
L116.911 98.7383
L116.911 91.7383
L96.9105 91.7383
z
" style="fill:#ff8f83;stroke:#ff8f83;"/>
    </g>
    <g id="text_40">
     <!-- Iris acquisition papers -->
     <defs>
      <path d="
M9.8125 72.9062
L19.6719 72.9062
L19.6719 0
L9.8125 0
z
" id="BitstreamVeraSans-Roman-49"/>
      <path d="
M14.7969 27.2969
Q14.7969 17.3906 18.875 11.75
Q22.9531 6.10938 30.0781 6.10938
Q37.2031 6.10938 41.2969 11.75
Q45.4062 17.3906 45.4062 27.2969
Q45.4062 37.2031 41.2969 42.8438
Q37.2031 48.4844 30.0781 48.4844
Q22.9531 48.4844 18.875 42.8438
Q14.7969 37.2031 14.7969 27.2969
M45.4062 8.20312
Q42.5781 3.32812 38.25 0.953125
Q33.9375 -1.42188 27.875 -1.42188
Q17.9688 -1.42188 11.7344 6.48438
Q5.51562 14.4062 5.51562 27.2969
Q5.51562 40.1875 11.7344 48.0938
Q17.9688 56 27.875 56
Q33.9375 56 38.25 53.625
Q42.5781 51.2656 45.4062 46.3906
L45.4062 54.6875
L54.3906 54.6875
L54.3906 -20.7969
L45.4062 -20.7969
z
" id="BitstreamVeraSans-Roman-71"/>
     </defs>
     <g style="fill:#1a1a1a;" transform="translate(124.9105125 98.7382626809)scale(0.1 -0.1)">
      <use xlink:href="#BitstreamVeraSans-Roman-49"/>
      <use x="29.4921875" xlink:href="#BitstreamVeraSans-Roman-72"/>
      <use x="70.60546875" xlink:href="#BitstreamVeraSans-Roman-69"/>
      <use x="98.388671875" xlink:href="#BitstreamVeraSans-Roman-73"/>
      <use x="150.48828125" xlink:href="#BitstreamVeraSans-Roman-20"/>
      <use x="182.275390625" xlink:href="#BitstreamVeraSans-Roman-61"/>
      <use x="243.5546875" xlink:href="#BitstreamVeraSans-Roman-63"/>
      <use x="298.53515625" xlink:href="#BitstreamVeraSans-Roman-71"/>
      <use x="362.01171875" xlink:href="#BitstreamVeraSans-Roman-75"/>
      <use x="425.390625" xlink:href="#BitstreamVeraSans-Roman-69"/>
      <use x="453.173828125" xlink:href="#BitstreamVeraSans-Roman-73"/>
      <use x="505.2734375" xlink:href="#BitstreamVeraSans-Roman-69"/>
      <use x="533.056640625" xlink:href="#BitstreamVeraSans-Roman-74"/>
      <use x="572.265625" xlink:href="#BitstreamVeraSans-Roman-69"/>
      <use x="600.048828125" xlink:href="#BitstreamVeraSans-Roman-6f"/>
      <use x="661.23046875" xlink:href="#BitstreamVeraSans-Roman-6e"/>
      <use x="724.609375" xlink:href="#BitstreamVeraSans-Roman-20"/>
      <use x="756.396484375" xlink:href="#BitstreamVeraSans-Roman-70"/>
      <use x="819.873046875" xlink:href="#BitstreamVeraSans-Roman-61"/>
      <use x="881.15234375" xlink:href="#BitstreamVeraSans-Roman-70"/>
      <use x="944.62890625" xlink:href="#BitstreamVeraSans-Roman-65"/>
      <use x="1006.15234375" xlink:href="#BitstreamVeraSans-Roman-72"/>
      <use x="1047.265625" xlink:href="#BitstreamVeraSans-Roman-73"/>
     </g>
    </g>
   </g>
  </g>
  <g id="text_41">
   <!-- Source: Google scholar -->
   <defs>
    <path d="
M11.7188 12.4062
L22.0156 12.4062
L22.0156 0
L11.7188 0
z

M11.7188 51.7031
L22.0156 51.7031
L22.0156 39.3125
L11.7188 39.3125
z
" id="BitstreamVeraSans-Roman-3a"/>
    <path d="
M59.5156 10.4062
L59.5156 29.9844
L43.4062 29.9844
L43.4062 38.0938
L69.2812 38.0938
L69.2812 6.78125
Q63.5781 2.73438 56.6875 0.65625
Q49.8125 -1.42188 42 -1.42188
Q24.9062 -1.42188 15.25 8.5625
Q5.60938 18.5625 5.60938 36.375
Q5.60938 54.25 15.25 64.2344
Q24.9062 74.2188 42 74.2188
Q49.125 74.2188 55.5469 72.4531
Q61.9688 70.7031 67.3906 67.2812
L67.3906 56.7812
Q61.9219 61.4219 55.7656 63.7656
Q49.6094 66.1094 42.8281 66.1094
Q29.4375 66.1094 22.7188 58.6406
Q16.0156 51.1719 16.0156 36.375
Q16.0156 21.625 22.7188 14.1562
Q29.4375 6.6875 42.8281 6.6875
Q48.0469 6.6875 52.1406 7.59375
Q56.25 8.5 59.5156 10.4062" id="BitstreamVeraSans-Roman-47"/>
    <path d="
M53.5156 70.5156
L53.5156 60.8906
Q47.9062 63.5781 42.9219 64.8906
Q37.9375 66.2188 33.2969 66.2188
Q25.25 66.2188 20.875 63.0938
Q16.5 59.9688 16.5 54.2031
Q16.5 49.3594 19.4062 46.8906
Q22.3125 44.4375 30.4219 42.9219
L36.375 41.7031
Q47.4062 39.5938 52.6562 34.2969
Q57.9062 29 57.9062 20.125
Q57.9062 9.51562 50.7969 4.04688
Q43.7031 -1.42188 29.9844 -1.42188
Q24.8125 -1.42188 18.9688 -0.25
Q13.1406 0.921875 6.89062 3.21875
L6.89062 13.375
Q12.8906 10.0156 18.6562 8.29688
Q24.4219 6.59375 29.9844 6.59375
Q38.4219 6.59375 43.0156 9.90625
Q47.6094 13.2344 47.6094 19.3906
Q47.6094 24.75 44.3125 27.7812
Q41.0156 30.8125 33.5 32.3281
L27.4844 33.5
Q16.4531 35.6875 11.5156 40.375
Q6.59375 45.0625 6.59375 53.4219
Q6.59375 63.0938 13.4062 68.6562
Q20.2188 74.2188 32.1719 74.2188
Q37.3125 74.2188 42.625 73.2812
Q47.9531 72.3594 53.5156 70.5156" id="BitstreamVeraSans-Roman-53"/>
    <path d="
M54.8906 33.0156
L54.8906 0
L45.9062 0
L45.9062 32.7188
Q45.9062 40.4844 42.875 44.3281
Q39.8438 48.1875 33.7969 48.1875
Q26.5156 48.1875 22.3125 43.5469
Q18.1094 38.9219 18.1094 30.9062
L18.1094 0
L9.07812 0
L9.07812 75.9844
L18.1094 75.9844
L18.1094 46.1875
Q21.3438 51.125 25.7031 53.5625
Q30.0781 56 35.7969 56
Q45.2188 56 50.0469 50.1719
Q54.8906 44.3438 54.8906 33.0156" id="BitstreamVeraSans-Roman-68"/>
   </defs>
   <g style="fill:#0d0d0d;" transform="translate(580.7553125 408.2359375)scale(0.1 -0.1)">
    <use xlink:href="#BitstreamVeraSans-Roman-53"/>
    <use x="63.4765625" xlink:href="#BitstreamVeraSans-Roman-6f"/>
    <use x="124.658203125" xlink:href="#BitstreamVeraSans-Roman-75"/>
    <use x="188.037109375" xlink:href="#BitstreamVeraSans-Roman-72"/>
    <use x="226.900390625" xlink:href="#BitstreamVeraSans-Roman-63"/>
    <use x="281.880859375" xlink:href="#BitstreamVeraSans-Roman-65"/>
    <use x="343.404296875" xlink:href="#BitstreamVeraSans-Roman-3a"/>
    <use x="377.095703125" xlink:href="#BitstreamVeraSans-Roman-20"/>
    <use x="408.8828125" xlink:href="#BitstreamVeraSans-Roman-47"/>
    <use x="486.373046875" xlink:href="#BitstreamVeraSans-Roman-6f"/>
    <use x="547.5546875" xlink:href="#BitstreamVeraSans-Roman-6f"/>
    <use x="608.736328125" xlink:href="#BitstreamVeraSans-Roman-67"/>
    <use x="672.212890625" xlink:href="#BitstreamVeraSans-Roman-6c"/>
    <use x="699.99609375" xlink:href="#BitstreamVeraSans-Roman-65"/>
    <use x="761.51953125" xlink:href="#BitstreamVeraSans-Roman-20"/>
    <use x="793.306640625" xlink:href="#BitstreamVeraSans-Roman-73"/>
    <use x="845.40625" xlink:href="#BitstreamVeraSans-Roman-63"/>
    <use x="900.38671875" xlink:href="#BitstreamVeraSans-Roman-68"/>
    <use x="963.765625" xlink:href="#BitstreamVeraSans-Roman-6f"/>
    <use x="1024.94726562" xlink:href="#BitstreamVeraSans-Roman-6c"/>
    <use x="1052.73046875" xlink:href="#BitstreamVeraSans-Roman-61"/>
    <use x="1114.00976562" xlink:href="#BitstreamVeraSans-Roman-72"/>
   </g>
  </g>
 </g>
 <defs>
  <clipPath id="pb6b3f76246">
   <rect height="349.386989458" width="659.1" x="40.4553125" y="11.7746875"/>
  </clipPath>
 </defs>
</svg>
