<?xml version="1.0" encoding="utf-8" standalone="no"?>
<!DOCTYPE svg PUBLIC "-//W3C//DTD SVG 1.1//EN"
  "http://www.w3.org/Graphics/SVG/1.1/DTD/svg11.dtd">
<!-- Created with matplotlib (http://matplotlib.org/) -->
<svg height="414pt" version="1.1" viewBox="0 0 702 414" width="702pt" xmlns="http://www.w3.org/2000/svg" xmlns:xlink="http://www.w3.org/1999/xlink">
 <defs>
  <style type="text/css">
*{stroke-linecap:butt;stroke-linejoin:round;}
  </style>
 </defs>
 <g id="figure_1">
  <g id="patch_1">
   <path d="
M0 414.054
L702.706 414.054
L702.706 0
L0 0
z
" style="fill:#ffffff;"/>
  </g>
  <g id="axes_1">
   <g id="patch_2">
    <path d="
M2.16 361.799
L678.855 361.799
L678.855 6.99906
L2.16 6.99906
z
" style="fill:#ffffff;"/>
   </g>
   <g id="patch_3">
    <path clip-path="url(#pda144e63b7)" d="
M13.3383 361.799
L24.5166 361.799
L24.5166 360.509
L13.3383 360.509
z
" style="fill:#67a9cf;stroke:#67a9cf;"/>
   </g>
   <g id="patch_4">
    <path clip-path="url(#pda144e63b7)" d="
M95.1306 361.799
L106.309 361.799
L106.309 360.509
L95.1306 360.509
z
" style="fill:#67a9cf;stroke:#67a9cf;"/>
   </g>
   <g id="patch_5">
    <path clip-path="url(#pda144e63b7)" d="
M122.395 361.799
L133.573 361.799
L133.573 360.509
L122.395 360.509
z
" style="fill:#67a9cf;stroke:#67a9cf;"/>
   </g>
   <g id="patch_6">
    <path clip-path="url(#pda144e63b7)" d="
M149.659 361.799
L160.837 361.799
L160.837 360.509
L149.659 360.509
z
" style="fill:#67a9cf;stroke:#67a9cf;"/>
   </g>
   <g id="patch_7">
    <path clip-path="url(#pda144e63b7)" d="
M176.923 361.799
L188.101 361.799
L188.101 357.929
L176.923 357.929
z
" style="fill:#67a9cf;stroke:#67a9cf;"/>
   </g>
   <g id="patch_8">
    <path clip-path="url(#pda144e63b7)" d="
M204.187 361.799
L215.365 361.799
L215.365 359.219
L204.187 359.219
z
" style="fill:#67a9cf;stroke:#67a9cf;"/>
   </g>
   <g id="patch_9">
    <path clip-path="url(#pda144e63b7)" d="
M231.451 361.799
L242.629 361.799
L242.629 360.509
L231.451 360.509
z
" style="fill:#67a9cf;stroke:#67a9cf;"/>
   </g>
   <g id="patch_10">
    <path clip-path="url(#pda144e63b7)" d="
M258.715 361.799
L269.894 361.799
L269.894 352.768
L258.715 352.768
z
" style="fill:#67a9cf;stroke:#67a9cf;"/>
   </g>
   <g id="patch_11">
    <path clip-path="url(#pda144e63b7)" d="
M285.979 361.799
L297.158 361.799
L297.158 352.768
L285.979 352.768
z
" style="fill:#67a9cf;stroke:#67a9cf;"/>
   </g>
   <g id="patch_12">
    <path clip-path="url(#pda144e63b7)" d="
M313.244 361.799
L324.422 361.799
L324.422 343.737
L313.244 343.737
z
" style="fill:#67a9cf;stroke:#67a9cf;"/>
   </g>
   <g id="patch_13">
    <path clip-path="url(#pda144e63b7)" d="
M340.508 361.799
L351.686 361.799
L351.686 337.286
L340.508 337.286
z
" style="fill:#67a9cf;stroke:#67a9cf;"/>
   </g>
   <g id="patch_14">
    <path clip-path="url(#pda144e63b7)" d="
M367.772 361.799
L378.95 361.799
L378.95 330.835
L367.772 330.835
z
" style="fill:#67a9cf;stroke:#67a9cf;"/>
   </g>
   <g id="patch_15">
    <path clip-path="url(#pda144e63b7)" d="
M395.036 361.799
L406.214 361.799
L406.214 281.808
L395.036 281.808
z
" style="fill:#67a9cf;stroke:#67a9cf;"/>
   </g>
   <g id="patch_16">
    <path clip-path="url(#pda144e63b7)" d="
M422.3 361.799
L433.478 361.799
L433.478 214.718
L422.3 214.718
z
" style="fill:#67a9cf;stroke:#67a9cf;"/>
   </g>
   <g id="patch_17">
    <path clip-path="url(#pda144e63b7)" d="
M449.564 361.799
L460.742 361.799
L460.742 221.169
L449.564 221.169
z
" style="fill:#67a9cf;stroke:#67a9cf;"/>
   </g>
   <g id="patch_18">
    <path clip-path="url(#pda144e63b7)" d="
M476.828 361.799
L488.007 361.799
L488.007 195.366
L476.828 195.366
z
" style="fill:#67a9cf;stroke:#67a9cf;"/>
   </g>
   <g id="patch_19">
    <path clip-path="url(#pda144e63b7)" d="
M504.092 361.799
L515.271 361.799
L515.271 150.209
L504.092 150.209
z
" style="fill:#67a9cf;stroke:#67a9cf;"/>
   </g>
   <g id="patch_20">
    <path clip-path="url(#pda144e63b7)" d="
M531.356 361.799
L542.535 361.799
L542.535 77.9591
L531.356 77.9591
z
" style="fill:#67a9cf;stroke:#67a9cf;"/>
   </g>
   <g id="patch_21">
    <path clip-path="url(#pda144e63b7)" d="
M558.621 361.799
L569.799 361.799
L569.799 70.218
L558.621 70.218
z
" style="fill:#67a9cf;stroke:#67a9cf;"/>
   </g>
   <g id="patch_22">
    <path clip-path="url(#pda144e63b7)" d="
M585.885 361.799
L597.063 361.799
L597.063 117.955
L585.885 117.955
z
" style="fill:#67a9cf;stroke:#67a9cf;"/>
   </g>
   <g id="patch_23">
    <path clip-path="url(#pda144e63b7)" d="
M613.149 361.799
L624.327 361.799
L624.327 23.7714
L613.149 23.7714
z
" style="fill:#67a9cf;stroke:#67a9cf;"/>
   </g>
   <g id="patch_24">
    <path clip-path="url(#pda144e63b7)" d="
M640.413 361.799
L651.591 361.799
L651.591 75.3787
L640.413 75.3787
z
" style="fill:#67a9cf;stroke:#67a9cf;"/>
   </g>
   <g id="patch_25">
    <path clip-path="url(#pda144e63b7)" d="
M189.219 361.799
L200.397 361.799
L200.397 360.509
L189.219 360.509
z
" style="fill:#ff8f83;stroke:#ff8f83;"/>
   </g>
   <g id="patch_26">
    <path clip-path="url(#pda144e63b7)" d="
M243.747 361.799
L254.926 361.799
L254.926 360.509
L243.747 360.509
z
" style="fill:#ff8f83;stroke:#ff8f83;"/>
   </g>
   <g id="patch_27">
    <path clip-path="url(#pda144e63b7)" d="
M380.068 361.799
L391.246 361.799
L391.246 359.219
L380.068 359.219
z
" style="fill:#ff8f83;stroke:#ff8f83;"/>
   </g>
   <g id="patch_28">
    <path clip-path="url(#pda144e63b7)" d="
M407.332 361.799
L418.51 361.799
L418.51 355.348
L407.332 355.348
z
" style="fill:#ff8f83;stroke:#ff8f83;"/>
   </g>
   <g id="patch_29">
    <path clip-path="url(#pda144e63b7)" d="
M434.596 361.799
L445.774 361.799
L445.774 343.737
L434.596 343.737
z
" style="fill:#ff8f83;stroke:#ff8f83;"/>
   </g>
   <g id="patch_30">
    <path clip-path="url(#pda144e63b7)" d="
M461.86 361.799
L473.039 361.799
L473.039 354.058
L461.86 354.058
z
" style="fill:#ff8f83;stroke:#ff8f83;"/>
   </g>
   <g id="patch_31">
    <path clip-path="url(#pda144e63b7)" d="
M489.124 361.799
L500.303 361.799
L500.303 352.768
L489.124 352.768
z
" style="fill:#ff8f83;stroke:#ff8f83;"/>
   </g>
   <g id="patch_32">
    <path clip-path="url(#pda144e63b7)" d="
M516.388 361.799
L527.567 361.799
L527.567 341.156
L516.388 341.156
z
" style="fill:#ff8f83;stroke:#ff8f83;"/>
   </g>
   <g id="patch_33">
    <path clip-path="url(#pda144e63b7)" d="
M543.653 361.799
L554.831 361.799
L554.831 355.348
L543.653 355.348
z
" style="fill:#ff8f83;stroke:#ff8f83;"/>
   </g>
   <g id="patch_34">
    <path clip-path="url(#pda144e63b7)" d="
M570.917 361.799
L582.095 361.799
L582.095 348.897
L570.917 348.897
z
" style="fill:#ff8f83;stroke:#ff8f83;"/>
   </g>
   <g id="patch_35">
    <path clip-path="url(#pda144e63b7)" d="
M598.181 361.799
L609.359 361.799
L609.359 350.187
L598.181 350.187
z
" style="fill:#ff8f83;stroke:#ff8f83;"/>
   </g>
   <g id="patch_36">
    <path clip-path="url(#pda144e63b7)" d="
M625.445 361.799
L636.623 361.799
L636.623 352.768
L625.445 352.768
z
" style="fill:#ff8f83;stroke:#ff8f83;"/>
   </g>
   <g id="patch_37">
    <path clip-path="url(#pda144e63b7)" d="
M652.709 361.799
L663.887 361.799
L663.887 355.348
L652.709 355.348
z
" style="fill:#ff8f83;stroke:#ff8f83;"/>
   </g>
   <g id="matplotlib.axis_1">
    <g id="xtick_1">
     <g id="line2d_1">
      <defs>
       <path d="
M0 0
L0 4" id="md11e513213" style="stroke:#111111;stroke-width:0.5;"/>
      </defs>
      <g>
       <use style="fill:#111111;stroke:#111111;stroke-width:0.5;" x="24.5165735798" xlink:href="#md11e513213" y="361.7990625"/>
      </g>
     </g>
     <g id="text_1">
      <!-- 90 -->
      <defs>
       <path d="
M31.7812 66.4062
Q24.1719 66.4062 20.3281 58.9062
Q16.5 51.4219 16.5 36.375
Q16.5 21.3906 20.3281 13.8906
Q24.1719 6.39062 31.7812 6.39062
Q39.4531 6.39062 43.2812 13.8906
Q47.125 21.3906 47.125 36.375
Q47.125 51.4219 43.2812 58.9062
Q39.4531 66.4062 31.7812 66.4062
M31.7812 74.2188
Q44.0469 74.2188 50.5156 64.5156
Q56.9844 54.8281 56.9844 36.375
Q56.9844 17.9688 50.5156 8.26562
Q44.0469 -1.42188 31.7812 -1.42188
Q19.5312 -1.42188 13.0625 8.26562
Q6.59375 17.9688 6.59375 36.375
Q6.59375 54.8281 13.0625 64.5156
Q19.5312 74.2188 31.7812 74.2188" id="BitstreamVeraSans-Roman-30"/>
       <path d="
M10.9844 1.51562
L10.9844 10.5
Q14.7031 8.73438 18.5 7.8125
Q22.3125 6.89062 25.9844 6.89062
Q35.75 6.89062 40.8906 13.4531
Q46.0469 20.0156 46.7812 33.4062
Q43.9531 29.2031 39.5938 26.9531
Q35.25 24.7031 29.9844 24.7031
Q19.0469 24.7031 12.6719 31.3125
Q6.29688 37.9375 6.29688 49.4219
Q6.29688 60.6406 12.9375 67.4219
Q19.5781 74.2188 30.6094 74.2188
Q43.2656 74.2188 49.9219 64.5156
Q56.5938 54.8281 56.5938 36.375
Q56.5938 19.1406 48.4062 8.85938
Q40.2344 -1.42188 26.4219 -1.42188
Q22.7031 -1.42188 18.8906 -0.6875
Q15.0938 0.046875 10.9844 1.51562
M30.6094 32.4219
Q37.25 32.4219 41.125 36.9531
Q45.0156 41.5 45.0156 49.4219
Q45.0156 57.2812 41.125 61.8438
Q37.25 66.4062 30.6094 66.4062
Q23.9688 66.4062 20.0938 61.8438
Q16.2188 57.2812 16.2188 49.4219
Q16.2188 41.5 20.0938 36.9531
Q23.9688 32.4219 30.6094 32.4219" id="BitstreamVeraSans-Roman-39"/>
      </defs>
      <g transform="translate(18.2293860798 376.05734375)scale(0.11 -0.11)">
       <use xlink:href="#BitstreamVeraSans-Roman-39"/>
       <use x="63.623046875" xlink:href="#BitstreamVeraSans-Roman-30"/>
      </g>
     </g>
    </g>
    <g id="xtick_2">
     <g id="line2d_2">
      <g>
       <use style="fill:#111111;stroke:#111111;stroke-width:0.5;" x="51.7806877015" xlink:href="#md11e513213" y="361.7990625"/>
      </g>
     </g>
     <g id="text_2">
      <!-- 91 -->
      <defs>
       <path d="
M12.4062 8.29688
L28.5156 8.29688
L28.5156 63.9219
L10.9844 60.4062
L10.9844 69.3906
L28.4219 72.9062
L38.2812 72.9062
L38.2812 8.29688
L54.3906 8.29688
L54.3906 0
L12.4062 0
z
" id="BitstreamVeraSans-Roman-31"/>
      </defs>
      <g transform="translate(45.6361564515 376.05734375)scale(0.11 -0.11)">
       <use xlink:href="#BitstreamVeraSans-Roman-39"/>
       <use x="63.623046875" xlink:href="#BitstreamVeraSans-Roman-31"/>
      </g>
     </g>
    </g>
    <g id="xtick_3">
     <g id="line2d_3">
      <g>
       <use style="fill:#111111;stroke:#111111;stroke-width:0.5;" x="79.0448018231" xlink:href="#md11e513213" y="361.7990625"/>
      </g>
     </g>
     <g id="text_3">
      <!-- 92 -->
      <defs>
       <path d="
M19.1875 8.29688
L53.6094 8.29688
L53.6094 0
L7.32812 0
L7.32812 8.29688
Q12.9375 14.1094 22.625 23.8906
Q32.3281 33.6875 34.8125 36.5312
Q39.5469 41.8438 41.4219 45.5312
Q43.3125 49.2188 43.3125 52.7812
Q43.3125 58.5938 39.2344 62.25
Q35.1562 65.9219 28.6094 65.9219
Q23.9688 65.9219 18.8125 64.3125
Q13.6719 62.7031 7.8125 59.4219
L7.8125 69.3906
Q13.7656 71.7812 18.9375 73
Q24.125 74.2188 28.4219 74.2188
Q39.75 74.2188 46.4844 68.5469
Q53.2188 62.8906 53.2188 53.4219
Q53.2188 48.9219 51.5312 44.8906
Q49.8594 40.875 45.4062 35.4062
Q44.1875 33.9844 37.6406 27.2188
Q31.1094 20.4531 19.1875 8.29688" id="BitstreamVeraSans-Roman-32"/>
      </defs>
      <g transform="translate(72.9432393231 376.05734375)scale(0.11 -0.11)">
       <use xlink:href="#BitstreamVeraSans-Roman-39"/>
       <use x="63.623046875" xlink:href="#BitstreamVeraSans-Roman-32"/>
      </g>
     </g>
    </g>
    <g id="xtick_4">
     <g id="line2d_4">
      <g>
       <use style="fill:#111111;stroke:#111111;stroke-width:0.5;" x="106.308915945" xlink:href="#md11e513213" y="361.7990625"/>
      </g>
     </g>
     <g id="text_4">
      <!-- 93 -->
      <defs>
       <path d="
M40.5781 39.3125
Q47.6562 37.7969 51.625 33
Q55.6094 28.2188 55.6094 21.1875
Q55.6094 10.4062 48.1875 4.48438
Q40.7656 -1.42188 27.0938 -1.42188
Q22.5156 -1.42188 17.6562 -0.515625
Q12.7969 0.390625 7.625 2.20312
L7.625 11.7188
Q11.7188 9.32812 16.5938 8.10938
Q21.4844 6.89062 26.8125 6.89062
Q36.0781 6.89062 40.9375 10.5469
Q45.7969 14.2031 45.7969 21.1875
Q45.7969 27.6406 41.2812 31.2656
Q36.7656 34.9062 28.7188 34.9062
L20.2188 34.9062
L20.2188 43.0156
L29.1094 43.0156
Q36.375 43.0156 40.2344 45.9219
Q44.0938 48.8281 44.0938 54.2969
Q44.0938 59.9062 40.1094 62.9062
Q36.1406 65.9219 28.7188 65.9219
Q24.6562 65.9219 20.0156 65.0312
Q15.375 64.1562 9.8125 62.3125
L9.8125 71.0938
Q15.4375 72.6562 20.3438 73.4375
Q25.25 74.2188 29.5938 74.2188
Q40.8281 74.2188 47.3594 69.1094
Q53.9062 64.0156 53.9062 55.3281
Q53.9062 49.2656 50.4375 45.0938
Q46.9688 40.9219 40.5781 39.3125" id="BitstreamVeraSans-Roman-33"/>
      </defs>
      <g transform="translate(100.097353445 376.05734375)scale(0.11 -0.11)">
       <use xlink:href="#BitstreamVeraSans-Roman-39"/>
       <use x="63.623046875" xlink:href="#BitstreamVeraSans-Roman-33"/>
      </g>
     </g>
    </g>
    <g id="xtick_5">
     <g id="line2d_5">
      <g>
       <use style="fill:#111111;stroke:#111111;stroke-width:0.5;" x="133.573030066" xlink:href="#md11e513213" y="361.7990625"/>
      </g>
     </g>
     <g id="text_5">
      <!-- 94 -->
      <defs>
       <path d="
M37.7969 64.3125
L12.8906 25.3906
L37.7969 25.3906
z

M35.2031 72.9062
L47.6094 72.9062
L47.6094 25.3906
L58.0156 25.3906
L58.0156 17.1875
L47.6094 17.1875
L47.6094 0
L37.7969 0
L37.7969 17.1875
L4.89062 17.1875
L4.89062 26.7031
z
" id="BitstreamVeraSans-Roman-34"/>
      </defs>
      <g transform="translate(127.229123816 376.05734375)scale(0.11 -0.11)">
       <use xlink:href="#BitstreamVeraSans-Roman-39"/>
       <use x="63.623046875" xlink:href="#BitstreamVeraSans-Roman-34"/>
      </g>
     </g>
    </g>
    <g id="xtick_6">
     <g id="line2d_6">
      <g>
       <use style="fill:#111111;stroke:#111111;stroke-width:0.5;" x="160.837144188" xlink:href="#md11e513213" y="361.7990625"/>
      </g>
     </g>
     <g id="text_6">
      <!-- 95 -->
      <defs>
       <path d="
M10.7969 72.9062
L49.5156 72.9062
L49.5156 64.5938
L19.8281 64.5938
L19.8281 46.7344
Q21.9688 47.4688 24.1094 47.8281
Q26.2656 48.1875 28.4219 48.1875
Q40.625 48.1875 47.75 41.5
Q54.8906 34.8125 54.8906 23.3906
Q54.8906 11.625 47.5625 5.09375
Q40.2344 -1.42188 26.9062 -1.42188
Q22.3125 -1.42188 17.5469 -0.640625
Q12.7969 0.140625 7.71875 1.70312
L7.71875 11.625
Q12.1094 9.23438 16.7969 8.0625
Q21.4844 6.89062 26.7031 6.89062
Q35.1562 6.89062 40.0781 11.3281
Q45.0156 15.7656 45.0156 23.3906
Q45.0156 31 40.0781 35.4375
Q35.1562 39.8906 26.7031 39.8906
Q22.75 39.8906 18.8125 39.0156
Q14.8906 38.1406 10.7969 36.2812
z
" id="BitstreamVeraSans-Roman-35"/>
      </defs>
      <g transform="translate(154.665112938 376.05734375)scale(0.11 -0.11)">
       <use xlink:href="#BitstreamVeraSans-Roman-39"/>
       <use x="63.623046875" xlink:href="#BitstreamVeraSans-Roman-35"/>
      </g>
     </g>
    </g>
    <g id="xtick_7">
     <g id="line2d_7">
      <g>
       <use style="fill:#111111;stroke:#111111;stroke-width:0.5;" x="188.10125831" xlink:href="#md11e513213" y="361.7990625"/>
      </g>
     </g>
     <g id="text_7">
      <!-- 96 -->
      <defs>
       <path d="
M33.0156 40.375
Q26.375 40.375 22.4844 35.8281
Q18.6094 31.2969 18.6094 23.3906
Q18.6094 15.5312 22.4844 10.9531
Q26.375 6.39062 33.0156 6.39062
Q39.6562 6.39062 43.5312 10.9531
Q47.4062 15.5312 47.4062 23.3906
Q47.4062 31.2969 43.5312 35.8281
Q39.6562 40.375 33.0156 40.375
M52.5938 71.2969
L52.5938 62.3125
Q48.875 64.0625 45.0938 64.9844
Q41.3125 65.9219 37.5938 65.9219
Q27.8281 65.9219 22.6719 59.3281
Q17.5312 52.7344 16.7969 39.4062
Q19.6719 43.6562 24.0156 45.9219
Q28.375 48.1875 33.5938 48.1875
Q44.5781 48.1875 50.9531 41.5156
Q57.3281 34.8594 57.3281 23.3906
Q57.3281 12.1562 50.6875 5.35938
Q44.0469 -1.42188 33.0156 -1.42188
Q20.3594 -1.42188 13.6719 8.26562
Q6.98438 17.9688 6.98438 36.375
Q6.98438 53.6562 15.1875 63.9375
Q23.3906 74.2188 37.2031 74.2188
Q40.9219 74.2188 44.7031 73.4844
Q48.4844 72.75 52.5938 71.2969" id="BitstreamVeraSans-Roman-36"/>
      </defs>
      <g transform="translate(181.79516456 376.05734375)scale(0.11 -0.11)">
       <use xlink:href="#BitstreamVeraSans-Roman-39"/>
       <use x="63.623046875" xlink:href="#BitstreamVeraSans-Roman-36"/>
      </g>
     </g>
    </g>
    <g id="xtick_8">
     <g id="line2d_8">
      <g>
       <use style="fill:#111111;stroke:#111111;stroke-width:0.5;" x="215.365372432" xlink:href="#md11e513213" y="361.7990625"/>
      </g>
     </g>
     <g id="text_8">
      <!-- 97 -->
      <defs>
       <path d="
M8.20312 72.9062
L55.0781 72.9062
L55.0781 68.7031
L28.6094 0
L18.3125 0
L43.2188 64.5938
L8.20312 64.5938
z
" id="BitstreamVeraSans-Roman-37"/>
      </defs>
      <g transform="translate(209.183028682 376.05734375)scale(0.11 -0.11)">
       <use xlink:href="#BitstreamVeraSans-Roman-39"/>
       <use x="63.623046875" xlink:href="#BitstreamVeraSans-Roman-37"/>
      </g>
     </g>
    </g>
    <g id="xtick_9">
     <g id="line2d_9">
      <g>
       <use style="fill:#111111;stroke:#111111;stroke-width:0.5;" x="242.629486553" xlink:href="#md11e513213" y="361.7990625"/>
      </g>
     </g>
     <g id="text_9">
      <!-- 98 -->
      <defs>
       <path d="
M31.7812 34.625
Q24.75 34.625 20.7188 30.8594
Q16.7031 27.0938 16.7031 20.5156
Q16.7031 13.9219 20.7188 10.1562
Q24.75 6.39062 31.7812 6.39062
Q38.8125 6.39062 42.8594 10.1719
Q46.9219 13.9688 46.9219 20.5156
Q46.9219 27.0938 42.8906 30.8594
Q38.875 34.625 31.7812 34.625
M21.9219 38.8125
Q15.5781 40.375 12.0312 44.7188
Q8.5 49.0781 8.5 55.3281
Q8.5 64.0625 14.7188 69.1406
Q20.9531 74.2188 31.7812 74.2188
Q42.6719 74.2188 48.875 69.1406
Q55.0781 64.0625 55.0781 55.3281
Q55.0781 49.0781 51.5312 44.7188
Q48 40.375 41.7031 38.8125
Q48.8281 37.1562 52.7969 32.3125
Q56.7812 27.4844 56.7812 20.5156
Q56.7812 9.90625 50.3125 4.23438
Q43.8438 -1.42188 31.7812 -1.42188
Q19.7344 -1.42188 13.25 4.23438
Q6.78125 9.90625 6.78125 20.5156
Q6.78125 27.4844 10.7812 32.3125
Q14.7969 37.1562 21.9219 38.8125
M18.3125 54.3906
Q18.3125 48.7344 21.8438 45.5625
Q25.3906 42.3906 31.7812 42.3906
Q38.1406 42.3906 41.7188 45.5625
Q45.3125 48.7344 45.3125 54.3906
Q45.3125 60.0625 41.7188 63.2344
Q38.1406 66.4062 31.7812 66.4062
Q25.3906 66.4062 21.8438 63.2344
Q18.3125 60.0625 18.3125 54.3906" id="BitstreamVeraSans-Roman-38"/>
      </defs>
      <g transform="translate(236.353470928 376.05734375)scale(0.11 -0.11)">
       <use xlink:href="#BitstreamVeraSans-Roman-39"/>
       <use x="63.623046875" xlink:href="#BitstreamVeraSans-Roman-38"/>
      </g>
     </g>
    </g>
    <g id="xtick_10">
     <g id="line2d_10">
      <g>
       <use style="fill:#111111;stroke:#111111;stroke-width:0.5;" x="269.893600675" xlink:href="#md11e513213" y="361.7990625"/>
      </g>
     </g>
     <g id="text_10">
      <!-- 99 -->
      <g transform="translate(263.62789755 376.05734375)scale(0.11 -0.11)">
       <use xlink:href="#BitstreamVeraSans-Roman-39"/>
       <use x="63.623046875" xlink:href="#BitstreamVeraSans-Roman-39"/>
      </g>
     </g>
    </g>
    <g id="xtick_11">
     <g id="line2d_11">
      <g>
       <use style="fill:#111111;stroke:#111111;stroke-width:0.5;" x="297.157714797" xlink:href="#md11e513213" y="361.7990625"/>
      </g>
     </g>
     <g id="text_11">
      <!-- 00 -->
      <g transform="translate(290.886855422 376.05734375)scale(0.11 -0.11)">
       <use xlink:href="#BitstreamVeraSans-Roman-30"/>
       <use x="63.623046875" xlink:href="#BitstreamVeraSans-Roman-30"/>
      </g>
     </g>
    </g>
    <g id="xtick_12">
     <g id="line2d_12">
      <g>
       <use style="fill:#111111;stroke:#111111;stroke-width:0.5;" x="324.421828918" xlink:href="#md11e513213" y="361.7990625"/>
      </g>
     </g>
     <g id="text_12">
      <!-- 01 -->
      <g transform="translate(318.293625793 376.05734375)scale(0.11 -0.11)">
       <use xlink:href="#BitstreamVeraSans-Roman-30"/>
       <use x="63.623046875" xlink:href="#BitstreamVeraSans-Roman-31"/>
      </g>
     </g>
    </g>
    <g id="xtick_13">
     <g id="line2d_13">
      <g>
       <use style="fill:#111111;stroke:#111111;stroke-width:0.5;" x="351.68594304" xlink:href="#md11e513213" y="361.7990625"/>
      </g>
     </g>
     <g id="text_13">
      <!-- 02 -->
      <g transform="translate(345.600708665 376.05734375)scale(0.11 -0.11)">
       <use xlink:href="#BitstreamVeraSans-Roman-30"/>
       <use x="63.623046875" xlink:href="#BitstreamVeraSans-Roman-32"/>
      </g>
     </g>
    </g>
    <g id="xtick_14">
     <g id="line2d_14">
      <g>
       <use style="fill:#111111;stroke:#111111;stroke-width:0.5;" x="378.950057162" xlink:href="#md11e513213" y="361.7990625"/>
      </g>
     </g>
     <g id="text_14">
      <!-- 03 -->
      <g transform="translate(372.754822787 376.05734375)scale(0.11 -0.11)">
       <use xlink:href="#BitstreamVeraSans-Roman-30"/>
       <use x="63.623046875" xlink:href="#BitstreamVeraSans-Roman-33"/>
      </g>
     </g>
    </g>
    <g id="xtick_15">
     <g id="line2d_15">
      <g>
       <use style="fill:#111111;stroke:#111111;stroke-width:0.5;" x="406.214171283" xlink:href="#md11e513213" y="361.7990625"/>
      </g>
     </g>
     <g id="text_15">
      <!-- 04 -->
      <g transform="translate(399.886593158 376.05734375)scale(0.11 -0.11)">
       <use xlink:href="#BitstreamVeraSans-Roman-30"/>
       <use x="63.623046875" xlink:href="#BitstreamVeraSans-Roman-34"/>
      </g>
     </g>
    </g>
    <g id="xtick_16">
     <g id="line2d_16">
      <g>
       <use style="fill:#111111;stroke:#111111;stroke-width:0.5;" x="433.478285405" xlink:href="#md11e513213" y="361.7990625"/>
      </g>
     </g>
     <g id="text_16">
      <!-- 05 -->
      <g transform="translate(427.32258228 376.05734375)scale(0.11 -0.11)">
       <use xlink:href="#BitstreamVeraSans-Roman-30"/>
       <use x="63.623046875" xlink:href="#BitstreamVeraSans-Roman-35"/>
      </g>
     </g>
    </g>
    <g id="xtick_17">
     <g id="line2d_17">
      <g>
       <use style="fill:#111111;stroke:#111111;stroke-width:0.5;" x="460.742399527" xlink:href="#md11e513213" y="361.7990625"/>
      </g>
     </g>
     <g id="text_17">
      <!-- 06 -->
      <g transform="translate(454.452633902 376.05734375)scale(0.11 -0.11)">
       <use xlink:href="#BitstreamVeraSans-Roman-30"/>
       <use x="63.623046875" xlink:href="#BitstreamVeraSans-Roman-36"/>
      </g>
     </g>
    </g>
    <g id="xtick_18">
     <g id="line2d_18">
      <g>
       <use style="fill:#111111;stroke:#111111;stroke-width:0.5;" x="488.006513648" xlink:href="#md11e513213" y="361.7990625"/>
      </g>
     </g>
     <g id="text_18">
      <!-- 07 -->
      <g transform="translate(481.840498023 376.05734375)scale(0.11 -0.11)">
       <use xlink:href="#BitstreamVeraSans-Roman-30"/>
       <use x="63.623046875" xlink:href="#BitstreamVeraSans-Roman-37"/>
      </g>
     </g>
    </g>
    <g id="xtick_19">
     <g id="line2d_19">
      <g>
       <use style="fill:#111111;stroke:#111111;stroke-width:0.5;" x="515.27062777" xlink:href="#md11e513213" y="361.7990625"/>
      </g>
     </g>
     <g id="text_19">
      <!-- 08 -->
      <g transform="translate(509.01094027 376.05734375)scale(0.11 -0.11)">
       <use xlink:href="#BitstreamVeraSans-Roman-30"/>
       <use x="63.623046875" xlink:href="#BitstreamVeraSans-Roman-38"/>
      </g>
     </g>
    </g>
    <g id="xtick_20">
     <g id="line2d_20">
      <g>
       <use style="fill:#111111;stroke:#111111;stroke-width:0.5;" x="542.534741892" xlink:href="#md11e513213" y="361.7990625"/>
      </g>
     </g>
     <g id="text_20">
      <!-- 09 -->
      <g transform="translate(536.285366892 376.05734375)scale(0.11 -0.11)">
       <use xlink:href="#BitstreamVeraSans-Roman-30"/>
       <use x="63.623046875" xlink:href="#BitstreamVeraSans-Roman-39"/>
      </g>
     </g>
    </g>
    <g id="xtick_21">
     <g id="line2d_21">
      <g>
       <use style="fill:#111111;stroke:#111111;stroke-width:0.5;" x="569.798856013" xlink:href="#md11e513213" y="361.7990625"/>
      </g>
     </g>
     <g id="text_21">
      <!-- 10 -->
      <g transform="translate(563.769481013 376.05734375)scale(0.11 -0.11)">
       <use xlink:href="#BitstreamVeraSans-Roman-31"/>
       <use x="63.623046875" xlink:href="#BitstreamVeraSans-Roman-30"/>
      </g>
     </g>
    </g>
    <g id="xtick_22">
     <g id="line2d_22">
      <g>
       <use style="fill:#111111;stroke:#111111;stroke-width:0.5;" x="597.062970135" xlink:href="#md11e513213" y="361.7990625"/>
      </g>
     </g>
     <g id="text_22">
      <!-- 11 -->
      <g transform="translate(591.176251385 376.05734375)scale(0.11 -0.11)">
       <use xlink:href="#BitstreamVeraSans-Roman-31"/>
       <use x="63.623046875" xlink:href="#BitstreamVeraSans-Roman-31"/>
      </g>
     </g>
    </g>
    <g id="xtick_23">
     <g id="line2d_23">
      <g>
       <use style="fill:#111111;stroke:#111111;stroke-width:0.5;" x="624.327084257" xlink:href="#md11e513213" y="361.7990625"/>
      </g>
     </g>
     <g id="text_23">
      <!-- 12 -->
      <g transform="translate(618.483334257 376.05734375)scale(0.11 -0.11)">
       <use xlink:href="#BitstreamVeraSans-Roman-31"/>
       <use x="63.623046875" xlink:href="#BitstreamVeraSans-Roman-32"/>
      </g>
     </g>
    </g>
    <g id="xtick_24">
     <g id="line2d_24">
      <g>
       <use style="fill:#111111;stroke:#111111;stroke-width:0.5;" x="651.591198378" xlink:href="#md11e513213" y="361.7990625"/>
      </g>
     </g>
     <g id="text_24">
      <!-- 13 -->
      <g transform="translate(645.637448378 376.05734375)scale(0.11 -0.11)">
       <use xlink:href="#BitstreamVeraSans-Roman-31"/>
       <use x="63.623046875" xlink:href="#BitstreamVeraSans-Roman-33"/>
      </g>
     </g>
    </g>
    <g id="text_25">
     <!-- Year -->
     <defs>
      <path d="
M56.2031 29.5938
L56.2031 25.2031
L14.8906 25.2031
Q15.4844 15.9219 20.4844 11.0625
Q25.4844 6.20312 34.4219 6.20312
Q39.5938 6.20312 44.4531 7.46875
Q49.3125 8.73438 54.1094 11.2812
L54.1094 2.78125
Q49.2656 0.734375 44.1875 -0.34375
Q39.1094 -1.42188 33.8906 -1.42188
Q20.7969 -1.42188 13.1562 6.1875
Q5.51562 13.8125 5.51562 26.8125
Q5.51562 40.2344 12.7656 48.1094
Q20.0156 56 32.3281 56
Q43.3594 56 49.7812 48.8906
Q56.2031 41.7969 56.2031 29.5938
M47.2188 32.2344
Q47.125 39.5938 43.0938 43.9844
Q39.0625 48.3906 32.4219 48.3906
Q24.9062 48.3906 20.3906 44.1406
Q15.875 39.8906 15.1875 32.1719
z
" id="BitstreamVeraSans-Roman-65"/>
      <path d="
M-0.203125 72.9062
L10.4062 72.9062
L30.6094 42.9219
L50.6875 72.9062
L61.2812 72.9062
L35.5 34.7188
L35.5 0
L25.5938 0
L25.5938 34.7188
z
" id="BitstreamVeraSans-Roman-59"/>
      <path d="
M34.2812 27.4844
Q23.3906 27.4844 19.1875 25
Q14.9844 22.5156 14.9844 16.5
Q14.9844 11.7188 18.1406 8.90625
Q21.2969 6.10938 26.7031 6.10938
Q34.1875 6.10938 38.7031 11.4062
Q43.2188 16.7031 43.2188 25.4844
L43.2188 27.4844
z

M52.2031 31.2031
L52.2031 0
L43.2188 0
L43.2188 8.29688
Q40.1406 3.32812 35.5469 0.953125
Q30.9531 -1.42188 24.3125 -1.42188
Q15.9219 -1.42188 10.9531 3.29688
Q6 8.01562 6 15.9219
Q6 25.1406 12.1719 29.8281
Q18.3594 34.5156 30.6094 34.5156
L43.2188 34.5156
L43.2188 35.4062
Q43.2188 41.6094 39.1406 45
Q35.0625 48.3906 27.6875 48.3906
Q23 48.3906 18.5469 47.2656
Q14.1094 46.1406 10.0156 43.8906
L10.0156 52.2031
Q14.9375 54.1094 19.5781 55.0469
Q24.2188 56 28.6094 56
Q40.4844 56 46.3438 49.8438
Q52.2031 43.7031 52.2031 31.2031" id="BitstreamVeraSans-Roman-61"/>
      <path d="
M41.1094 46.2969
Q39.5938 47.1719 37.8125 47.5781
Q36.0312 48 33.8906 48
Q26.2656 48 22.1875 43.0469
Q18.1094 38.0938 18.1094 28.8125
L18.1094 0
L9.07812 0
L9.07812 54.6875
L18.1094 54.6875
L18.1094 46.1875
Q20.9531 51.1719 25.4844 53.5781
Q30.0312 56 36.5312 56
Q37.4531 56 38.5781 55.875
Q39.7031 55.7656 41.0625 55.5156
z
" id="BitstreamVeraSans-Roman-72"/>
     </defs>
     <g transform="translate(325.6709375 408.9828125)scale(0.14 -0.14)">
      <use xlink:href="#BitstreamVeraSans-Roman-59"/>
      <use x="47.833984375" xlink:href="#BitstreamVeraSans-Roman-65"/>
      <use x="109.357421875" xlink:href="#BitstreamVeraSans-Roman-61"/>
      <use x="170.63671875" xlink:href="#BitstreamVeraSans-Roman-72"/>
     </g>
    </g>
   </g>
   <g id="matplotlib.axis_2">
    <g id="ytick_1">
     <g id="line2d_25">
      <path clip-path="url(#pda144e63b7)" d="
M2.16 361.799
L678.855 361.799" style="fill:none;stroke:#fafafa;stroke-linecap:square;stroke-width:1.5;"/>
     </g>
     <g id="line2d_26">
      <defs>
       <path d="
M0 0
L4 0" id="m0a16658aff" style="stroke:#ffffff;stroke-width:0.5;"/>
      </defs>
      <g>
       <use style="fill:#ffffff;stroke:#ffffff;stroke-width:0.5;" x="678.8553125" xlink:href="#m0a16658aff" y="361.7990625"/>
      </g>
     </g>
     <g id="text_26">
      <!-- 0 -->
      <g transform="translate(682.8553125 364.5584375)scale(0.1 -0.1)">
       <use xlink:href="#BitstreamVeraSans-Roman-30"/>
      </g>
     </g>
    </g>
    <g id="ytick_2">
     <g id="line2d_27">
      <path clip-path="url(#pda144e63b7)" d="
M2.16 329.545
L678.855 329.545" style="fill:none;stroke:#fafafa;stroke-linecap:square;stroke-width:1.5;"/>
     </g>
     <g id="line2d_28">
      <g>
       <use style="fill:#ffffff;stroke:#ffffff;stroke-width:0.5;" x="678.8553125" xlink:href="#m0a16658aff" y="329.544517045"/>
      </g>
     </g>
     <g id="text_27">
      <!-- 25 -->
      <g transform="translate(682.8553125 332.303892045)scale(0.1 -0.1)">
       <use xlink:href="#BitstreamVeraSans-Roman-32"/>
       <use x="63.623046875" xlink:href="#BitstreamVeraSans-Roman-35"/>
      </g>
     </g>
    </g>
    <g id="ytick_3">
     <g id="line2d_29">
      <path clip-path="url(#pda144e63b7)" d="
M2.16 297.29
L678.855 297.29" style="fill:none;stroke:#fafafa;stroke-linecap:square;stroke-width:1.5;"/>
     </g>
     <g id="line2d_30">
      <g>
       <use style="fill:#ffffff;stroke:#ffffff;stroke-width:0.5;" x="678.8553125" xlink:href="#m0a16658aff" y="297.289971591"/>
      </g>
     </g>
     <g id="text_28">
      <!-- 50 -->
      <g transform="translate(682.8553125 300.049346591)scale(0.1 -0.1)">
       <use xlink:href="#BitstreamVeraSans-Roman-35"/>
       <use x="63.623046875" xlink:href="#BitstreamVeraSans-Roman-30"/>
      </g>
     </g>
    </g>
    <g id="ytick_4">
     <g id="line2d_31">
      <path clip-path="url(#pda144e63b7)" d="
M2.16 265.035
L678.855 265.035" style="fill:none;stroke:#fafafa;stroke-linecap:square;stroke-width:1.5;"/>
     </g>
     <g id="line2d_32">
      <g>
       <use style="fill:#ffffff;stroke:#ffffff;stroke-width:0.5;" x="678.8553125" xlink:href="#m0a16658aff" y="265.035426136"/>
      </g>
     </g>
     <g id="text_29">
      <!-- 75 -->
      <g transform="translate(682.8553125 267.794801136)scale(0.1 -0.1)">
       <use xlink:href="#BitstreamVeraSans-Roman-37"/>
       <use x="63.623046875" xlink:href="#BitstreamVeraSans-Roman-35"/>
      </g>
     </g>
    </g>
    <g id="ytick_5">
     <g id="line2d_33">
      <path clip-path="url(#pda144e63b7)" d="
M2.16 232.781
L678.855 232.781" style="fill:none;stroke:#fafafa;stroke-linecap:square;stroke-width:1.5;"/>
     </g>
     <g id="line2d_34">
      <g>
       <use style="fill:#ffffff;stroke:#ffffff;stroke-width:0.5;" x="678.8553125" xlink:href="#m0a16658aff" y="232.780880682"/>
      </g>
     </g>
     <g id="text_30">
      <!-- 100 -->
      <g transform="translate(682.8553125 235.540255682)scale(0.1 -0.1)">
       <use xlink:href="#BitstreamVeraSans-Roman-31"/>
       <use x="63.623046875" xlink:href="#BitstreamVeraSans-Roman-30"/>
       <use x="127.24609375" xlink:href="#BitstreamVeraSans-Roman-30"/>
      </g>
     </g>
    </g>
    <g id="ytick_6">
     <g id="line2d_35">
      <path clip-path="url(#pda144e63b7)" d="
M2.16 200.526
L678.855 200.526" style="fill:none;stroke:#fafafa;stroke-linecap:square;stroke-width:1.5;"/>
     </g>
     <g id="line2d_36">
      <g>
       <use style="fill:#ffffff;stroke:#ffffff;stroke-width:0.5;" x="678.8553125" xlink:href="#m0a16658aff" y="200.526335227"/>
      </g>
     </g>
     <g id="text_31">
      <!-- 125 -->
      <g transform="translate(682.8553125 203.285710227)scale(0.1 -0.1)">
       <use xlink:href="#BitstreamVeraSans-Roman-31"/>
       <use x="63.623046875" xlink:href="#BitstreamVeraSans-Roman-32"/>
       <use x="127.24609375" xlink:href="#BitstreamVeraSans-Roman-35"/>
      </g>
     </g>
    </g>
    <g id="ytick_7">
     <g id="line2d_37">
      <path clip-path="url(#pda144e63b7)" d="
M2.16 168.272
L678.855 168.272" style="fill:none;stroke:#fafafa;stroke-linecap:square;stroke-width:1.5;"/>
     </g>
     <g id="line2d_38">
      <g>
       <use style="fill:#ffffff;stroke:#ffffff;stroke-width:0.5;" x="678.8553125" xlink:href="#m0a16658aff" y="168.271789773"/>
      </g>
     </g>
     <g id="text_32">
      <!-- 150 -->
      <g transform="translate(682.8553125 171.031164773)scale(0.1 -0.1)">
       <use xlink:href="#BitstreamVeraSans-Roman-31"/>
       <use x="63.623046875" xlink:href="#BitstreamVeraSans-Roman-35"/>
       <use x="127.24609375" xlink:href="#BitstreamVeraSans-Roman-30"/>
      </g>
     </g>
    </g>
    <g id="ytick_8">
     <g id="line2d_39">
      <path clip-path="url(#pda144e63b7)" d="
M2.16 136.017
L678.855 136.017" style="fill:none;stroke:#fafafa;stroke-linecap:square;stroke-width:1.5;"/>
     </g>
     <g id="line2d_40">
      <g>
       <use style="fill:#ffffff;stroke:#ffffff;stroke-width:0.5;" x="678.8553125" xlink:href="#m0a16658aff" y="136.017244318"/>
      </g>
     </g>
     <g id="text_33">
      <!-- 175 -->
      <g transform="translate(682.8553125 138.776619318)scale(0.1 -0.1)">
       <use xlink:href="#BitstreamVeraSans-Roman-31"/>
       <use x="63.623046875" xlink:href="#BitstreamVeraSans-Roman-37"/>
       <use x="127.24609375" xlink:href="#BitstreamVeraSans-Roman-35"/>
      </g>
     </g>
    </g>
    <g id="ytick_9">
     <g id="line2d_41">
      <path clip-path="url(#pda144e63b7)" d="
M2.16 103.763
L678.855 103.763" style="fill:none;stroke:#fafafa;stroke-linecap:square;stroke-width:1.5;"/>
     </g>
     <g id="line2d_42">
      <g>
       <use style="fill:#ffffff;stroke:#ffffff;stroke-width:0.5;" x="678.8553125" xlink:href="#m0a16658aff" y="103.762698864"/>
      </g>
     </g>
     <g id="text_34">
      <!-- 200 -->
      <g transform="translate(682.8553125 106.522073864)scale(0.1 -0.1)">
       <use xlink:href="#BitstreamVeraSans-Roman-32"/>
       <use x="63.623046875" xlink:href="#BitstreamVeraSans-Roman-30"/>
       <use x="127.24609375" xlink:href="#BitstreamVeraSans-Roman-30"/>
      </g>
     </g>
    </g>
    <g id="ytick_10">
     <g id="line2d_43">
      <path clip-path="url(#pda144e63b7)" d="
M2.16 71.5082
L678.855 71.5082" style="fill:none;stroke:#fafafa;stroke-linecap:square;stroke-width:1.5;"/>
     </g>
     <g id="line2d_44">
      <g>
       <use style="fill:#ffffff;stroke:#ffffff;stroke-width:0.5;" x="678.8553125" xlink:href="#m0a16658aff" y="71.5081534091"/>
      </g>
     </g>
     <g id="text_35">
      <!-- 225 -->
      <g transform="translate(682.8553125 74.2675284091)scale(0.1 -0.1)">
       <use xlink:href="#BitstreamVeraSans-Roman-32"/>
       <use x="63.623046875" xlink:href="#BitstreamVeraSans-Roman-32"/>
       <use x="127.24609375" xlink:href="#BitstreamVeraSans-Roman-35"/>
      </g>
     </g>
    </g>
    <g id="ytick_11">
     <g id="line2d_45">
      <path clip-path="url(#pda144e63b7)" d="
M2.16 39.2536
L678.855 39.2536" style="fill:none;stroke:#fafafa;stroke-linecap:square;stroke-width:1.5;"/>
     </g>
     <g id="line2d_46">
      <g>
       <use style="fill:#ffffff;stroke:#ffffff;stroke-width:0.5;" x="678.8553125" xlink:href="#m0a16658aff" y="39.2536079545"/>
      </g>
     </g>
     <g id="text_36">
      <!-- 250 -->
      <g transform="translate(682.8553125 42.0129829545)scale(0.1 -0.1)">
       <use xlink:href="#BitstreamVeraSans-Roman-32"/>
       <use x="63.623046875" xlink:href="#BitstreamVeraSans-Roman-35"/>
       <use x="127.24609375" xlink:href="#BitstreamVeraSans-Roman-30"/>
      </g>
     </g>
    </g>
    <g id="ytick_12">
     <g id="line2d_47">
      <path clip-path="url(#pda144e63b7)" d="
M2.16 6.99906
L678.855 6.99906" style="fill:none;stroke:#fafafa;stroke-linecap:square;stroke-width:1.5;"/>
     </g>
     <g id="line2d_48">
      <g>
       <use style="fill:#ffffff;stroke:#ffffff;stroke-width:0.5;" x="678.8553125" xlink:href="#m0a16658aff" y="6.9990625"/>
      </g>
     </g>
     <g id="text_37">
      <!-- 275 -->
      <g transform="translate(682.8553125 9.7584375)scale(0.1 -0.1)">
       <use xlink:href="#BitstreamVeraSans-Roman-32"/>
       <use x="63.623046875" xlink:href="#BitstreamVeraSans-Roman-37"/>
       <use x="127.24609375" xlink:href="#BitstreamVeraSans-Roman-35"/>
      </g>
     </g>
    </g>
   </g>
   <g id="patch_38">
    <path d="
M2.16 6.99906
L678.855 6.99906" style="fill:none;"/>
   </g>
   <g id="patch_39">
    <path d="
M678.855 361.799
L678.855 6.99906" style="fill:none;"/>
   </g>
   <g id="patch_40">
    <path d="
M2.16 361.799
L678.855 361.799" style="fill:none;stroke:#888888;"/>
   </g>
   <g id="patch_41">
    <path d="
M2.16 361.799
L2.16 6.99906" style="fill:none;"/>
   </g>
   <g id="text_38">
    <!-- 1 -->
    <g style="fill:#5395bb;" transform="translate(16.9741489348 358.624260114)scale(0.09 -0.09)">
     <use xlink:href="#BitstreamVeraSans-Roman-31"/>
    </g>
   </g>
   <g id="text_39">
    <!-- 1 -->
    <g style="fill:#5395bb;" transform="translate(98.7664912999 358.624260114)scale(0.09 -0.09)">
     <use xlink:href="#BitstreamVeraSans-Roman-31"/>
    </g>
   </g>
   <g id="text_40">
    <!-- 1 -->
    <g style="fill:#5395bb;" transform="translate(126.030605422 358.624260114)scale(0.09 -0.09)">
     <use xlink:href="#BitstreamVeraSans-Roman-31"/>
    </g>
   </g>
   <g id="text_41">
    <!-- 1 -->
    <g style="fill:#5395bb;" transform="translate(153.294719543 358.624260114)scale(0.09 -0.09)">
     <use xlink:href="#BitstreamVeraSans-Roman-31"/>
    </g>
   </g>
   <g id="text_42">
    <!-- 3 -->
    <g style="fill:#5395bb;" transform="translate(180.35281804 356.018092841)scale(0.09 -0.09)">
     <use xlink:href="#BitstreamVeraSans-Roman-33"/>
    </g>
   </g>
   <g id="text_43">
    <!-- 2 -->
    <g style="fill:#5395bb;" transform="translate(207.693572787 357.321176477)scale(0.09 -0.09)">
     <use xlink:href="#BitstreamVeraSans-Roman-32"/>
    </g>
   </g>
   <g id="text_44">
    <!-- 1 -->
    <g style="fill:#5395bb;" transform="translate(235.087061908 358.624260114)scale(0.09 -0.09)">
     <use xlink:href="#BitstreamVeraSans-Roman-31"/>
    </g>
   </g>
   <g id="text_45">
    <!-- 7 -->
    <g style="fill:#5395bb;" transform="translate(262.19508228 350.805758295)scale(0.09 -0.09)">
     <use xlink:href="#BitstreamVeraSans-Roman-37"/>
    </g>
   </g>
   <g id="text_46">
    <!-- 7 -->
    <g style="fill:#5395bb;" transform="translate(289.459196402 350.805758295)scale(0.09 -0.09)">
     <use xlink:href="#BitstreamVeraSans-Roman-37"/>
    </g>
   </g>
   <g id="text_47">
    <!-- 1 -->
    <g style="fill:#e6756a;" transform="translate(192.854949134 358.624260114)scale(0.09 -0.09)">
     <use xlink:href="#BitstreamVeraSans-Roman-31"/>
    </g>
   </g>
   <g id="text_48">
    <!-- 1 -->
    <g style="fill:#e6756a;" transform="translate(247.383177377 358.624260114)scale(0.09 -0.09)">
     <use xlink:href="#BitstreamVeraSans-Roman-31"/>
    </g>
   </g>
   <g id="text_49">
    <!-- 2 -->
    <g style="fill:#e6756a;" transform="translate(383.574372985 357.321176477)scale(0.09 -0.09)">
     <use xlink:href="#BitstreamVeraSans-Roman-32"/>
    </g>
   </g>
   <g id="text_50">
    <!-- 5 -->
    <g style="fill:#e6756a;" transform="translate(410.798408982 353.411925568)scale(0.09 -0.09)">
     <use xlink:href="#BitstreamVeraSans-Roman-35"/>
    </g>
   </g>
   <g id="text_51">
    <!-- 14 -->
    <g style="fill:#e6756a;" transform="translate(435.205726229 341.684172841)scale(0.09 -0.09)">
     <use xlink:href="#BitstreamVeraSans-Roman-31"/>
     <use x="63.623046875" xlink:href="#BitstreamVeraSans-Roman-34"/>
    </g>
   </g>
   <g id="text_52">
    <!-- 6 -->
    <g style="fill:#e6756a;" transform="translate(465.183902851 352.108841932)scale(0.09 -0.09)">
     <use xlink:href="#BitstreamVeraSans-Roman-36"/>
    </g>
   </g>
   <g id="text_53">
    <!-- 7 -->
    <g style="fill:#e6756a;" transform="translate(492.604110722 350.805758295)scale(0.09 -0.09)">
     <use xlink:href="#BitstreamVeraSans-Roman-37"/>
    </g>
   </g>
   <g id="text_54">
    <!-- 16 -->
    <g style="fill:#e6756a;" transform="translate(517.029006094 339.078005568)scale(0.09 -0.09)">
     <use xlink:href="#BitstreamVeraSans-Roman-31"/>
     <use x="63.623046875" xlink:href="#BitstreamVeraSans-Roman-36"/>
    </g>
   </g>
   <g id="text_55">
    <!-- 5 -->
    <g style="fill:#e6756a;" transform="translate(547.118979591 353.411925568)scale(0.09 -0.09)">
     <use xlink:href="#BitstreamVeraSans-Roman-35"/>
    </g>
   </g>
   <g id="text_56">
    <!-- 10 -->
    <g style="fill:#e6756a;" transform="translate(571.572703087 346.896507386)scale(0.09 -0.09)">
     <use xlink:href="#BitstreamVeraSans-Roman-31"/>
     <use x="63.623046875" xlink:href="#BitstreamVeraSans-Roman-30"/>
    </g>
   </g>
   <g id="text_57">
    <!-- 9 -->
    <g style="fill:#e6756a;" transform="translate(601.506582834 348.199591023)scale(0.09 -0.09)">
     <use xlink:href="#BitstreamVeraSans-Roman-39"/>
    </g>
   </g>
   <g id="text_58">
    <!-- 7 -->
    <g style="fill:#e6756a;" transform="translate(628.924681331 350.805758295)scale(0.09 -0.09)">
     <use xlink:href="#BitstreamVeraSans-Roman-37"/>
    </g>
   </g>
   <g id="text_59">
    <!-- 5 -->
    <g style="fill:#e6756a;" transform="translate(656.175436077 353.411925568)scale(0.09 -0.09)">
     <use xlink:href="#BitstreamVeraSans-Roman-35"/>
    </g>
   </g>
   <g id="legend_1">
    <g id="patch_42">
     <path d="
M56.3821 102.851
L238.874 102.851
L238.874 67.2591
L56.3821 67.2591
L56.3821 102.851
z
" style="fill:#ffffff;stroke:#ffffff;"/>
    </g>
    <g id="patch_43">
     <path d="
M60.7821 80.0174
L82.7821 80.0174
L82.7821 72.3174
L60.7821 72.3174
z
" style="fill:#67a9cf;stroke:#67a9cf;"/>
    </g>
    <g id="text_60">
     <!-- All papers -->
     <defs>
      <path id="BitstreamVeraSans-Roman-20"/>
      <path d="
M18.1094 8.20312
L18.1094 -20.7969
L9.07812 -20.7969
L9.07812 54.6875
L18.1094 54.6875
L18.1094 46.3906
Q20.9531 51.2656 25.2656 53.625
Q29.5938 56 35.5938 56
Q45.5625 56 51.7812 48.0938
Q58.0156 40.1875 58.0156 27.2969
Q58.0156 14.4062 51.7812 6.48438
Q45.5625 -1.42188 35.5938 -1.42188
Q29.5938 -1.42188 25.2656 0.953125
Q20.9531 3.32812 18.1094 8.20312
M48.6875 27.2969
Q48.6875 37.2031 44.6094 42.8438
Q40.5312 48.4844 33.4062 48.4844
Q26.2656 48.4844 22.1875 42.8438
Q18.1094 37.2031 18.1094 27.2969
Q18.1094 17.3906 22.1875 11.75
Q26.2656 6.10938 33.4062 6.10938
Q40.5312 6.10938 44.6094 11.75
Q48.6875 17.3906 48.6875 27.2969" id="BitstreamVeraSans-Roman-70"/>
      <path d="
M9.42188 75.9844
L18.4062 75.9844
L18.4062 0
L9.42188 0
z
" id="BitstreamVeraSans-Roman-6c"/>
      <path d="
M34.1875 63.1875
L20.7969 26.9062
L47.6094 26.9062
z

M28.6094 72.9062
L39.7969 72.9062
L67.5781 0
L57.3281 0
L50.6875 18.7031
L17.8281 18.7031
L11.1875 0
L0.78125 0
z
" id="BitstreamVeraSans-Roman-41"/>
      <path d="
M44.2812 53.0781
L44.2812 44.5781
Q40.4844 46.5312 36.375 47.5
Q32.2812 48.4844 27.875 48.4844
Q21.1875 48.4844 17.8438 46.4375
Q14.5 44.3906 14.5 40.2812
Q14.5 37.1562 16.8906 35.375
Q19.2812 33.5938 26.5156 31.9844
L29.5938 31.2969
Q39.1562 29.25 43.1875 25.5156
Q47.2188 21.7812 47.2188 15.0938
Q47.2188 7.46875 41.1875 3.01562
Q35.1562 -1.42188 24.6094 -1.42188
Q20.2188 -1.42188 15.4531 -0.5625
Q10.6875 0.296875 5.42188 2
L5.42188 11.2812
Q10.4062 8.6875 15.2344 7.39062
Q20.0625 6.10938 24.8125 6.10938
Q31.1562 6.10938 34.5625 8.28125
Q37.9844 10.4531 37.9844 14.4062
Q37.9844 18.0625 35.5156 20.0156
Q33.0625 21.9688 24.7031 23.7812
L21.5781 24.5156
Q13.2344 26.2656 9.51562 29.9062
Q5.8125 33.5469 5.8125 39.8906
Q5.8125 47.6094 11.2812 51.7969
Q16.75 56 26.8125 56
Q31.7812 56 36.1719 55.2656
Q40.5781 54.5469 44.2812 53.0781" id="BitstreamVeraSans-Roman-73"/>
     </defs>
     <g style="fill:#1a1a1a;" transform="translate(91.5820625 80.01740625)scale(0.11 -0.11)">
      <use xlink:href="#BitstreamVeraSans-Roman-41"/>
      <use x="68.408203125" xlink:href="#BitstreamVeraSans-Roman-6c"/>
      <use x="96.19140625" xlink:href="#BitstreamVeraSans-Roman-6c"/>
      <use x="123.974609375" xlink:href="#BitstreamVeraSans-Roman-20"/>
      <use x="155.76171875" xlink:href="#BitstreamVeraSans-Roman-70"/>
      <use x="219.23828125" xlink:href="#BitstreamVeraSans-Roman-61"/>
      <use x="280.517578125" xlink:href="#BitstreamVeraSans-Roman-70"/>
      <use x="343.994140625" xlink:href="#BitstreamVeraSans-Roman-65"/>
      <use x="405.517578125" xlink:href="#BitstreamVeraSans-Roman-72"/>
      <use x="446.630859375" xlink:href="#BitstreamVeraSans-Roman-73"/>
     </g>
    </g>
    <g id="patch_44">
     <path d="
M60.7821 96.1633
L82.7821 96.1633
L82.7821 88.4633
L60.7821 88.4633
z
" style="fill:#ff8f83;stroke:#ff8f83;"/>
    </g>
    <g id="text_61">
     <!-- Addressing iris acquisition -->
     <defs>
      <path d="
M54.8906 33.0156
L54.8906 0
L45.9062 0
L45.9062 32.7188
Q45.9062 40.4844 42.875 44.3281
Q39.8438 48.1875 33.7969 48.1875
Q26.5156 48.1875 22.3125 43.5469
Q18.1094 38.9219 18.1094 30.9062
L18.1094 0
L9.07812 0
L9.07812 54.6875
L18.1094 54.6875
L18.1094 46.1875
Q21.3438 51.125 25.7031 53.5625
Q30.0781 56 35.7969 56
Q45.2188 56 50.0469 50.1719
Q54.8906 44.3438 54.8906 33.0156" id="BitstreamVeraSans-Roman-6e"/>
      <path d="
M30.6094 48.3906
Q23.3906 48.3906 19.1875 42.75
Q14.9844 37.1094 14.9844 27.2969
Q14.9844 17.4844 19.1562 11.8438
Q23.3438 6.20312 30.6094 6.20312
Q37.7969 6.20312 41.9844 11.8594
Q46.1875 17.5312 46.1875 27.2969
Q46.1875 37.0156 41.9844 42.7031
Q37.7969 48.3906 30.6094 48.3906
M30.6094 56
Q42.3281 56 49.0156 48.375
Q55.7188 40.7656 55.7188 27.2969
Q55.7188 13.875 49.0156 6.21875
Q42.3281 -1.42188 30.6094 -1.42188
Q18.8438 -1.42188 12.1719 6.21875
Q5.51562 13.875 5.51562 27.2969
Q5.51562 40.7656 12.1719 48.375
Q18.8438 56 30.6094 56" id="BitstreamVeraSans-Roman-6f"/>
      <path d="
M9.42188 54.6875
L18.4062 54.6875
L18.4062 0
L9.42188 0
z

M9.42188 75.9844
L18.4062 75.9844
L18.4062 64.5938
L9.42188 64.5938
z
" id="BitstreamVeraSans-Roman-69"/>
      <path d="
M45.4062 46.3906
L45.4062 75.9844
L54.3906 75.9844
L54.3906 0
L45.4062 0
L45.4062 8.20312
Q42.5781 3.32812 38.25 0.953125
Q33.9375 -1.42188 27.875 -1.42188
Q17.9688 -1.42188 11.7344 6.48438
Q5.51562 14.4062 5.51562 27.2969
Q5.51562 40.1875 11.7344 48.0938
Q17.9688 56 27.875 56
Q33.9375 56 38.25 53.625
Q42.5781 51.2656 45.4062 46.3906
M14.7969 27.2969
Q14.7969 17.3906 18.875 11.75
Q22.9531 6.10938 30.0781 6.10938
Q37.2031 6.10938 41.2969 11.75
Q45.4062 17.3906 45.4062 27.2969
Q45.4062 37.2031 41.2969 42.8438
Q37.2031 48.4844 30.0781 48.4844
Q22.9531 48.4844 18.875 42.8438
Q14.7969 37.2031 14.7969 27.2969" id="BitstreamVeraSans-Roman-64"/>
      <path d="
M45.4062 27.9844
Q45.4062 37.75 41.375 43.1094
Q37.3594 48.4844 30.0781 48.4844
Q22.8594 48.4844 18.8281 43.1094
Q14.7969 37.75 14.7969 27.9844
Q14.7969 18.2656 18.8281 12.8906
Q22.8594 7.51562 30.0781 7.51562
Q37.3594 7.51562 41.375 12.8906
Q45.4062 18.2656 45.4062 27.9844
M54.3906 6.78125
Q54.3906 -7.17188 48.1875 -13.9844
Q42 -20.7969 29.2031 -20.7969
Q24.4688 -20.7969 20.2656 -20.0938
Q16.0625 -19.3906 12.1094 -17.9219
L12.1094 -9.1875
Q16.0625 -11.3281 19.9219 -12.3438
Q23.7812 -13.375 27.7812 -13.375
Q36.625 -13.375 41.0156 -8.76562
Q45.4062 -4.15625 45.4062 5.17188
L45.4062 9.625
Q42.625 4.78125 38.2812 2.39062
Q33.9375 0 27.875 0
Q17.8281 0 11.6719 7.65625
Q5.51562 15.3281 5.51562 27.9844
Q5.51562 40.6719 11.6719 48.3281
Q17.8281 56 27.875 56
Q33.9375 56 38.2812 53.6094
Q42.625 51.2188 45.4062 46.3906
L45.4062 54.6875
L54.3906 54.6875
z
" id="BitstreamVeraSans-Roman-67"/>
      <path d="
M8.5 21.5781
L8.5 54.6875
L17.4844 54.6875
L17.4844 21.9219
Q17.4844 14.1562 20.5 10.2656
Q23.5312 6.39062 29.5938 6.39062
Q36.8594 6.39062 41.0781 11.0312
Q45.3125 15.6719 45.3125 23.6875
L45.3125 54.6875
L54.2969 54.6875
L54.2969 0
L45.3125 0
L45.3125 8.40625
Q42.0469 3.42188 37.7188 1
Q33.4062 -1.42188 27.6875 -1.42188
Q18.2656 -1.42188 13.375 4.4375
Q8.5 10.2969 8.5 21.5781" id="BitstreamVeraSans-Roman-75"/>
      <path d="
M18.3125 70.2188
L18.3125 54.6875
L36.8125 54.6875
L36.8125 47.7031
L18.3125 47.7031
L18.3125 18.0156
Q18.3125 11.3281 20.1406 9.42188
Q21.9688 7.51562 27.5938 7.51562
L36.8125 7.51562
L36.8125 0
L27.5938 0
Q17.1875 0 13.2344 3.875
Q9.28125 7.76562 9.28125 18.0156
L9.28125 47.7031
L2.6875 47.7031
L2.6875 54.6875
L9.28125 54.6875
L9.28125 70.2188
z
" id="BitstreamVeraSans-Roman-74"/>
      <path d="
M48.7812 52.5938
L48.7812 44.1875
Q44.9688 46.2969 41.1406 47.3438
Q37.3125 48.3906 33.4062 48.3906
Q24.6562 48.3906 19.8125 42.8438
Q14.9844 37.3125 14.9844 27.2969
Q14.9844 17.2812 19.8125 11.7344
Q24.6562 6.20312 33.4062 6.20312
Q37.3125 6.20312 41.1406 7.25
Q44.9688 8.29688 48.7812 10.4062
L48.7812 2.09375
Q45.0156 0.34375 40.9844 -0.53125
Q36.9688 -1.42188 32.4219 -1.42188
Q20.0625 -1.42188 12.7812 6.34375
Q5.51562 14.1094 5.51562 27.2969
Q5.51562 40.6719 12.8594 48.3281
Q20.2188 56 33.0156 56
Q37.1562 56 41.1094 55.1406
Q45.0625 54.2969 48.7812 52.5938" id="BitstreamVeraSans-Roman-63"/>
      <path d="
M14.7969 27.2969
Q14.7969 17.3906 18.875 11.75
Q22.9531 6.10938 30.0781 6.10938
Q37.2031 6.10938 41.2969 11.75
Q45.4062 17.3906 45.4062 27.2969
Q45.4062 37.2031 41.2969 42.8438
Q37.2031 48.4844 30.0781 48.4844
Q22.9531 48.4844 18.875 42.8438
Q14.7969 37.2031 14.7969 27.2969
M45.4062 8.20312
Q42.5781 3.32812 38.25 0.953125
Q33.9375 -1.42188 27.875 -1.42188
Q17.9688 -1.42188 11.7344 6.48438
Q5.51562 14.4062 5.51562 27.2969
Q5.51562 40.1875 11.7344 48.0938
Q17.9688 56 27.875 56
Q33.9375 56 38.25 53.625
Q42.5781 51.2656 45.4062 46.3906
L45.4062 54.6875
L54.3906 54.6875
L54.3906 -20.7969
L45.4062 -20.7969
z
" id="BitstreamVeraSans-Roman-71"/>
     </defs>
     <g style="fill:#1a1a1a;" transform="translate(91.5820625 96.16334375)scale(0.11 -0.11)">
      <use xlink:href="#BitstreamVeraSans-Roman-41"/>
      <use x="66.658203125" xlink:href="#BitstreamVeraSans-Roman-64"/>
      <use x="130.134765625" xlink:href="#BitstreamVeraSans-Roman-64"/>
      <use x="193.611328125" xlink:href="#BitstreamVeraSans-Roman-72"/>
      <use x="232.474609375" xlink:href="#BitstreamVeraSans-Roman-65"/>
      <use x="293.998046875" xlink:href="#BitstreamVeraSans-Roman-73"/>
      <use x="346.09765625" xlink:href="#BitstreamVeraSans-Roman-73"/>
      <use x="398.197265625" xlink:href="#BitstreamVeraSans-Roman-69"/>
      <use x="425.98046875" xlink:href="#BitstreamVeraSans-Roman-6e"/>
      <use x="489.359375" xlink:href="#BitstreamVeraSans-Roman-67"/>
      <use x="552.8359375" xlink:href="#BitstreamVeraSans-Roman-20"/>
      <use x="584.623046875" xlink:href="#BitstreamVeraSans-Roman-69"/>
      <use x="612.40625" xlink:href="#BitstreamVeraSans-Roman-72"/>
      <use x="653.51953125" xlink:href="#BitstreamVeraSans-Roman-69"/>
      <use x="681.302734375" xlink:href="#BitstreamVeraSans-Roman-73"/>
      <use x="733.40234375" xlink:href="#BitstreamVeraSans-Roman-20"/>
      <use x="765.189453125" xlink:href="#BitstreamVeraSans-Roman-61"/>
      <use x="826.46875" xlink:href="#BitstreamVeraSans-Roman-63"/>
      <use x="881.44921875" xlink:href="#BitstreamVeraSans-Roman-71"/>
      <use x="944.92578125" xlink:href="#BitstreamVeraSans-Roman-75"/>
      <use x="1008.3046875" xlink:href="#BitstreamVeraSans-Roman-69"/>
      <use x="1036.08789062" xlink:href="#BitstreamVeraSans-Roman-73"/>
      <use x="1088.1875" xlink:href="#BitstreamVeraSans-Roman-69"/>
      <use x="1115.97070312" xlink:href="#BitstreamVeraSans-Roman-74"/>
      <use x="1155.1796875" xlink:href="#BitstreamVeraSans-Roman-69"/>
      <use x="1182.96289062" xlink:href="#BitstreamVeraSans-Roman-6f"/>
      <use x="1244.14453125" xlink:href="#BitstreamVeraSans-Roman-6e"/>
     </g>
    </g>
   </g>
  </g>
  <g id="text_62">
   <!-- Number of papers on iris  -->
   <defs>
    <path d="
M52 44.1875
Q55.375 50.25 60.0625 53.125
Q64.75 56 71.0938 56
Q79.6406 56 84.2812 50.0156
Q88.9219 44.0469 88.9219 33.0156
L88.9219 0
L79.8906 0
L79.8906 32.7188
Q79.8906 40.5781 77.0938 44.375
Q74.3125 48.1875 68.6094 48.1875
Q61.625 48.1875 57.5625 43.5469
Q53.5156 38.9219 53.5156 30.9062
L53.5156 0
L44.4844 0
L44.4844 32.7188
Q44.4844 40.625 41.7031 44.4062
Q38.9219 48.1875 33.1094 48.1875
Q26.2188 48.1875 22.1562 43.5312
Q18.1094 38.875 18.1094 30.9062
L18.1094 0
L9.07812 0
L9.07812 54.6875
L18.1094 54.6875
L18.1094 46.1875
Q21.1875 51.2188 25.4844 53.6094
Q29.7812 56 35.6875 56
Q41.6562 56 45.8281 52.9688
Q50 49.9531 52 44.1875" id="BitstreamVeraSans-Roman-6d"/>
    <path d="
M9.8125 72.9062
L23.0938 72.9062
L55.4219 11.9219
L55.4219 72.9062
L64.9844 72.9062
L64.9844 0
L51.7031 0
L19.3906 60.9844
L19.3906 0
L9.8125 0
z
" id="BitstreamVeraSans-Roman-4e"/>
    <path d="
M37.1094 75.9844
L37.1094 68.5
L28.5156 68.5
Q23.6875 68.5 21.7969 66.5469
Q19.9219 64.5938 19.9219 59.5156
L19.9219 54.6875
L34.7188 54.6875
L34.7188 47.7031
L19.9219 47.7031
L19.9219 0
L10.8906 0
L10.8906 47.7031
L2.29688 47.7031
L2.29688 54.6875
L10.8906 54.6875
L10.8906 58.5
Q10.8906 67.625 15.1406 71.7969
Q19.3906 75.9844 28.6094 75.9844
z
" id="BitstreamVeraSans-Roman-66"/>
    <path d="
M48.6875 27.2969
Q48.6875 37.2031 44.6094 42.8438
Q40.5312 48.4844 33.4062 48.4844
Q26.2656 48.4844 22.1875 42.8438
Q18.1094 37.2031 18.1094 27.2969
Q18.1094 17.3906 22.1875 11.75
Q26.2656 6.10938 33.4062 6.10938
Q40.5312 6.10938 44.6094 11.75
Q48.6875 17.3906 48.6875 27.2969
M18.1094 46.3906
Q20.9531 51.2656 25.2656 53.625
Q29.5938 56 35.5938 56
Q45.5625 56 51.7812 48.0938
Q58.0156 40.1875 58.0156 27.2969
Q58.0156 14.4062 51.7812 6.48438
Q45.5625 -1.42188 35.5938 -1.42188
Q29.5938 -1.42188 25.2656 0.953125
Q20.9531 3.32812 18.1094 8.20312
L18.1094 0
L9.07812 0
L9.07812 75.9844
L18.1094 75.9844
z
" id="BitstreamVeraSans-Roman-62"/>
   </defs>
   <g transform="translate(63.36 42.982125)scale(0.14 -0.14)">
    <use xlink:href="#BitstreamVeraSans-Roman-4e"/>
    <use x="74.8046875" xlink:href="#BitstreamVeraSans-Roman-75"/>
    <use x="138.18359375" xlink:href="#BitstreamVeraSans-Roman-6d"/>
    <use x="235.595703125" xlink:href="#BitstreamVeraSans-Roman-62"/>
    <use x="299.072265625" xlink:href="#BitstreamVeraSans-Roman-65"/>
    <use x="360.595703125" xlink:href="#BitstreamVeraSans-Roman-72"/>
    <use x="401.708984375" xlink:href="#BitstreamVeraSans-Roman-20"/>
    <use x="433.49609375" xlink:href="#BitstreamVeraSans-Roman-6f"/>
    <use x="494.677734375" xlink:href="#BitstreamVeraSans-Roman-66"/>
    <use x="529.8828125" xlink:href="#BitstreamVeraSans-Roman-20"/>
    <use x="561.669921875" xlink:href="#BitstreamVeraSans-Roman-70"/>
    <use x="625.146484375" xlink:href="#BitstreamVeraSans-Roman-61"/>
    <use x="686.42578125" xlink:href="#BitstreamVeraSans-Roman-70"/>
    <use x="749.90234375" xlink:href="#BitstreamVeraSans-Roman-65"/>
    <use x="811.42578125" xlink:href="#BitstreamVeraSans-Roman-72"/>
    <use x="852.5390625" xlink:href="#BitstreamVeraSans-Roman-73"/>
    <use x="904.638671875" xlink:href="#BitstreamVeraSans-Roman-20"/>
    <use x="936.42578125" xlink:href="#BitstreamVeraSans-Roman-6f"/>
    <use x="997.607421875" xlink:href="#BitstreamVeraSans-Roman-6e"/>
    <use x="1060.98632812" xlink:href="#BitstreamVeraSans-Roman-20"/>
    <use x="1092.7734375" xlink:href="#BitstreamVeraSans-Roman-69"/>
    <use x="1120.55664062" xlink:href="#BitstreamVeraSans-Roman-72"/>
    <use x="1161.66992188" xlink:href="#BitstreamVeraSans-Roman-69"/>
    <use x="1189.453125" xlink:href="#BitstreamVeraSans-Roman-73"/>
    <use x="1241.55273438" xlink:href="#BitstreamVeraSans-Roman-20"/>
   </g>
   <!-- recognition &amp; acquisition -->
   <defs>
    <path d="
M24.3125 39.2031
Q19.875 35.25 17.7969 31.3125
Q15.7188 27.3906 15.7188 23.0938
Q15.7188 15.9688 20.8906 11.2344
Q26.0781 6.5 33.8906 6.5
Q38.5312 6.5 42.5781 8.03125
Q46.625 9.57812 50.2031 12.7031
z

M31.2031 44.6719
L56 19.2812
Q58.8906 23.6406 60.5 28.5938
Q62.1094 33.5469 62.4062 39.1094
L71.4844 39.1094
Q70.9062 32.6719 68.3594 26.3594
Q65.8281 20.0625 61.2812 13.9219
L74.9062 0
L62.5938 0
L55.6094 7.17188
Q50.5312 2.82812 44.9688 0.703125
Q39.4062 -1.42188 33.0156 -1.42188
Q21.2344 -1.42188 13.7656 5.29688
Q6.29688 12.0156 6.29688 22.5156
Q6.29688 28.7656 9.5625 34.25
Q12.8438 39.75 19.3906 44.5781
Q17.0469 47.6562 15.8125 50.7031
Q14.5938 53.7656 14.5938 56.6875
Q14.5938 64.5938 20.0156 69.4062
Q25.4375 74.2188 34.4219 74.2188
Q38.4844 74.2188 42.5 73.3438
Q46.5312 72.4688 50.6875 70.7031
L50.6875 61.8125
Q46.4375 64.1094 42.5781 65.2969
Q38.7188 66.5 35.4062 66.5
Q30.2812 66.5 27.0781 63.7812
Q23.875 61.0781 23.875 56.7812
Q23.875 54.2969 25.3125 51.7812
Q26.7656 49.2656 31.2031 44.6719" id="BitstreamVeraSans-Roman-26"/>
   </defs>
   <g transform="translate(63.36 58.6590625)scale(0.14 -0.14)">
    <use xlink:href="#BitstreamVeraSans-Roman-72"/>
    <use x="38.86328125" xlink:href="#BitstreamVeraSans-Roman-65"/>
    <use x="100.38671875" xlink:href="#BitstreamVeraSans-Roman-63"/>
    <use x="155.3671875" xlink:href="#BitstreamVeraSans-Roman-6f"/>
    <use x="216.548828125" xlink:href="#BitstreamVeraSans-Roman-67"/>
    <use x="280.025390625" xlink:href="#BitstreamVeraSans-Roman-6e"/>
    <use x="343.404296875" xlink:href="#BitstreamVeraSans-Roman-69"/>
    <use x="371.1875" xlink:href="#BitstreamVeraSans-Roman-74"/>
    <use x="410.396484375" xlink:href="#BitstreamVeraSans-Roman-69"/>
    <use x="438.1796875" xlink:href="#BitstreamVeraSans-Roman-6f"/>
    <use x="499.361328125" xlink:href="#BitstreamVeraSans-Roman-6e"/>
    <use x="562.740234375" xlink:href="#BitstreamVeraSans-Roman-20"/>
    <use x="594.52734375" xlink:href="#BitstreamVeraSans-Roman-26"/>
    <use x="672.505859375" xlink:href="#BitstreamVeraSans-Roman-20"/>
    <use x="704.29296875" xlink:href="#BitstreamVeraSans-Roman-61"/>
    <use x="765.572265625" xlink:href="#BitstreamVeraSans-Roman-63"/>
    <use x="820.552734375" xlink:href="#BitstreamVeraSans-Roman-71"/>
    <use x="884.029296875" xlink:href="#BitstreamVeraSans-Roman-75"/>
    <use x="947.408203125" xlink:href="#BitstreamVeraSans-Roman-69"/>
    <use x="975.19140625" xlink:href="#BitstreamVeraSans-Roman-73"/>
    <use x="1027.29101562" xlink:href="#BitstreamVeraSans-Roman-69"/>
    <use x="1055.07421875" xlink:href="#BitstreamVeraSans-Roman-74"/>
    <use x="1094.28320312" xlink:href="#BitstreamVeraSans-Roman-69"/>
    <use x="1122.06640625" xlink:href="#BitstreamVeraSans-Roman-6f"/>
    <use x="1183.24804688" xlink:href="#BitstreamVeraSans-Roman-6e"/>
   </g>
  </g>
  <g id="text_63">
   <!-- Source: Google scholar -->
   <defs>
    <path d="
M11.7188 12.4062
L22.0156 12.4062
L22.0156 0
L11.7188 0
z

M11.7188 51.7031
L22.0156 51.7031
L22.0156 39.3125
L11.7188 39.3125
z
" id="BitstreamVeraSans-Roman-3a"/>
    <path d="
M59.5156 10.4062
L59.5156 29.9844
L43.4062 29.9844
L43.4062 38.0938
L69.2812 38.0938
L69.2812 6.78125
Q63.5781 2.73438 56.6875 0.65625
Q49.8125 -1.42188 42 -1.42188
Q24.9062 -1.42188 15.25 8.5625
Q5.60938 18.5625 5.60938 36.375
Q5.60938 54.25 15.25 64.2344
Q24.9062 74.2188 42 74.2188
Q49.125 74.2188 55.5469 72.4531
Q61.9688 70.7031 67.3906 67.2812
L67.3906 56.7812
Q61.9219 61.4219 55.7656 63.7656
Q49.6094 66.1094 42.8281 66.1094
Q29.4375 66.1094 22.7188 58.6406
Q16.0156 51.1719 16.0156 36.375
Q16.0156 21.625 22.7188 14.1562
Q29.4375 6.6875 42.8281 6.6875
Q48.0469 6.6875 52.1406 7.59375
Q56.25 8.5 59.5156 10.4062" id="BitstreamVeraSans-Roman-47"/>
    <path d="
M53.5156 70.5156
L53.5156 60.8906
Q47.9062 63.5781 42.9219 64.8906
Q37.9375 66.2188 33.2969 66.2188
Q25.25 66.2188 20.875 63.0938
Q16.5 59.9688 16.5 54.2031
Q16.5 49.3594 19.4062 46.8906
Q22.3125 44.4375 30.4219 42.9219
L36.375 41.7031
Q47.4062 39.5938 52.6562 34.2969
Q57.9062 29 57.9062 20.125
Q57.9062 9.51562 50.7969 4.04688
Q43.7031 -1.42188 29.9844 -1.42188
Q24.8125 -1.42188 18.9688 -0.25
Q13.1406 0.921875 6.89062 3.21875
L6.89062 13.375
Q12.8906 10.0156 18.6562 8.29688
Q24.4219 6.59375 29.9844 6.59375
Q38.4219 6.59375 43.0156 9.90625
Q47.6094 13.2344 47.6094 19.3906
Q47.6094 24.75 44.3125 27.7812
Q41.0156 30.8125 33.5 32.3281
L27.4844 33.5
Q16.4531 35.6875 11.5156 40.375
Q6.59375 45.0625 6.59375 53.4219
Q6.59375 63.0938 13.4062 68.6562
Q20.2188 74.2188 32.1719 74.2188
Q37.3125 74.2188 42.625 73.2812
Q47.9531 72.3594 53.5156 70.5156" id="BitstreamVeraSans-Roman-53"/>
    <path d="
M54.8906 33.0156
L54.8906 0
L45.9062 0
L45.9062 32.7188
Q45.9062 40.4844 42.875 44.3281
Q39.8438 48.1875 33.7969 48.1875
Q26.5156 48.1875 22.3125 43.5469
Q18.1094 38.9219 18.1094 30.9062
L18.1094 0
L9.07812 0
L9.07812 75.9844
L18.1094 75.9844
L18.1094 46.1875
Q21.3438 51.125 25.7031 53.5625
Q30.0781 56 35.7969 56
Q45.2188 56 50.0469 50.1719
Q54.8906 44.3438 54.8906 33.0156" id="BitstreamVeraSans-Roman-68"/>
   </defs>
   <g style="fill:#030303;" transform="translate(581.76 391.2990625)scale(0.1 -0.1)">
    <use xlink:href="#BitstreamVeraSans-Roman-53"/>
    <use x="63.4765625" xlink:href="#BitstreamVeraSans-Roman-6f"/>
    <use x="124.658203125" xlink:href="#BitstreamVeraSans-Roman-75"/>
    <use x="188.037109375" xlink:href="#BitstreamVeraSans-Roman-72"/>
    <use x="226.900390625" xlink:href="#BitstreamVeraSans-Roman-63"/>
    <use x="281.880859375" xlink:href="#BitstreamVeraSans-Roman-65"/>
    <use x="343.404296875" xlink:href="#BitstreamVeraSans-Roman-3a"/>
    <use x="377.095703125" xlink:href="#BitstreamVeraSans-Roman-20"/>
    <use x="408.8828125" xlink:href="#BitstreamVeraSans-Roman-47"/>
    <use x="486.373046875" xlink:href="#BitstreamVeraSans-Roman-6f"/>
    <use x="547.5546875" xlink:href="#BitstreamVeraSans-Roman-6f"/>
    <use x="608.736328125" xlink:href="#BitstreamVeraSans-Roman-67"/>
    <use x="672.212890625" xlink:href="#BitstreamVeraSans-Roman-6c"/>
    <use x="699.99609375" xlink:href="#BitstreamVeraSans-Roman-65"/>
    <use x="761.51953125" xlink:href="#BitstreamVeraSans-Roman-20"/>
    <use x="793.306640625" xlink:href="#BitstreamVeraSans-Roman-73"/>
    <use x="845.40625" xlink:href="#BitstreamVeraSans-Roman-63"/>
    <use x="900.38671875" xlink:href="#BitstreamVeraSans-Roman-68"/>
    <use x="963.765625" xlink:href="#BitstreamVeraSans-Roman-6f"/>
    <use x="1024.94726562" xlink:href="#BitstreamVeraSans-Roman-6c"/>
    <use x="1052.73046875" xlink:href="#BitstreamVeraSans-Roman-61"/>
    <use x="1114.00976562" xlink:href="#BitstreamVeraSans-Roman-72"/>
   </g>
  </g>
  <g id="text_64">
   <!-- 1900's -->
   <defs>
    <path d="
M14.2031 0
L14.2031 5.17188
L26.9062 5.17188
L26.9062 65.8281
L12.2031 56.2969
L12.2031 62.7031
L29.9844 74.2188
L36.7188 74.2188
L36.7188 5.17188
L49.4219 5.17188
L49.4219 0
z
" id="BitstreamVeraSerif-Roman-31"/>
    <path d="
M31.7812 3.42188
Q39.2656 3.42188 42.9688 11.625
Q46.6875 19.8281 46.6875 36.375
Q46.6875 52.9844 42.9688 61.1875
Q39.2656 69.3906 31.7812 69.3906
Q24.3125 69.3906 20.5938 61.1875
Q16.8906 52.9844 16.8906 36.375
Q16.8906 19.8281 20.5938 11.625
Q24.3125 3.42188 31.7812 3.42188
M31.7812 -1.42188
Q19.9219 -1.42188 13.25 8.53125
Q6.59375 18.5 6.59375 36.375
Q6.59375 54.2969 13.25 64.25
Q19.9219 74.2188 31.7812 74.2188
Q43.7031 74.2188 50.3438 64.25
Q56.9844 54.2969 56.9844 36.375
Q56.9844 18.5 50.3438 8.53125
Q43.7031 -1.42188 31.7812 -1.42188" id="BitstreamVeraSerif-Roman-30"/>
    <path d="
M5.60938 2.875
L5.60938 14.9844
L10.7969 14.9844
Q10.9844 9.1875 14.4219 6.29688
Q17.875 3.42188 24.6094 3.42188
Q30.6719 3.42188 33.8438 5.6875
Q37.0156 7.95312 37.0156 12.3125
Q37.0156 15.7188 34.6875 17.8125
Q32.375 19.9219 24.9062 22.3125
L18.4062 24.5156
Q11.7188 26.6562 8.71875 29.875
Q5.71875 33.1094 5.71875 38.0938
Q5.71875 45.2188 10.9375 49.2656
Q16.1562 53.3281 25.3906 53.3281
Q29.5 53.3281 34.0312 52.25
Q38.5781 51.1719 43.4062 49.125
L43.4062 37.7969
L38.2344 37.7969
Q38.0312 42.8281 34.7031 45.6562
Q31.3906 48.4844 25.6875 48.4844
Q20.0156 48.4844 17.1094 46.4844
Q14.2031 44.4844 14.2031 40.4844
Q14.2031 37.2031 16.4062 35.2188
Q18.6094 33.25 25.2031 31.2031
L32.3281 29
Q39.7031 26.7031 42.9375 23.2656
Q46.1875 19.8281 46.1875 14.4062
Q46.1875 7.03125 40.5469 2.79688
Q34.9062 -1.42188 25 -1.42188
Q19.9688 -1.42188 15.1875 -0.34375
Q10.4062 0.734375 5.60938 2.875" id="BitstreamVeraSerif-Roman-73"/>
    <path d="
M46.7812 32.6719
Q43.5 29 39.25 27.1875
Q35.0156 25.3906 29.6875 25.3906
Q18.8438 25.3906 12.5625 31.9375
Q6.29688 38.4844 6.29688 49.8125
Q6.29688 60.8906 13.1094 67.5469
Q19.9219 74.2188 31.2969 74.2188
Q43.6562 74.2188 50.2656 65.0156
Q56.8906 55.8125 56.8906 38.7188
Q56.8906 19.5781 49.0156 9.07812
Q41.1562 -1.42188 26.9062 -1.42188
Q23.0469 -1.42188 18.7969 -0.6875
Q14.5469 0.046875 10.1094 1.51562
L10.1094 13.625
L15.5781 13.625
Q16.2188 8.6875 19.3906 6.04688
Q22.5625 3.42188 27.875 3.42188
Q37.3594 3.42188 41.9844 10.5625
Q46.625 17.7188 46.7812 32.6719
M30.9062 69.3906
Q23.9688 69.3906 20.2812 64.3281
Q16.6094 59.2812 16.6094 49.8125
Q16.6094 40.3281 20.2812 35.25
Q23.9688 30.1719 30.9062 30.1719
Q37.8438 30.1719 41.5312 35.0781
Q45.2188 39.9844 45.2188 49.2188
Q45.2188 58.9375 41.5 64.1562
Q37.7969 69.3906 30.9062 69.3906" id="BitstreamVeraSerif-Roman-39"/>
    <path d="
M17.5781 72.9062
L17.5781 45.7969
L9.8125 45.7969
L9.8125 72.9062
z
" id="BitstreamVeraSerif-Roman-27"/>
   </defs>
   <g transform="translate(149.76 391.2990625)scale(0.11 -0.11)">
    <use xlink:href="#BitstreamVeraSerif-Roman-31"/>
    <use x="63.623046875" xlink:href="#BitstreamVeraSerif-Roman-39"/>
    <use x="127.24609375" xlink:href="#BitstreamVeraSerif-Roman-30"/>
    <use x="190.869140625" xlink:href="#BitstreamVeraSerif-Roman-30"/>
    <use x="254.4921875" xlink:href="#BitstreamVeraSerif-Roman-27"/>
    <use x="281.982421875" xlink:href="#BitstreamVeraSerif-Roman-73"/>
   </g>
  </g>
  <g id="text_65">
   <!-- 2000's -->
   <defs>
    <path d="
M12.7969 55.5156
L7.32812 55.5156
L7.32812 68.5
Q12.5469 71.2969 17.8438 72.75
Q23.1406 74.2188 28.2188 74.2188
Q39.5938 74.2188 46.1875 68.7031
Q52.7812 63.1875 52.7812 53.7188
Q52.7812 43.0156 37.8438 28.125
Q36.6719 27 36.0781 26.4219
L17.6719 8.01562
L48.0938 8.01562
L48.0938 17
L53.8125 17
L53.8125 0
L6.78125 0
L6.78125 5.32812
L28.9062 27.3906
Q36.2344 34.7188 39.3594 40.8438
Q42.4844 46.9688 42.4844 53.7188
Q42.4844 61.0781 38.6406 65.2344
Q34.8125 69.3906 28.0781 69.3906
Q21.0938 69.3906 17.2812 65.9219
Q13.4844 62.4531 12.7969 55.5156" id="BitstreamVeraSerif-Roman-32"/>
   </defs>
   <g transform="translate(300.96 391.2990625)scale(0.11 -0.11)">
    <use xlink:href="#BitstreamVeraSerif-Roman-32"/>
    <use x="63.623046875" xlink:href="#BitstreamVeraSerif-Roman-30"/>
    <use x="127.24609375" xlink:href="#BitstreamVeraSerif-Roman-30"/>
    <use x="190.869140625" xlink:href="#BitstreamVeraSerif-Roman-30"/>
    <use x="254.4921875" xlink:href="#BitstreamVeraSerif-Roman-27"/>
    <use x="281.982421875" xlink:href="#BitstreamVeraSerif-Roman-73"/>
   </g>
  </g>
 </g>
 <defs>
  <clipPath id="pda144e63b7">
   <rect height="354.8" width="676.6953125" x="2.16" y="6.9990625"/>
  </clipPath>
 </defs>
</svg>
