<?xml version="1.0" encoding="utf-8" standalone="no"?>
<!DOCTYPE svg PUBLIC "-//W3C//DTD SVG 1.1//EN"
  "http://www.w3.org/Graphics/SVG/1.1/DTD/svg11.dtd">
<!-- Created with matplotlib (http://matplotlib.org/) -->
<svg height="319pt" version="1.1" viewBox="0 0 620 319" width="620pt" xmlns="http://www.w3.org/2000/svg" xmlns:xlink="http://www.w3.org/1999/xlink">
 <defs>
  <style type="text/css">
*{stroke-linecap:butt;stroke-linejoin:round;}
  </style>
 </defs>
 <g id="figure_1">
  <g id="patch_1">
   <path d="
M0 319.548
L620.006 319.548
L620.006 0
L0 0
z
" style="fill:#ffffff;"/>
  </g>
  <g id="axes_1">
   <g id="patch_2">
    <path d="
M53.7978 281.16
L611.798 281.16
L611.798 2.16
L53.7978 2.16
z
" style="fill:#ffffff;"/>
   </g>
   <g id="matplotlib.axis_1">
    <g id="xtick_1">
     <g id="line2d_1">
      <path clip-path="url(#pd6b4fd71aa)" d="
M53.7978 281.16
L53.7978 2.16" style="fill:none;stroke:#efefef;stroke-linecap:square;"/>
     </g>
     <g id="line2d_2">
      <defs>
       <path d="
M0 0
L0 4" id="md11e513213" style="stroke:#111111;stroke-width:0.5;"/>
      </defs>
      <g>
       <use style="fill:#111111;stroke:#111111;stroke-width:0.5;" x="53.7978125" xlink:href="#md11e513213" y="281.16"/>
      </g>
     </g>
     <g id="text_1">
      <!-- 1 -->
      <defs>
       <path d="
M12.4062 8.29688
L28.5156 8.29688
L28.5156 63.9219
L10.9844 60.4062
L10.9844 69.3906
L28.4219 72.9062
L38.2812 72.9062
L38.2812 8.29688
L54.3906 8.29688
L54.3906 0
L12.4062 0
z
" id="BitstreamVeraSans-Roman-31"/>
      </defs>
      <g transform="translate(51.41046875 297.51828125)scale(0.11 -0.11)">
       <use xlink:href="#BitstreamVeraSans-Roman-31"/>
      </g>
     </g>
    </g>
    <g id="xtick_2">
     <g id="line2d_3">
      <path clip-path="url(#pd6b4fd71aa)" d="
M90.9978 281.16
L90.9978 2.16" style="fill:none;stroke:#efefef;stroke-linecap:square;"/>
     </g>
     <g id="line2d_4">
      <g>
       <use style="fill:#111111;stroke:#111111;stroke-width:0.5;" x="90.9978125" xlink:href="#md11e513213" y="281.16"/>
      </g>
     </g>
     <g id="text_2">
      <!-- 2 -->
      <defs>
       <path d="
M19.1875 8.29688
L53.6094 8.29688
L53.6094 0
L7.32812 0
L7.32812 8.29688
Q12.9375 14.1094 22.625 23.8906
Q32.3281 33.6875 34.8125 36.5312
Q39.5469 41.8438 41.4219 45.5312
Q43.3125 49.2188 43.3125 52.7812
Q43.3125 58.5938 39.2344 62.25
Q35.1562 65.9219 28.6094 65.9219
Q23.9688 65.9219 18.8125 64.3125
Q13.6719 62.7031 7.8125 59.4219
L7.8125 69.3906
Q13.7656 71.7812 18.9375 73
Q24.125 74.2188 28.4219 74.2188
Q39.75 74.2188 46.4844 68.5469
Q53.2188 62.8906 53.2188 53.4219
Q53.2188 48.9219 51.5312 44.8906
Q49.8594 40.875 45.4062 35.4062
Q44.1875 33.9844 37.6406 27.2188
Q31.1094 20.4531 19.1875 8.29688" id="BitstreamVeraSans-Roman-32"/>
      </defs>
      <g transform="translate(88.45234375 297.51828125)scale(0.11 -0.11)">
       <use xlink:href="#BitstreamVeraSans-Roman-32"/>
      </g>
     </g>
    </g>
    <g id="xtick_3">
     <g id="line2d_5">
      <path clip-path="url(#pd6b4fd71aa)" d="
M128.198 281.16
L128.198 2.16" style="fill:none;stroke:#efefef;stroke-linecap:square;"/>
     </g>
     <g id="line2d_6">
      <g>
       <use style="fill:#111111;stroke:#111111;stroke-width:0.5;" x="128.1978125" xlink:href="#md11e513213" y="281.16"/>
      </g>
     </g>
     <g id="text_3">
      <!-- 3 -->
      <defs>
       <path d="
M40.5781 39.3125
Q47.6562 37.7969 51.625 33
Q55.6094 28.2188 55.6094 21.1875
Q55.6094 10.4062 48.1875 4.48438
Q40.7656 -1.42188 27.0938 -1.42188
Q22.5156 -1.42188 17.6562 -0.515625
Q12.7969 0.390625 7.625 2.20312
L7.625 11.7188
Q11.7188 9.32812 16.5938 8.10938
Q21.4844 6.89062 26.8125 6.89062
Q36.0781 6.89062 40.9375 10.5469
Q45.7969 14.2031 45.7969 21.1875
Q45.7969 27.6406 41.2812 31.2656
Q36.7656 34.9062 28.7188 34.9062
L20.2188 34.9062
L20.2188 43.0156
L29.1094 43.0156
Q36.375 43.0156 40.2344 45.9219
Q44.0938 48.8281 44.0938 54.2969
Q44.0938 59.9062 40.1094 62.9062
Q36.1406 65.9219 28.7188 65.9219
Q24.6562 65.9219 20.0156 65.0312
Q15.375 64.1562 9.8125 62.3125
L9.8125 71.0938
Q15.4375 72.6562 20.3438 73.4375
Q25.25 74.2188 29.5938 74.2188
Q40.8281 74.2188 47.3594 69.1094
Q53.9062 64.0156 53.9062 55.3281
Q53.9062 49.2656 50.4375 45.0938
Q46.9688 40.9219 40.5781 39.3125" id="BitstreamVeraSans-Roman-33"/>
      </defs>
      <g transform="translate(125.558671875 297.51828125)scale(0.11 -0.11)">
       <use xlink:href="#BitstreamVeraSans-Roman-33"/>
      </g>
     </g>
    </g>
    <g id="xtick_4">
     <g id="line2d_7">
      <path clip-path="url(#pd6b4fd71aa)" d="
M165.398 281.16
L165.398 2.16" style="fill:none;stroke:#efefef;stroke-linecap:square;"/>
     </g>
     <g id="line2d_8">
      <g>
       <use style="fill:#111111;stroke:#111111;stroke-width:0.5;" x="165.3978125" xlink:href="#md11e513213" y="281.16"/>
      </g>
     </g>
     <g id="text_4">
      <!-- 4 -->
      <defs>
       <path d="
M37.7969 64.3125
L12.8906 25.3906
L37.7969 25.3906
z

M35.2031 72.9062
L47.6094 72.9062
L47.6094 25.3906
L58.0156 25.3906
L58.0156 17.1875
L47.6094 17.1875
L47.6094 0
L37.7969 0
L37.7969 17.1875
L4.89062 17.1875
L4.89062 26.7031
z
" id="BitstreamVeraSans-Roman-34"/>
      </defs>
      <g transform="translate(162.4759375 297.51828125)scale(0.11 -0.11)">
       <use xlink:href="#BitstreamVeraSans-Roman-34"/>
      </g>
     </g>
    </g>
    <g id="xtick_5">
     <g id="line2d_9">
      <path clip-path="url(#pd6b4fd71aa)" d="
M202.598 281.16
L202.598 2.16" style="fill:none;stroke:#efefef;stroke-linecap:square;"/>
     </g>
     <g id="line2d_10">
      <g>
       <use style="fill:#111111;stroke:#111111;stroke-width:0.5;" x="202.5978125" xlink:href="#md11e513213" y="281.16"/>
      </g>
     </g>
     <g id="text_5">
      <!-- 5 -->
      <defs>
       <path d="
M10.7969 72.9062
L49.5156 72.9062
L49.5156 64.5938
L19.8281 64.5938
L19.8281 46.7344
Q21.9688 47.4688 24.1094 47.8281
Q26.2656 48.1875 28.4219 48.1875
Q40.625 48.1875 47.75 41.5
Q54.8906 34.8125 54.8906 23.3906
Q54.8906 11.625 47.5625 5.09375
Q40.2344 -1.42188 26.9062 -1.42188
Q22.3125 -1.42188 17.5469 -0.640625
Q12.7969 0.140625 7.71875 1.70312
L7.71875 11.625
Q12.1094 9.23438 16.7969 8.0625
Q21.4844 6.89062 26.7031 6.89062
Q35.1562 6.89062 40.0781 11.3281
Q45.0156 15.7656 45.0156 23.3906
Q45.0156 31 40.0781 35.4375
Q35.1562 39.8906 26.7031 39.8906
Q22.75 39.8906 18.8125 39.0156
Q14.8906 38.1406 10.7969 36.2812
z
" id="BitstreamVeraSans-Roman-35"/>
      </defs>
      <g transform="translate(200.003359375 297.51828125)scale(0.11 -0.11)">
       <use xlink:href="#BitstreamVeraSans-Roman-35"/>
      </g>
     </g>
    </g>
    <g id="xtick_6">
     <g id="line2d_11">
      <path clip-path="url(#pd6b4fd71aa)" d="
M239.798 281.16
L239.798 2.16" style="fill:none;stroke:#efefef;stroke-linecap:square;"/>
     </g>
     <g id="line2d_12">
      <g>
       <use style="fill:#111111;stroke:#111111;stroke-width:0.5;" x="239.7978125" xlink:href="#md11e513213" y="281.16"/>
      </g>
     </g>
     <g id="text_6">
      <!-- 6 -->
      <defs>
       <path d="
M33.0156 40.375
Q26.375 40.375 22.4844 35.8281
Q18.6094 31.2969 18.6094 23.3906
Q18.6094 15.5312 22.4844 10.9531
Q26.375 6.39062 33.0156 6.39062
Q39.6562 6.39062 43.5312 10.9531
Q47.4062 15.5312 47.4062 23.3906
Q47.4062 31.2969 43.5312 35.8281
Q39.6562 40.375 33.0156 40.375
M52.5938 71.2969
L52.5938 62.3125
Q48.875 64.0625 45.0938 64.9844
Q41.3125 65.9219 37.5938 65.9219
Q27.8281 65.9219 22.6719 59.3281
Q17.5312 52.7344 16.7969 39.4062
Q19.6719 43.6562 24.0156 45.9219
Q28.375 48.1875 33.5938 48.1875
Q44.5781 48.1875 50.9531 41.5156
Q57.3281 34.8594 57.3281 23.3906
Q57.3281 12.1562 50.6875 5.35938
Q44.0469 -1.42188 33.0156 -1.42188
Q20.3594 -1.42188 13.6719 8.26562
Q6.98438 17.9688 6.98438 36.375
Q6.98438 53.6562 15.1875 63.9375
Q23.3906 74.2188 37.2031 74.2188
Q40.9219 74.2188 44.7031 73.4844
Q48.4844 72.75 52.5938 71.2969" id="BitstreamVeraSans-Roman-36"/>
      </defs>
      <g transform="translate(237.02890625 297.51828125)scale(0.11 -0.11)">
       <use xlink:href="#BitstreamVeraSans-Roman-36"/>
      </g>
     </g>
    </g>
    <g id="xtick_7">
     <g id="line2d_13">
      <path clip-path="url(#pd6b4fd71aa)" d="
M276.998 281.16
L276.998 2.16" style="fill:none;stroke:#efefef;stroke-linecap:square;"/>
     </g>
     <g id="line2d_14">
      <g>
       <use style="fill:#111111;stroke:#111111;stroke-width:0.5;" x="276.9978125" xlink:href="#md11e513213" y="281.16"/>
      </g>
     </g>
     <g id="text_7">
      <!-- 7 -->
      <defs>
       <path d="
M8.20312 72.9062
L55.0781 72.9062
L55.0781 68.7031
L28.6094 0
L18.3125 0
L43.2188 64.5938
L8.20312 64.5938
z
" id="BitstreamVeraSans-Roman-37"/>
      </defs>
      <g transform="translate(274.4196875 297.51828125)scale(0.11 -0.11)">
       <use xlink:href="#BitstreamVeraSans-Roman-37"/>
      </g>
     </g>
    </g>
    <g id="xtick_8">
     <g id="line2d_15">
      <path clip-path="url(#pd6b4fd71aa)" d="
M314.198 281.16
L314.198 2.16" style="fill:none;stroke:#efefef;stroke-linecap:square;"/>
     </g>
     <g id="line2d_16">
      <g>
       <use style="fill:#111111;stroke:#111111;stroke-width:0.5;" x="314.1978125" xlink:href="#md11e513213" y="281.16"/>
      </g>
     </g>
     <g id="text_8">
      <!-- 8 -->
      <defs>
       <path d="
M31.7812 34.625
Q24.75 34.625 20.7188 30.8594
Q16.7031 27.0938 16.7031 20.5156
Q16.7031 13.9219 20.7188 10.1562
Q24.75 6.39062 31.7812 6.39062
Q38.8125 6.39062 42.8594 10.1719
Q46.9219 13.9688 46.9219 20.5156
Q46.9219 27.0938 42.8906 30.8594
Q38.875 34.625 31.7812 34.625
M21.9219 38.8125
Q15.5781 40.375 12.0312 44.7188
Q8.5 49.0781 8.5 55.3281
Q8.5 64.0625 14.7188 69.1406
Q20.9531 74.2188 31.7812 74.2188
Q42.6719 74.2188 48.875 69.1406
Q55.0781 64.0625 55.0781 55.3281
Q55.0781 49.0781 51.5312 44.7188
Q48 40.375 41.7031 38.8125
Q48.8281 37.1562 52.7969 32.3125
Q56.7812 27.4844 56.7812 20.5156
Q56.7812 9.90625 50.3125 4.23438
Q43.8438 -1.42188 31.7812 -1.42188
Q19.7344 -1.42188 13.25 4.23438
Q6.78125 9.90625 6.78125 20.5156
Q6.78125 27.4844 10.7812 32.3125
Q14.7969 37.1562 21.9219 38.8125
M18.3125 54.3906
Q18.3125 48.7344 21.8438 45.5625
Q25.3906 42.3906 31.7812 42.3906
Q38.1406 42.3906 41.7188 45.5625
Q45.3125 48.7344 45.3125 54.3906
Q45.3125 60.0625 41.7188 63.2344
Q38.1406 66.4062 31.7812 66.4062
Q25.3906 66.4062 21.8438 63.2344
Q18.3125 60.0625 18.3125 54.3906" id="BitstreamVeraSans-Roman-38"/>
      </defs>
      <g transform="translate(311.4478125 297.51828125)scale(0.11 -0.11)">
       <use xlink:href="#BitstreamVeraSans-Roman-38"/>
      </g>
     </g>
    </g>
    <g id="xtick_9">
     <g id="line2d_17">
      <path clip-path="url(#pd6b4fd71aa)" d="
M351.398 281.16
L351.398 2.16" style="fill:none;stroke:#efefef;stroke-linecap:square;"/>
     </g>
     <g id="line2d_18">
      <g>
       <use style="fill:#111111;stroke:#111111;stroke-width:0.5;" x="351.3978125" xlink:href="#md11e513213" y="281.16"/>
      </g>
     </g>
     <g id="text_9">
      <!-- 9 -->
      <defs>
       <path d="
M10.9844 1.51562
L10.9844 10.5
Q14.7031 8.73438 18.5 7.8125
Q22.3125 6.89062 25.9844 6.89062
Q35.75 6.89062 40.8906 13.4531
Q46.0469 20.0156 46.7812 33.4062
Q43.9531 29.2031 39.5938 26.9531
Q35.25 24.7031 29.9844 24.7031
Q19.0469 24.7031 12.6719 31.3125
Q6.29688 37.9375 6.29688 49.4219
Q6.29688 60.6406 12.9375 67.4219
Q19.5781 74.2188 30.6094 74.2188
Q43.2656 74.2188 49.9219 64.5156
Q56.5938 54.8281 56.5938 36.375
Q56.5938 19.1406 48.4062 8.85938
Q40.2344 -1.42188 26.4219 -1.42188
Q22.7031 -1.42188 18.8906 -0.6875
Q15.0938 0.046875 10.9844 1.51562
M30.6094 32.4219
Q37.25 32.4219 41.125 36.9531
Q45.0156 41.5 45.0156 49.4219
Q45.0156 57.2812 41.125 61.8438
Q37.25 66.4062 30.6094 66.4062
Q23.9688 66.4062 20.0938 61.8438
Q16.2188 57.2812 16.2188 49.4219
Q16.2188 41.5 20.0938 36.9531
Q23.9688 32.4219 30.6094 32.4219" id="BitstreamVeraSans-Roman-39"/>
      </defs>
      <g transform="translate(348.631484375 297.51828125)scale(0.11 -0.11)">
       <use xlink:href="#BitstreamVeraSans-Roman-39"/>
      </g>
     </g>
    </g>
    <g id="xtick_10">
     <g id="line2d_19">
      <path clip-path="url(#pd6b4fd71aa)" d="
M388.598 281.16
L388.598 2.16" style="fill:none;stroke:#efefef;stroke-linecap:square;"/>
     </g>
     <g id="line2d_20">
      <g>
       <use style="fill:#111111;stroke:#111111;stroke-width:0.5;" x="388.5978125" xlink:href="#md11e513213" y="281.16"/>
      </g>
     </g>
     <g id="text_10">
      <!-- 10 -->
      <defs>
       <path d="
M31.7812 66.4062
Q24.1719 66.4062 20.3281 58.9062
Q16.5 51.4219 16.5 36.375
Q16.5 21.3906 20.3281 13.8906
Q24.1719 6.39062 31.7812 6.39062
Q39.4531 6.39062 43.2812 13.8906
Q47.125 21.3906 47.125 36.375
Q47.125 51.4219 43.2812 58.9062
Q39.4531 66.4062 31.7812 66.4062
M31.7812 74.2188
Q44.0469 74.2188 50.5156 64.5156
Q56.9844 54.8281 56.9844 36.375
Q56.9844 17.9688 50.5156 8.26562
Q44.0469 -1.42188 31.7812 -1.42188
Q19.5312 -1.42188 13.0625 8.26562
Q6.59375 17.9688 6.59375 36.375
Q6.59375 54.8281 13.0625 64.5156
Q19.5312 74.2188 31.7812 74.2188" id="BitstreamVeraSans-Roman-30"/>
      </defs>
      <g transform="translate(382.5684375 297.51828125)scale(0.11 -0.11)">
       <use xlink:href="#BitstreamVeraSans-Roman-31"/>
       <use x="63.623046875" xlink:href="#BitstreamVeraSans-Roman-30"/>
      </g>
     </g>
    </g>
    <g id="xtick_11">
     <g id="line2d_21">
      <path clip-path="url(#pd6b4fd71aa)" d="
M425.798 281.16
L425.798 2.16" style="fill:none;stroke:#efefef;stroke-linecap:square;"/>
     </g>
     <g id="line2d_22">
      <g>
       <use style="fill:#111111;stroke:#111111;stroke-width:0.5;" x="425.7978125" xlink:href="#md11e513213" y="281.16"/>
      </g>
     </g>
     <g id="text_11">
      <!-- 11 -->
      <g transform="translate(419.91109375 297.51828125)scale(0.11 -0.11)">
       <use xlink:href="#BitstreamVeraSans-Roman-31"/>
       <use x="63.623046875" xlink:href="#BitstreamVeraSans-Roman-31"/>
      </g>
     </g>
    </g>
    <g id="xtick_12">
     <g id="line2d_23">
      <path clip-path="url(#pd6b4fd71aa)" d="
M462.998 281.16
L462.998 2.16" style="fill:none;stroke:#efefef;stroke-linecap:square;"/>
     </g>
     <g id="line2d_24">
      <g>
       <use style="fill:#111111;stroke:#111111;stroke-width:0.5;" x="462.9978125" xlink:href="#md11e513213" y="281.16"/>
      </g>
     </g>
     <g id="text_12">
      <!-- 12 -->
      <g transform="translate(457.1540625 297.51828125)scale(0.11 -0.11)">
       <use xlink:href="#BitstreamVeraSans-Roman-31"/>
       <use x="63.623046875" xlink:href="#BitstreamVeraSans-Roman-32"/>
      </g>
     </g>
    </g>
    <g id="xtick_13">
     <g id="line2d_25">
      <path clip-path="url(#pd6b4fd71aa)" d="
M500.198 281.16
L500.198 2.16" style="fill:none;stroke:#efefef;stroke-linecap:square;"/>
     </g>
     <g id="line2d_26">
      <g>
       <use style="fill:#111111;stroke:#111111;stroke-width:0.5;" x="500.1978125" xlink:href="#md11e513213" y="281.16"/>
      </g>
     </g>
     <g id="text_13">
      <!-- 13 -->
      <g transform="translate(494.2440625 297.51828125)scale(0.11 -0.11)">
       <use xlink:href="#BitstreamVeraSans-Roman-31"/>
       <use x="63.623046875" xlink:href="#BitstreamVeraSans-Roman-33"/>
      </g>
     </g>
    </g>
    <g id="xtick_14">
     <g id="line2d_27">
      <path clip-path="url(#pd6b4fd71aa)" d="
M537.398 281.16
L537.398 2.16" style="fill:none;stroke:#efefef;stroke-linecap:square;"/>
     </g>
     <g id="line2d_28">
      <g>
       <use style="fill:#111111;stroke:#111111;stroke-width:0.5;" x="537.3978125" xlink:href="#md11e513213" y="281.16"/>
      </g>
     </g>
     <g id="text_14">
      <!-- 14 -->
      <g transform="translate(531.31171875 297.51828125)scale(0.11 -0.11)">
       <use xlink:href="#BitstreamVeraSans-Roman-31"/>
       <use x="63.623046875" xlink:href="#BitstreamVeraSans-Roman-34"/>
      </g>
     </g>
    </g>
    <g id="xtick_15">
     <g id="line2d_29">
      <path clip-path="url(#pd6b4fd71aa)" d="
M574.598 281.16
L574.598 2.16" style="fill:none;stroke:#efefef;stroke-linecap:square;"/>
     </g>
     <g id="line2d_30">
      <g>
       <use style="fill:#111111;stroke:#111111;stroke-width:0.5;" x="574.5978125" xlink:href="#md11e513213" y="281.16"/>
      </g>
     </g>
     <g id="text_15">
      <!-- 15 -->
      <g transform="translate(568.68359375 297.51828125)scale(0.11 -0.11)">
       <use xlink:href="#BitstreamVeraSans-Roman-31"/>
       <use x="63.623046875" xlink:href="#BitstreamVeraSans-Roman-35"/>
      </g>
     </g>
    </g>
    <g id="xtick_16">
     <g id="line2d_31">
      <path clip-path="url(#pd6b4fd71aa)" d="
M611.798 281.16
L611.798 2.16" style="fill:none;stroke:#efefef;stroke-linecap:square;"/>
     </g>
     <g id="line2d_32">
      <g>
       <use style="fill:#111111;stroke:#111111;stroke-width:0.5;" x="611.7978125" xlink:href="#md11e513213" y="281.16"/>
      </g>
     </g>
     <g id="text_16">
      <!-- 16 -->
      <g transform="translate(605.74953125 297.51828125)scale(0.11 -0.11)">
       <use xlink:href="#BitstreamVeraSans-Roman-31"/>
       <use x="63.623046875" xlink:href="#BitstreamVeraSans-Roman-36"/>
      </g>
     </g>
    </g>
    <g id="text_17">
     <!-- F-number -->
     <defs>
      <path d="
M54.8906 33.0156
L54.8906 0
L45.9062 0
L45.9062 32.7188
Q45.9062 40.4844 42.875 44.3281
Q39.8438 48.1875 33.7969 48.1875
Q26.5156 48.1875 22.3125 43.5469
Q18.1094 38.9219 18.1094 30.9062
L18.1094 0
L9.07812 0
L9.07812 54.6875
L18.1094 54.6875
L18.1094 46.1875
Q21.3438 51.125 25.7031 53.5625
Q30.0781 56 35.7969 56
Q45.2188 56 50.0469 50.1719
Q54.8906 44.3438 54.8906 33.0156" id="BitstreamVeraSans-Roman-6e"/>
      <path d="
M52 44.1875
Q55.375 50.25 60.0625 53.125
Q64.75 56 71.0938 56
Q79.6406 56 84.2812 50.0156
Q88.9219 44.0469 88.9219 33.0156
L88.9219 0
L79.8906 0
L79.8906 32.7188
Q79.8906 40.5781 77.0938 44.375
Q74.3125 48.1875 68.6094 48.1875
Q61.625 48.1875 57.5625 43.5469
Q53.5156 38.9219 53.5156 30.9062
L53.5156 0
L44.4844 0
L44.4844 32.7188
Q44.4844 40.625 41.7031 44.4062
Q38.9219 48.1875 33.1094 48.1875
Q26.2188 48.1875 22.1562 43.5312
Q18.1094 38.875 18.1094 30.9062
L18.1094 0
L9.07812 0
L9.07812 54.6875
L18.1094 54.6875
L18.1094 46.1875
Q21.1875 51.2188 25.4844 53.6094
Q29.7812 56 35.6875 56
Q41.6562 56 45.8281 52.9688
Q50 49.9531 52 44.1875" id="BitstreamVeraSans-Roman-6d"/>
      <path d="
M9.8125 72.9062
L51.7031 72.9062
L51.7031 64.5938
L19.6719 64.5938
L19.6719 43.1094
L48.5781 43.1094
L48.5781 34.8125
L19.6719 34.8125
L19.6719 0
L9.8125 0
z
" id="BitstreamVeraSans-Roman-46"/>
      <path d="
M4.89062 31.3906
L31.2031 31.3906
L31.2031 23.3906
L4.89062 23.3906
z
" id="BitstreamVeraSans-Roman-2d"/>
      <path d="
M56.2031 29.5938
L56.2031 25.2031
L14.8906 25.2031
Q15.4844 15.9219 20.4844 11.0625
Q25.4844 6.20312 34.4219 6.20312
Q39.5938 6.20312 44.4531 7.46875
Q49.3125 8.73438 54.1094 11.2812
L54.1094 2.78125
Q49.2656 0.734375 44.1875 -0.34375
Q39.1094 -1.42188 33.8906 -1.42188
Q20.7969 -1.42188 13.1562 6.1875
Q5.51562 13.8125 5.51562 26.8125
Q5.51562 40.2344 12.7656 48.1094
Q20.0156 56 32.3281 56
Q43.3594 56 49.7812 48.8906
Q56.2031 41.7969 56.2031 29.5938
M47.2188 32.2344
Q47.125 39.5938 43.0938 43.9844
Q39.0625 48.3906 32.4219 48.3906
Q24.9062 48.3906 20.3906 44.1406
Q15.875 39.8906 15.1875 32.1719
z
" id="BitstreamVeraSans-Roman-65"/>
      <path d="
M8.5 21.5781
L8.5 54.6875
L17.4844 54.6875
L17.4844 21.9219
Q17.4844 14.1562 20.5 10.2656
Q23.5312 6.39062 29.5938 6.39062
Q36.8594 6.39062 41.0781 11.0312
Q45.3125 15.6719 45.3125 23.6875
L45.3125 54.6875
L54.2969 54.6875
L54.2969 0
L45.3125 0
L45.3125 8.40625
Q42.0469 3.42188 37.7188 1
Q33.4062 -1.42188 27.6875 -1.42188
Q18.2656 -1.42188 13.375 4.4375
Q8.5 10.2969 8.5 21.5781" id="BitstreamVeraSans-Roman-75"/>
      <path d="
M41.1094 46.2969
Q39.5938 47.1719 37.8125 47.5781
Q36.0312 48 33.8906 48
Q26.2656 48 22.1875 43.0469
Q18.1094 38.0938 18.1094 28.8125
L18.1094 0
L9.07812 0
L9.07812 54.6875
L18.1094 54.6875
L18.1094 46.1875
Q20.9531 51.1719 25.4844 53.5781
Q30.0312 56 36.5312 56
Q37.4531 56 38.5781 55.875
Q39.7031 55.7656 41.0625 55.5156
z
" id="BitstreamVeraSans-Roman-72"/>
      <path d="
M48.6875 27.2969
Q48.6875 37.2031 44.6094 42.8438
Q40.5312 48.4844 33.4062 48.4844
Q26.2656 48.4844 22.1875 42.8438
Q18.1094 37.2031 18.1094 27.2969
Q18.1094 17.3906 22.1875 11.75
Q26.2656 6.10938 33.4062 6.10938
Q40.5312 6.10938 44.6094 11.75
Q48.6875 17.3906 48.6875 27.2969
M18.1094 46.3906
Q20.9531 51.2656 25.2656 53.625
Q29.5938 56 35.5938 56
Q45.5625 56 51.7812 48.0938
Q58.0156 40.1875 58.0156 27.2969
Q58.0156 14.4062 51.7812 6.48438
Q45.5625 -1.42188 35.5938 -1.42188
Q29.5938 -1.42188 25.2656 0.953125
Q20.9531 3.32812 18.1094 8.20312
L18.1094 0
L9.07812 0
L9.07812 75.9844
L18.1094 75.9844
z
" id="BitstreamVeraSans-Roman-62"/>
     </defs>
     <g style="fill:#1a1a1a;" transform="translate(301.98375 314.68390625)scale(0.13 -0.13)">
      <use xlink:href="#BitstreamVeraSans-Roman-46"/>
      <use x="57.51953125" xlink:href="#BitstreamVeraSans-Roman-2d"/>
      <use x="93.603515625" xlink:href="#BitstreamVeraSans-Roman-6e"/>
      <use x="156.982421875" xlink:href="#BitstreamVeraSans-Roman-75"/>
      <use x="220.361328125" xlink:href="#BitstreamVeraSans-Roman-6d"/>
      <use x="317.7734375" xlink:href="#BitstreamVeraSans-Roman-62"/>
      <use x="381.25" xlink:href="#BitstreamVeraSans-Roman-65"/>
      <use x="442.7734375" xlink:href="#BitstreamVeraSans-Roman-72"/>
     </g>
    </g>
   </g>
   <g id="matplotlib.axis_2">
    <g id="ytick_1">
     <g id="line2d_33">
      <path clip-path="url(#pd6b4fd71aa)" d="
M53.7978 281.16
L611.798 281.16" style="fill:none;stroke:#efefef;stroke-linecap:square;"/>
     </g>
     <g id="line2d_34">
      <defs>
       <path d="
M0 0
L-4 0" id="m3cf9b8fc09" style="stroke:#111111;stroke-width:0.5;"/>
      </defs>
      <g>
       <use style="fill:#111111;stroke:#111111;stroke-width:0.5;" x="53.7978125" xlink:href="#m3cf9b8fc09" y="281.16"/>
      </g>
     </g>
     <g id="text_18">
      <!-- 0 -->
      <g transform="translate(40.25484375 284.1953125)scale(0.11 -0.11)">
       <use xlink:href="#BitstreamVeraSans-Roman-30"/>
      </g>
     </g>
    </g>
    <g id="ytick_2">
     <g id="line2d_35">
      <path clip-path="url(#pd6b4fd71aa)" d="
M53.7978 257.445
L611.798 257.445" style="fill:none;stroke:#efefef;stroke-linecap:square;"/>
     </g>
     <g id="line2d_36">
      <g>
       <use style="fill:#111111;stroke:#111111;stroke-width:0.5;" x="53.7978125" xlink:href="#m3cf9b8fc09" y="257.445"/>
      </g>
     </g>
     <g id="text_19">
      <!-- 100 -->
      <g transform="translate(26.7403125 260.4803125)scale(0.11 -0.11)">
       <use xlink:href="#BitstreamVeraSans-Roman-31"/>
       <use x="63.623046875" xlink:href="#BitstreamVeraSans-Roman-30"/>
       <use x="127.24609375" xlink:href="#BitstreamVeraSans-Roman-30"/>
      </g>
     </g>
    </g>
    <g id="ytick_3">
     <g id="line2d_37">
      <path clip-path="url(#pd6b4fd71aa)" d="
M53.7978 233.73
L611.798 233.73" style="fill:none;stroke:#efefef;stroke-linecap:square;"/>
     </g>
     <g id="line2d_38">
      <g>
       <use style="fill:#111111;stroke:#111111;stroke-width:0.5;" x="53.7978125" xlink:href="#m3cf9b8fc09" y="233.73"/>
      </g>
     </g>
     <g id="text_20">
      <!-- 200 -->
      <g transform="translate(26.338125 236.7653125)scale(0.11 -0.11)">
       <use xlink:href="#BitstreamVeraSans-Roman-32"/>
       <use x="63.623046875" xlink:href="#BitstreamVeraSans-Roman-30"/>
       <use x="127.24609375" xlink:href="#BitstreamVeraSans-Roman-30"/>
      </g>
     </g>
    </g>
    <g id="ytick_4">
     <g id="line2d_39">
      <path clip-path="url(#pd6b4fd71aa)" d="
M53.7978 210.015
L611.798 210.015" style="fill:none;stroke:#efefef;stroke-linecap:square;"/>
     </g>
     <g id="line2d_40">
      <g>
       <use style="fill:#111111;stroke:#111111;stroke-width:0.5;" x="53.7978125" xlink:href="#m3cf9b8fc09" y="210.015"/>
      </g>
     </g>
     <g id="text_21">
      <!-- 300 -->
      <g transform="translate(26.37078125 213.0503125)scale(0.11 -0.11)">
       <use xlink:href="#BitstreamVeraSans-Roman-33"/>
       <use x="63.623046875" xlink:href="#BitstreamVeraSans-Roman-30"/>
       <use x="127.24609375" xlink:href="#BitstreamVeraSans-Roman-30"/>
      </g>
     </g>
    </g>
    <g id="ytick_5">
     <g id="line2d_41">
      <path clip-path="url(#pd6b4fd71aa)" d="
M53.7978 186.3
L611.798 186.3" style="fill:none;stroke:#efefef;stroke-linecap:square;"/>
     </g>
     <g id="line2d_42">
      <g>
       <use style="fill:#111111;stroke:#111111;stroke-width:0.5;" x="53.7978125" xlink:href="#m3cf9b8fc09" y="186.3"/>
      </g>
     </g>
     <g id="text_22">
      <!-- 400 -->
      <g transform="translate(26.07 189.3353125)scale(0.11 -0.11)">
       <use xlink:href="#BitstreamVeraSans-Roman-34"/>
       <use x="63.623046875" xlink:href="#BitstreamVeraSans-Roman-30"/>
       <use x="127.24609375" xlink:href="#BitstreamVeraSans-Roman-30"/>
      </g>
     </g>
    </g>
    <g id="ytick_6">
     <g id="line2d_43">
      <path clip-path="url(#pd6b4fd71aa)" d="
M53.7978 162.585
L611.798 162.585" style="fill:none;stroke:#efefef;stroke-linecap:square;"/>
     </g>
     <g id="line2d_44">
      <g>
       <use style="fill:#111111;stroke:#111111;stroke-width:0.5;" x="53.7978125" xlink:href="#m3cf9b8fc09" y="162.585"/>
      </g>
     </g>
     <g id="text_23">
      <!-- 500 -->
      <g transform="translate(26.38109375 165.6203125)scale(0.11 -0.11)">
       <use xlink:href="#BitstreamVeraSans-Roman-35"/>
       <use x="63.623046875" xlink:href="#BitstreamVeraSans-Roman-30"/>
       <use x="127.24609375" xlink:href="#BitstreamVeraSans-Roman-30"/>
      </g>
     </g>
    </g>
    <g id="ytick_7">
     <g id="line2d_45">
      <path clip-path="url(#pd6b4fd71aa)" d="
M53.7978 138.87
L611.798 138.87" style="fill:none;stroke:#efefef;stroke-linecap:square;"/>
     </g>
     <g id="line2d_46">
      <g>
       <use style="fill:#111111;stroke:#111111;stroke-width:0.5;" x="53.7978125" xlink:href="#m3cf9b8fc09" y="138.87"/>
      </g>
     </g>
     <g id="text_24">
      <!-- 600 -->
      <g transform="translate(26.3003125 141.9053125)scale(0.11 -0.11)">
       <use xlink:href="#BitstreamVeraSans-Roman-36"/>
       <use x="63.623046875" xlink:href="#BitstreamVeraSans-Roman-30"/>
       <use x="127.24609375" xlink:href="#BitstreamVeraSans-Roman-30"/>
      </g>
     </g>
    </g>
    <g id="ytick_8">
     <g id="line2d_47">
      <path clip-path="url(#pd6b4fd71aa)" d="
M53.7978 115.155
L611.798 115.155" style="fill:none;stroke:#efefef;stroke-linecap:square;"/>
     </g>
     <g id="line2d_48">
      <g>
       <use style="fill:#111111;stroke:#111111;stroke-width:0.5;" x="53.7978125" xlink:href="#m3cf9b8fc09" y="115.155"/>
      </g>
     </g>
     <g id="text_25">
      <!-- 700 -->
      <g transform="translate(26.434375 118.1903125)scale(0.11 -0.11)">
       <use xlink:href="#BitstreamVeraSans-Roman-37"/>
       <use x="63.623046875" xlink:href="#BitstreamVeraSans-Roman-30"/>
       <use x="127.24609375" xlink:href="#BitstreamVeraSans-Roman-30"/>
      </g>
     </g>
    </g>
    <g id="ytick_9">
     <g id="line2d_49">
      <path clip-path="url(#pd6b4fd71aa)" d="
M53.7978 91.44
L611.798 91.44" style="fill:none;stroke:#efefef;stroke-linecap:square;"/>
     </g>
     <g id="line2d_50">
      <g>
       <use style="fill:#111111;stroke:#111111;stroke-width:0.5;" x="53.7978125" xlink:href="#m3cf9b8fc09" y="91.44"/>
      </g>
     </g>
     <g id="text_26">
      <!-- 800 -->
      <g transform="translate(26.27796875 94.4753125)scale(0.11 -0.11)">
       <use xlink:href="#BitstreamVeraSans-Roman-38"/>
       <use x="63.623046875" xlink:href="#BitstreamVeraSans-Roman-30"/>
       <use x="127.24609375" xlink:href="#BitstreamVeraSans-Roman-30"/>
      </g>
     </g>
    </g>
    <g id="ytick_10">
     <g id="line2d_51">
      <path clip-path="url(#pd6b4fd71aa)" d="
M53.7978 67.725
L611.798 67.725" style="fill:none;stroke:#efefef;stroke-linecap:square;"/>
     </g>
     <g id="line2d_52">
      <g>
       <use style="fill:#111111;stroke:#111111;stroke-width:0.5;" x="53.7978125" xlink:href="#m3cf9b8fc09" y="67.725"/>
      </g>
     </g>
     <g id="text_27">
      <!-- 900 -->
      <g transform="translate(26.2246875 70.7603125)scale(0.11 -0.11)">
       <use xlink:href="#BitstreamVeraSans-Roman-39"/>
       <use x="63.623046875" xlink:href="#BitstreamVeraSans-Roman-30"/>
       <use x="127.24609375" xlink:href="#BitstreamVeraSans-Roman-30"/>
      </g>
     </g>
    </g>
    <g id="ytick_11">
     <g id="line2d_53">
      <path clip-path="url(#pd6b4fd71aa)" d="
M53.7978 44.01
L611.798 44.01" style="fill:none;stroke:#efefef;stroke-linecap:square;"/>
     </g>
     <g id="line2d_54">
      <g>
       <use style="fill:#111111;stroke:#111111;stroke-width:0.5;" x="53.7978125" xlink:href="#m3cf9b8fc09" y="44.01"/>
      </g>
     </g>
     <g id="text_28">
      <!-- 1000 -->
      <g transform="translate(19.7415625 47.0453125)scale(0.11 -0.11)">
       <use xlink:href="#BitstreamVeraSans-Roman-31"/>
       <use x="63.623046875" xlink:href="#BitstreamVeraSans-Roman-30"/>
       <use x="127.24609375" xlink:href="#BitstreamVeraSans-Roman-30"/>
       <use x="190.869140625" xlink:href="#BitstreamVeraSans-Roman-30"/>
      </g>
     </g>
    </g>
    <g id="ytick_12">
     <g id="line2d_55">
      <path clip-path="url(#pd6b4fd71aa)" d="
M53.7978 20.295
L611.798 20.295" style="fill:none;stroke:#efefef;stroke-linecap:square;"/>
     </g>
     <g id="line2d_56">
      <g>
       <use style="fill:#111111;stroke:#111111;stroke-width:0.5;" x="53.7978125" xlink:href="#m3cf9b8fc09" y="20.295"/>
      </g>
     </g>
     <g id="text_29">
      <!-- 1100 -->
      <g transform="translate(19.7415625 23.3303125)scale(0.11 -0.11)">
       <use xlink:href="#BitstreamVeraSans-Roman-31"/>
       <use x="63.623046875" xlink:href="#BitstreamVeraSans-Roman-31"/>
       <use x="127.24609375" xlink:href="#BitstreamVeraSans-Roman-30"/>
       <use x="190.869140625" xlink:href="#BitstreamVeraSans-Roman-30"/>
      </g>
     </g>
    </g>
    <g id="text_30">
     <!-- Spatial frequency (lp/mm) -->
     <defs>
      <path id="BitstreamVeraSans-Roman-20"/>
      <path d="
M8.01562 75.875
L15.8281 75.875
Q23.1406 64.3594 26.7812 53.3125
Q30.4219 42.2812 30.4219 31.3906
Q30.4219 20.4531 26.7812 9.375
Q23.1406 -1.70312 15.8281 -13.1875
L8.01562 -13.1875
Q14.5 -2 17.7031 9.0625
Q20.9062 20.125 20.9062 31.3906
Q20.9062 42.6719 17.7031 53.6562
Q14.5 64.6562 8.01562 75.875" id="BitstreamVeraSans-Roman-29"/>
      <path d="
M31 75.875
Q24.4688 64.6562 21.2812 53.6562
Q18.1094 42.6719 18.1094 31.3906
Q18.1094 20.125 21.3125 9.0625
Q24.5156 -2 31 -13.1875
L23.1875 -13.1875
Q15.875 -1.70312 12.2344 9.375
Q8.59375 20.4531 8.59375 31.3906
Q8.59375 42.2812 12.2031 53.3125
Q15.8281 64.3594 23.1875 75.875
z
" id="BitstreamVeraSans-Roman-28"/>
      <path d="
M25.3906 72.9062
L33.6875 72.9062
L8.29688 -9.28125
L0 -9.28125
z
" id="BitstreamVeraSans-Roman-2f"/>
      <path d="
M9.42188 75.9844
L18.4062 75.9844
L18.4062 0
L9.42188 0
z
" id="BitstreamVeraSans-Roman-6c"/>
      <path d="
M53.5156 70.5156
L53.5156 60.8906
Q47.9062 63.5781 42.9219 64.8906
Q37.9375 66.2188 33.2969 66.2188
Q25.25 66.2188 20.875 63.0938
Q16.5 59.9688 16.5 54.2031
Q16.5 49.3594 19.4062 46.8906
Q22.3125 44.4375 30.4219 42.9219
L36.375 41.7031
Q47.4062 39.5938 52.6562 34.2969
Q57.9062 29 57.9062 20.125
Q57.9062 9.51562 50.7969 4.04688
Q43.7031 -1.42188 29.9844 -1.42188
Q24.8125 -1.42188 18.9688 -0.25
Q13.1406 0.921875 6.89062 3.21875
L6.89062 13.375
Q12.8906 10.0156 18.6562 8.29688
Q24.4219 6.59375 29.9844 6.59375
Q38.4219 6.59375 43.0156 9.90625
Q47.6094 13.2344 47.6094 19.3906
Q47.6094 24.75 44.3125 27.7812
Q41.0156 30.8125 33.5 32.3281
L27.4844 33.5
Q16.4531 35.6875 11.5156 40.375
Q6.59375 45.0625 6.59375 53.4219
Q6.59375 63.0938 13.4062 68.6562
Q20.2188 74.2188 32.1719 74.2188
Q37.3125 74.2188 42.625 73.2812
Q47.9531 72.3594 53.5156 70.5156" id="BitstreamVeraSans-Roman-53"/>
      <path d="
M9.42188 54.6875
L18.4062 54.6875
L18.4062 0
L9.42188 0
z

M9.42188 75.9844
L18.4062 75.9844
L18.4062 64.5938
L9.42188 64.5938
z
" id="BitstreamVeraSans-Roman-69"/>
      <path d="
M48.7812 52.5938
L48.7812 44.1875
Q44.9688 46.2969 41.1406 47.3438
Q37.3125 48.3906 33.4062 48.3906
Q24.6562 48.3906 19.8125 42.8438
Q14.9844 37.3125 14.9844 27.2969
Q14.9844 17.2812 19.8125 11.7344
Q24.6562 6.20312 33.4062 6.20312
Q37.3125 6.20312 41.1406 7.25
Q44.9688 8.29688 48.7812 10.4062
L48.7812 2.09375
Q45.0156 0.34375 40.9844 -0.53125
Q36.9688 -1.42188 32.4219 -1.42188
Q20.0625 -1.42188 12.7812 6.34375
Q5.51562 14.1094 5.51562 27.2969
Q5.51562 40.6719 12.8594 48.3281
Q20.2188 56 33.0156 56
Q37.1562 56 41.1094 55.1406
Q45.0625 54.2969 48.7812 52.5938" id="BitstreamVeraSans-Roman-63"/>
      <path d="
M32.1719 -5.07812
Q28.375 -14.8438 24.75 -17.8125
Q21.1406 -20.7969 15.0938 -20.7969
L7.90625 -20.7969
L7.90625 -13.2812
L13.1875 -13.2812
Q16.8906 -13.2812 18.9375 -11.5156
Q21 -9.76562 23.4844 -3.21875
L25.0938 0.875
L2.98438 54.6875
L12.5 54.6875
L29.5938 11.9219
L46.6875 54.6875
L56.2031 54.6875
z
" id="BitstreamVeraSans-Roman-79"/>
      <path d="
M18.3125 70.2188
L18.3125 54.6875
L36.8125 54.6875
L36.8125 47.7031
L18.3125 47.7031
L18.3125 18.0156
Q18.3125 11.3281 20.1406 9.42188
Q21.9688 7.51562 27.5938 7.51562
L36.8125 7.51562
L36.8125 0
L27.5938 0
Q17.1875 0 13.2344 3.875
Q9.28125 7.76562 9.28125 18.0156
L9.28125 47.7031
L2.6875 47.7031
L2.6875 54.6875
L9.28125 54.6875
L9.28125 70.2188
z
" id="BitstreamVeraSans-Roman-74"/>
      <path d="
M37.1094 75.9844
L37.1094 68.5
L28.5156 68.5
Q23.6875 68.5 21.7969 66.5469
Q19.9219 64.5938 19.9219 59.5156
L19.9219 54.6875
L34.7188 54.6875
L34.7188 47.7031
L19.9219 47.7031
L19.9219 0
L10.8906 0
L10.8906 47.7031
L2.29688 47.7031
L2.29688 54.6875
L10.8906 54.6875
L10.8906 58.5
Q10.8906 67.625 15.1406 71.7969
Q19.3906 75.9844 28.6094 75.9844
z
" id="BitstreamVeraSans-Roman-66"/>
      <path d="
M34.2812 27.4844
Q23.3906 27.4844 19.1875 25
Q14.9844 22.5156 14.9844 16.5
Q14.9844 11.7188 18.1406 8.90625
Q21.2969 6.10938 26.7031 6.10938
Q34.1875 6.10938 38.7031 11.4062
Q43.2188 16.7031 43.2188 25.4844
L43.2188 27.4844
z

M52.2031 31.2031
L52.2031 0
L43.2188 0
L43.2188 8.29688
Q40.1406 3.32812 35.5469 0.953125
Q30.9531 -1.42188 24.3125 -1.42188
Q15.9219 -1.42188 10.9531 3.29688
Q6 8.01562 6 15.9219
Q6 25.1406 12.1719 29.8281
Q18.3594 34.5156 30.6094 34.5156
L43.2188 34.5156
L43.2188 35.4062
Q43.2188 41.6094 39.1406 45
Q35.0625 48.3906 27.6875 48.3906
Q23 48.3906 18.5469 47.2656
Q14.1094 46.1406 10.0156 43.8906
L10.0156 52.2031
Q14.9375 54.1094 19.5781 55.0469
Q24.2188 56 28.6094 56
Q40.4844 56 46.3438 49.8438
Q52.2031 43.7031 52.2031 31.2031" id="BitstreamVeraSans-Roman-61"/>
      <path d="
M18.1094 8.20312
L18.1094 -20.7969
L9.07812 -20.7969
L9.07812 54.6875
L18.1094 54.6875
L18.1094 46.3906
Q20.9531 51.2656 25.2656 53.625
Q29.5938 56 35.5938 56
Q45.5625 56 51.7812 48.0938
Q58.0156 40.1875 58.0156 27.2969
Q58.0156 14.4062 51.7812 6.48438
Q45.5625 -1.42188 35.5938 -1.42188
Q29.5938 -1.42188 25.2656 0.953125
Q20.9531 3.32812 18.1094 8.20312
M48.6875 27.2969
Q48.6875 37.2031 44.6094 42.8438
Q40.5312 48.4844 33.4062 48.4844
Q26.2656 48.4844 22.1875 42.8438
Q18.1094 37.2031 18.1094 27.2969
Q18.1094 17.3906 22.1875 11.75
Q26.2656 6.10938 33.4062 6.10938
Q40.5312 6.10938 44.6094 11.75
Q48.6875 17.3906 48.6875 27.2969" id="BitstreamVeraSans-Roman-70"/>
      <path d="
M14.7969 27.2969
Q14.7969 17.3906 18.875 11.75
Q22.9531 6.10938 30.0781 6.10938
Q37.2031 6.10938 41.2969 11.75
Q45.4062 17.3906 45.4062 27.2969
Q45.4062 37.2031 41.2969 42.8438
Q37.2031 48.4844 30.0781 48.4844
Q22.9531 48.4844 18.875 42.8438
Q14.7969 37.2031 14.7969 27.2969
M45.4062 8.20312
Q42.5781 3.32812 38.25 0.953125
Q33.9375 -1.42188 27.875 -1.42188
Q17.9688 -1.42188 11.7344 6.48438
Q5.51562 14.4062 5.51562 27.2969
Q5.51562 40.1875 11.7344 48.0938
Q17.9688 56 27.875 56
Q33.9375 56 38.25 53.625
Q42.5781 51.2656 45.4062 46.3906
L45.4062 54.6875
L54.3906 54.6875
L54.3906 -20.7969
L45.4062 -20.7969
z
" id="BitstreamVeraSans-Roman-71"/>
     </defs>
     <g style="fill:#1a1a1a;" transform="translate(12.03796875 226.06859375)rotate(-90.0)scale(0.13 -0.13)">
      <use xlink:href="#BitstreamVeraSans-Roman-53"/>
      <use x="63.4765625" xlink:href="#BitstreamVeraSans-Roman-70"/>
      <use x="126.953125" xlink:href="#BitstreamVeraSans-Roman-61"/>
      <use x="188.232421875" xlink:href="#BitstreamVeraSans-Roman-74"/>
      <use x="227.44140625" xlink:href="#BitstreamVeraSans-Roman-69"/>
      <use x="255.224609375" xlink:href="#BitstreamVeraSans-Roman-61"/>
      <use x="316.50390625" xlink:href="#BitstreamVeraSans-Roman-6c"/>
      <use x="344.287109375" xlink:href="#BitstreamVeraSans-Roman-20"/>
      <use x="376.07421875" xlink:href="#BitstreamVeraSans-Roman-66"/>
      <use x="411.279296875" xlink:href="#BitstreamVeraSans-Roman-72"/>
      <use x="450.142578125" xlink:href="#BitstreamVeraSans-Roman-65"/>
      <use x="511.666015625" xlink:href="#BitstreamVeraSans-Roman-71"/>
      <use x="575.142578125" xlink:href="#BitstreamVeraSans-Roman-75"/>
      <use x="638.521484375" xlink:href="#BitstreamVeraSans-Roman-65"/>
      <use x="700.044921875" xlink:href="#BitstreamVeraSans-Roman-6e"/>
      <use x="763.423828125" xlink:href="#BitstreamVeraSans-Roman-63"/>
      <use x="818.404296875" xlink:href="#BitstreamVeraSans-Roman-79"/>
      <use x="877.583984375" xlink:href="#BitstreamVeraSans-Roman-20"/>
      <use x="909.37109375" xlink:href="#BitstreamVeraSans-Roman-28"/>
      <use x="948.384765625" xlink:href="#BitstreamVeraSans-Roman-6c"/>
      <use x="976.16796875" xlink:href="#BitstreamVeraSans-Roman-70"/>
      <use x="1039.64453125" xlink:href="#BitstreamVeraSans-Roman-2f"/>
      <use x="1073.3359375" xlink:href="#BitstreamVeraSans-Roman-6d"/>
      <use x="1170.74804688" xlink:href="#BitstreamVeraSans-Roman-6d"/>
      <use x="1268.16015625" xlink:href="#BitstreamVeraSans-Roman-29"/>
     </g>
    </g>
   </g>
   <g id="line2d_57">
    <path clip-path="url(#pd6b4fd71aa)" d="
M53.7978 2.16
L57.5178 27.5236
L61.2378 48.66
L64.9578 66.5446
L68.6778 81.8743
L72.3978 95.16
L76.1178 106.785
L79.8378 117.042
L83.5578 126.16
L87.2778 134.318
L90.9978 141.66
L94.7178 148.303
L98.4378 154.342
L102.158 159.856
L105.878 164.91
L109.598 169.56
L113.318 173.852
L117.038 177.827
L120.758 181.517
L124.478 184.953
L128.198 188.16
L131.918 191.16
L135.638 193.973
L139.358 196.615
L143.078 199.101
L150.518 203.66
L157.958 207.739
L165.398 211.41
L172.838 214.731
L180.278 217.751
L187.718 220.508
L195.158 223.035
L202.598 225.36
L210.038 227.506
L221.198 230.433
L232.358 233.057
L243.518 235.422
L254.678 237.566
L265.838 239.518
L280.718 241.864
L295.598 243.96
L310.478 245.844
L329.078 247.946
L347.678 249.812
L369.998 251.792
L392.318 253.536
L418.358 255.327
L444.398 256.899
L474.158 258.477
L507.638 260.024
L544.838 261.512
L585.758 262.925
L611.798 263.723
L611.798 263.723" style="fill:none;stroke:#9ecae1;stroke-linecap:square;stroke-width:2;"/>
   </g>
   <g id="line2d_58">
    <path clip-path="url(#pd6b4fd71aa)" d="
M53.7978 89.4734
L57.5178 106.899
L61.2378 121.421
L64.9578 133.709
L68.6778 144.241
L72.3978 153.369
L76.1178 161.356
L79.8378 168.403
L83.5578 174.667
L87.2778 180.272
L90.9978 185.317
L94.7178 189.881
L98.4378 194.03
L102.158 197.818
L105.878 201.291
L109.598 204.485
L113.318 207.434
L117.038 210.165
L120.758 212.7
L124.478 215.061
L128.198 217.264
L131.918 219.326
L139.358 223.073
L146.798 226.392
L154.238 229.353
L161.678 232.01
L169.118 234.407
L176.558 236.582
L183.998 238.563
L191.438 240.376
L202.598 242.823
L213.758 244.993
L224.918 246.93
L236.078 248.671
L250.958 250.734
L265.838 252.55
L280.718 254.162
L299.318 255.938
L317.918 257.495
L340.238 259.127
L362.558 260.549
L388.598 261.991
L418.358 263.411
L451.838 264.777
L489.038 266.067
L529.958 267.27
L578.318 268.466
L611.798 269.18
L611.798 269.18" style="fill:none;stroke:#6baed6;stroke-linecap:square;stroke-width:2;"/>
   </g>
   <g id="line2d_59">
    <path clip-path="url(#pd6b4fd71aa)" d="
M53.7978 191.966
L57.5178 200.075
L61.2378 206.832
L64.9578 212.549
L68.6778 217.45
L72.3978 221.697
L76.1178 225.414
L79.8378 228.693
L83.5578 231.608
L87.2778 234.216
L90.9978 236.563
L94.7178 238.687
L98.4378 240.617
L102.158 242.38
L105.878 243.996
L113.318 246.855
L120.758 249.305
L128.198 251.429
L135.638 253.287
L143.078 254.926
L150.518 256.384
L161.678 258.29
L172.838 259.923
L183.998 261.339
L198.878 262.957
L213.758 264.331
L232.358 265.782
L250.958 267.002
L273.278 268.233
L299.318 269.424
L329.078 270.542
L362.558 271.569
L403.478 272.584
L451.838 273.537
L507.638 274.403
L574.598 275.214
L611.798 275.585
L611.798 275.585" style="fill:none;stroke:#d73027;stroke-linecap:square;stroke-width:2;"/>
   </g>
   <g id="line2d_60">
    <path clip-path="url(#pd6b4fd71aa)" d="
M53.7978 237.152
L57.5178 241.152
L61.2378 244.486
L64.9578 247.307
L68.6778 249.725
L72.3978 251.821
L76.1178 253.655
L79.8378 255.273
L83.5578 256.711
L87.2778 257.998
L94.7178 260.204
L102.158 262.026
L109.598 263.557
L117.038 264.861
L124.478 265.985
L135.638 267.407
L146.798 268.586
L161.678 269.876
L176.558 270.925
L195.158 271.992
L217.478 273.01
L243.518 273.946
L273.278 274.782
L310.478 275.589
L355.118 276.324
L410.918 277.008
L481.598 277.639
L570.878 278.206
L611.798 278.409
L611.798 278.409" style="fill:none;stroke:#2171b5;stroke-linecap:square;stroke-width:2;"/>
   </g>
   <g id="line2d_61">
    <path clip-path="url(#pd6b4fd71aa)" d="
M53.7978 274.586
L57.5178 275.183
L61.2378 275.681
L68.6778 276.464
L79.8378 277.293
L90.9978 277.873
L105.878 278.421
L128.198 278.969
L157.958 279.43
L198.878 279.818
L262.118 280.164
L358.838 280.445
L526.238 280.68
L611.798 280.749
L611.798 280.749" style="fill:none;stroke:#08519c;stroke-linecap:square;stroke-width:2;"/>
   </g>
   <g id="patch_3">
    <path d="
M221.198 175.778
Q221.198 201.975 221.198 228.171" style="fill:none;stroke:#0d0d0d;stroke-linecap:round;stroke-width:0.45;"/>
   </g>
   <g id="text_31">
    <!-- 0% MTF -->
    <defs>
     <path d="
M-0.296875 72.9062
L61.375 72.9062
L61.375 64.5938
L35.5 64.5938
L35.5 0
L25.5938 0
L25.5938 64.5938
L-0.296875 64.5938
z
" id="BitstreamVeraSans-Roman-54"/>
     <path d="
M9.8125 72.9062
L24.5156 72.9062
L43.1094 23.2969
L61.8125 72.9062
L76.5156 72.9062
L76.5156 0
L66.8906 0
L66.8906 64.0156
L48.0938 14.0156
L38.1875 14.0156
L19.3906 64.0156
L19.3906 0
L9.8125 0
z
" id="BitstreamVeraSans-Roman-4d"/>
     <path d="
M72.7031 32.0781
Q68.4531 32.0781 66.0312 28.4688
Q63.625 24.8594 63.625 18.4062
Q63.625 12.0625 66.0312 8.42188
Q68.4531 4.78125 72.7031 4.78125
Q76.8594 4.78125 79.2656 8.42188
Q81.6875 12.0625 81.6875 18.4062
Q81.6875 24.8125 79.2656 28.4375
Q76.8594 32.0781 72.7031 32.0781
M72.7031 38.2812
Q80.4219 38.2812 84.9531 32.9062
Q89.5 27.5469 89.5 18.4062
Q89.5 9.28125 84.9375 3.92188
Q80.375 -1.42188 72.7031 -1.42188
Q64.8906 -1.42188 60.3438 3.92188
Q55.8125 9.28125 55.8125 18.4062
Q55.8125 27.5938 60.375 32.9375
Q64.9375 38.2812 72.7031 38.2812
M22.3125 68.0156
Q18.1094 68.0156 15.6875 64.375
Q13.2812 60.75 13.2812 54.3906
Q13.2812 47.9531 15.6719 44.3281
Q18.0625 40.7188 22.3125 40.7188
Q26.5625 40.7188 28.9688 44.3281
Q31.3906 47.9531 31.3906 54.3906
Q31.3906 60.6875 28.9531 64.3438
Q26.5156 68.0156 22.3125 68.0156
M66.4062 74.2188
L74.2188 74.2188
L28.6094 -1.42188
L20.7969 -1.42188
z

M22.3125 74.2188
Q30.0312 74.2188 34.6094 68.875
Q39.2031 63.5312 39.2031 54.3906
Q39.2031 45.1719 34.6406 39.8438
Q30.0781 34.5156 22.3125 34.5156
Q14.5469 34.5156 10.0312 39.8594
Q5.51562 45.2188 5.51562 54.3906
Q5.51562 63.4844 10.0469 68.8438
Q14.5938 74.2188 22.3125 74.2188" id="BitstreamVeraSans-Roman-25"/>
    </defs>
    <g transform="translate(221.1978125 169.6995)scale(0.1 -0.1)">
     <use xlink:href="#BitstreamVeraSans-Roman-30"/>
     <use x="63.623046875" xlink:href="#BitstreamVeraSans-Roman-25"/>
     <use x="158.642578125" xlink:href="#BitstreamVeraSans-Roman-20"/>
     <use x="190.4296875" xlink:href="#BitstreamVeraSans-Roman-4d"/>
     <use x="276.708984375" xlink:href="#BitstreamVeraSans-Roman-54"/>
     <use x="337.79296875" xlink:href="#BitstreamVeraSans-Roman-46"/>
    </g>
   </g>
   <g id="patch_4">
    <path d="
M239.798 188.817
Q239.798 218.1 239.798 247.382" style="fill:none;stroke:#0d0d0d;stroke-linecap:round;stroke-width:0.45;"/>
   </g>
   <g id="text_32">
    <!-- 20% MTF -->
    <g transform="translate(239.7978125 182.74275)scale(0.1 -0.1)">
     <use xlink:href="#BitstreamVeraSans-Roman-32"/>
     <use x="63.623046875" xlink:href="#BitstreamVeraSans-Roman-30"/>
     <use x="127.24609375" xlink:href="#BitstreamVeraSans-Roman-25"/>
     <use x="222.265625" xlink:href="#BitstreamVeraSans-Roman-20"/>
     <use x="254.052734375" xlink:href="#BitstreamVeraSans-Roman-4d"/>
     <use x="340.33203125" xlink:href="#BitstreamVeraSans-Roman-54"/>
     <use x="401.416015625" xlink:href="#BitstreamVeraSans-Roman-46"/>
    </g>
   </g>
   <g id="patch_5">
    <path d="
M258.398 201.864
Q258.398 233.637 258.398 265.409" style="fill:none;stroke:#0d0d0d;stroke-linecap:round;stroke-width:0.45;"/>
   </g>
   <g id="text_33">
    <!-- 60% MTF -->
    <g style="fill:#d73027;" transform="translate(258.3978125 195.786)scale(0.1 -0.1)">
     <use xlink:href="#BitstreamVeraSans-Roman-36"/>
     <use x="63.623046875" xlink:href="#BitstreamVeraSans-Roman-30"/>
     <use x="127.24609375" xlink:href="#BitstreamVeraSans-Roman-25"/>
     <use x="222.265625" xlink:href="#BitstreamVeraSans-Roman-20"/>
     <use x="254.052734375" xlink:href="#BitstreamVeraSans-Roman-4d"/>
     <use x="340.33203125" xlink:href="#BitstreamVeraSans-Roman-54"/>
     <use x="401.416015625" xlink:href="#BitstreamVeraSans-Roman-46"/>
    </g>
   </g>
   <g id="patch_6">
    <path d="
M276.998 215.384
Q276.998 244.107 276.998 272.829" style="fill:none;stroke:#0d0d0d;stroke-linecap:round;stroke-width:0.45;"/>
   </g>
   <g id="text_34">
    <!-- 80% MTF -->
    <g transform="translate(276.9978125 209.30355)scale(0.1 -0.1)">
     <use xlink:href="#BitstreamVeraSans-Roman-38"/>
     <use x="63.623046875" xlink:href="#BitstreamVeraSans-Roman-30"/>
     <use x="127.24609375" xlink:href="#BitstreamVeraSans-Roman-25"/>
     <use x="222.265625" xlink:href="#BitstreamVeraSans-Roman-20"/>
     <use x="254.052734375" xlink:href="#BitstreamVeraSans-Roman-4d"/>
     <use x="340.33203125" xlink:href="#BitstreamVeraSans-Roman-54"/>
     <use x="401.416015625" xlink:href="#BitstreamVeraSans-Roman-46"/>
    </g>
   </g>
   <g id="patch_7">
    <path d="
M295.598 227.95
Q295.598 253.116 295.598 278.282" style="fill:none;stroke:#0d0d0d;stroke-linecap:round;stroke-width:0.45;"/>
   </g>
   <g id="text_35">
    <!-- 97% MTF -->
    <g transform="translate(295.5978125 221.8725)scale(0.1 -0.1)">
     <use xlink:href="#BitstreamVeraSans-Roman-39"/>
     <use x="63.623046875" xlink:href="#BitstreamVeraSans-Roman-37"/>
     <use x="127.24609375" xlink:href="#BitstreamVeraSans-Roman-25"/>
     <use x="222.265625" xlink:href="#BitstreamVeraSans-Roman-20"/>
     <use x="254.052734375" xlink:href="#BitstreamVeraSans-Roman-4d"/>
     <use x="340.33203125" xlink:href="#BitstreamVeraSans-Roman-54"/>
     <use x="401.416015625" xlink:href="#BitstreamVeraSans-Roman-46"/>
    </g>
   </g>
   <g id="PathCollection_1">
    <defs>
     <path d="
M0 2.73861
C0.726289 2.73861 1.42293 2.45006 1.93649 1.93649
C2.45006 1.42293 2.73861 0.726289 2.73861 0
C2.73861 -0.726289 2.45006 -1.42293 1.93649 -1.93649
C1.42293 -2.45006 0.726289 -2.73861 0 -2.73861
C-0.726289 -2.73861 -1.42293 -2.45006 -1.93649 -1.93649
C-2.45006 -1.42293 -2.73861 -0.726289 -2.73861 0
C-2.73861 0.726289 -2.45006 1.42293 -1.93649 1.93649
C-1.42293 2.45006 -0.726289 2.73861 0 2.73861
z
" id="C0_0_976255c095"/>
    </defs>
    <g clip-path="url(#pd6b4fd71aa)">
     <use style="fill:#9ecae1;stroke:#ffffff;" x="221.1978125" xlink:href="#C0_0_976255c095" y="230.17275"/>
    </g>
   </g>
   <g id="PathCollection_2">
    <defs>
     <path d="
M0 2.73861
C0.726289 2.73861 1.42293 2.45006 1.93649 1.93649
C2.45006 1.42293 2.73861 0.726289 2.73861 0
C2.73861 -0.726289 2.45006 -1.42293 1.93649 -1.93649
C1.42293 -2.45006 0.726289 -2.73861 0 -2.73861
C-0.726289 -2.73861 -1.42293 -2.45006 -1.93649 -1.93649
C-2.45006 -1.42293 -2.73861 -0.726289 -2.73861 0
C-2.73861 0.726289 -2.45006 1.42293 -1.93649 1.93649
C-1.42293 2.45006 -0.726289 2.73861 0 2.73861
z
" id="C1_0_976255c095"/>
    </defs>
    <g clip-path="url(#pd6b4fd71aa)">
     <use style="fill:#6baed6;stroke:#ffffff;" x="239.7978125" xlink:href="#C1_0_976255c095" y="249.3819"/>
    </g>
   </g>
   <g id="PathCollection_3">
    <defs>
     <path d="
M0 2.73861
C0.726289 2.73861 1.42293 2.45006 1.93649 1.93649
C2.45006 1.42293 2.73861 0.726289 2.73861 0
C2.73861 -0.726289 2.45006 -1.42293 1.93649 -1.93649
C1.42293 -2.45006 0.726289 -2.73861 0 -2.73861
C-0.726289 -2.73861 -1.42293 -2.45006 -1.93649 -1.93649
C-2.45006 -1.42293 -2.73861 -0.726289 -2.73861 0
C-2.73861 0.726289 -2.45006 1.42293 -1.93649 1.93649
C-1.42293 2.45006 -0.726289 2.73861 0 2.73861
z
" id="C2_0_976255c095"/>
    </defs>
    <g clip-path="url(#pd6b4fd71aa)">
     <use style="fill:#d73027;stroke:#ffffff;" x="258.3978125" xlink:href="#C2_0_976255c095" y="267.4053"/>
    </g>
   </g>
   <g id="PathCollection_4">
    <defs>
     <path d="
M0 2.73861
C0.726289 2.73861 1.42293 2.45006 1.93649 1.93649
C2.45006 1.42293 2.73861 0.726289 2.73861 0
C2.73861 -0.726289 2.45006 -1.42293 1.93649 -1.93649
C1.42293 -2.45006 0.726289 -2.73861 0 -2.73861
C-0.726289 -2.73861 -1.42293 -2.45006 -1.93649 -1.93649
C-2.45006 -1.42293 -2.73861 -0.726289 -2.73861 0
C-2.73861 0.726289 -2.45006 1.42293 -1.93649 1.93649
C-1.42293 2.45006 -0.726289 2.73861 0 2.73861
z
" id="C3_0_976255c095"/>
    </defs>
    <g clip-path="url(#pd6b4fd71aa)">
     <use style="fill:#2171b5;stroke:#ffffff;" x="276.9978125" xlink:href="#C3_0_976255c095" y="274.828095"/>
    </g>
   </g>
   <g id="PathCollection_5">
    <defs>
     <path d="
M0 2.73861
C0.726289 2.73861 1.42293 2.45006 1.93649 1.93649
C2.45006 1.42293 2.73861 0.726289 2.73861 0
C2.73861 -0.726289 2.45006 -1.42293 1.93649 -1.93649
C1.42293 -2.45006 0.726289 -2.73861 0 -2.73861
C-0.726289 -2.73861 -1.42293 -2.45006 -1.93649 -1.93649
C-2.45006 -1.42293 -2.73861 -0.726289 -2.73861 0
C-2.73861 0.726289 -2.45006 1.42293 -1.93649 1.93649
C-1.42293 2.45006 -0.726289 2.73861 0 2.73861
z
" id="C4_0_976255c095"/>
    </defs>
    <g clip-path="url(#pd6b4fd71aa)">
     <use style="fill:#08519c;stroke:#ffffff;" x="295.5978125" xlink:href="#C4_0_976255c095" y="280.2849165"/>
    </g>
   </g>
   <g id="patch_8">
    <path d="
M53.7978 2.16
L611.798 2.16" style="fill:none;stroke:#efefef;"/>
   </g>
   <g id="patch_9">
    <path d="
M611.798 281.16
L611.798 2.16" style="fill:none;stroke:#efefef;"/>
   </g>
   <g id="patch_10">
    <path d="
M53.7978 281.16
L611.798 281.16" style="fill:none;stroke:#888888;"/>
   </g>
   <g id="patch_11">
    <path d="
M53.7978 281.16
L53.7978 2.16" style="fill:none;stroke:#888888;"/>
   </g>
  </g>
 </g>
 <defs>
  <clipPath id="pd6b4fd71aa">
   <rect height="279.0" width="558.0" x="53.7978125" y="2.16"/>
  </clipPath>
 </defs>
</svg>
